<svg xmlns="http://www.w3.org/2000/svg" xmlns:xlink="http://www.w3.org/1999/xlink" width="84" height="85" viewBox="0 0 84 85">
  <defs>
    <clipPath id="clip-path">
      <rect id="Rectángulo_405211" data-name="Rectángulo 405211" width="55.483" height="55.483" fill="#12263f"/>
    </clipPath>
  </defs>
  <g id="Grupo_1209735" data-name="Grupo 1209735" transform="translate(-809.711 -7695)">
    <ellipse id="Elipse_11980" data-name="Elipse 11980" cx="42" cy="42.5" rx="42" ry="42.5" transform="translate(809.711 7695)" fill="#5fe168"/>
    <g id="Grupo_1108747" data-name="Grupo 1108747" transform="translate(823.969 7708.031)">
      <g id="Grupo_1108746" data-name="Grupo 1108746" clip-path="url(#clip-path)">
        <path id="Trazado_996448" data-name="Trazado 996448" d="M7.847,55.483H11.26A8.035,8.035,0,0,0,18.4,51.134l.263-.505.255.509a7.812,7.812,0,0,0,7.012,4.345h3.413a8.036,8.036,0,0,0,7.143-4.349l.263-.505.255.509a7.811,7.811,0,0,0,7.012,4.345h3.413A8.052,8.052,0,0,0,51.425,40.44l-2.988-1.707-1.706,1.706-2.655-2.655L39.31,41.358a7.782,7.782,0,0,0-1.394,1.359l-.518.646V35.209l.144-.084a3.294,3.294,0,0,0,0-5.725l-.144-.084V21.12h3.908A1.517,1.517,0,0,0,42.823,19.6V17.795a1.517,1.517,0,0,0-1.517-1.517H37.316l-.069-.193a2.414,2.414,0,0,0-3-1.5,2.487,2.487,0,0,0-1.7,2.394V28.937h-8.3a8.439,8.439,0,0,1-1.385-.121l-.2-.033-.038-.2a17.069,17.069,0,0,0-2.208-5.774l-.332-.543,3.66.61a3.913,3.913,0,0,0,.651.054,3.958,3.958,0,0,0,3.953-3.954v-.927l1.668-1.668a.557.557,0,0,0,0-.788l-.039-.04a5.491,5.491,0,0,1-1.6-3.379l-.043-.433.813.244a2.213,2.213,0,0,0,1.727-.2,2.175,2.175,0,0,0,1.091-1.8,2.63,2.63,0,0,0-1.27-2.34L27.305,5.606,27.1,5.193A9.338,9.338,0,0,0,18.7,0,11.436,11.436,0,0,0,7.551,14.11l.086.359H1.809v1.226H3.617v2.391h-1.2A2.422,2.422,0,0,0,0,20.507v12.66a2.424,2.424,0,0,0,1.615,2.272l.194.069v1.276A6.01,6.01,0,0,0,3.351,40.8l.213.237-.3.222A8.023,8.023,0,0,0,.018,47.092a7.856,7.856,0,0,0,7.829,8.391M37.4,17.5h4.2v2.391H37.4ZM15.6,52.7l-.359.3-.123-.512a8.694,8.694,0,0,0-.989-2.362L14.055,50l.05-.132a10.359,10.359,0,0,1,2.111-3.395l-.867-.867a11.482,11.482,0,0,0-1.977,2.864l-.183.373-.289-.3a8.7,8.7,0,0,0-1.232-1.076l-.2-.141.1-.221a10.36,10.36,0,0,1,4.16-4.542l.194-.113.159.159A6.818,6.818,0,0,1,15.6,52.7m-5.087-6.22-.123.253-.257-.114a8.509,8.509,0,0,0-1.79-.591L7.3,45.815a3.038,3.038,0,0,1-2.071-4.457l.03-.055,2.534-1.9,2.77,2.771,1.911-1.911,2.407,1.376-.389.262a11.626,11.626,0,0,0-3.977,4.577M31.993,53.72a6.733,6.733,0,0,1-1.677.458l-.271.038-.065-.315a6.07,6.07,0,0,0-4.929-4.775l-1.444-.241-.2,1.21,1.444.241a4.813,4.813,0,0,1,3.859,3.555l.093.364H25.929a6.626,6.626,0,0,1-6.618-6.62,6.683,6.683,0,0,1,1.924-4.654l.446-.453.051.633a4.288,4.288,0,0,0,3.407,3.854l1.046.209a7.559,7.559,0,0,1,5.825,5.555l.211.843ZM23.311,41.358l.03-.055,2.534-1.9,2.77,2.771,1.911-1.911,2.407,1.376-.389.262A11.623,11.623,0,0,0,28.6,46.476l-.123.253-.257-.114a8.512,8.512,0,0,0-1.79-.591l-1.046-.209a3.038,3.038,0,0,1-2.071-4.457m-.382-1.278V35.538l.306.016.227.014c.159.01.319.021.481.021h8.611v4.4l-2.2-1.258-1.706,1.706L25.99,37.784ZM33.685,52.7l-.357.3-.126-.509a8.683,8.683,0,0,0-.988-2.364L32.141,50l.05-.132A10.357,10.357,0,0,1,34.3,46.47l-.867-.867a11.482,11.482,0,0,0-1.977,2.864l-.183.373-.288-.3a8.727,8.727,0,0,0-1.232-1.076l-.2-.141.1-.221a10.36,10.36,0,0,1,4.16-4.542l.194-.113.159.159A6.818,6.818,0,0,1,33.685,52.7m2.486-9.6-.52-.657a8.04,8.04,0,0,0-1.746-1.622l-.126-.087V35.589h2.391ZM51.9,42.563l.194-.113.159.159A6.819,6.819,0,0,1,51.771,52.7l-.357.3-.126-.509a8.679,8.679,0,0,0-.989-2.364L50.226,50l.05-.132a10.361,10.361,0,0,1,2.111-3.395L51.52,45.6a11.488,11.488,0,0,0-1.977,2.864l-.183.373-.288-.3a8.718,8.718,0,0,0-1.232-1.076l-.2-.141.1-.221a10.363,10.363,0,0,1,4.16-4.542M41.4,41.358l.03-.055,2.534-1.9,2.77,2.771,1.911-1.911,2.407,1.376-.389.262a11.625,11.625,0,0,0-3.977,4.577l-.122.253-.257-.114a8.632,8.632,0,0,0-1.79-.59l-1.046-.209A3.039,3.039,0,0,1,41.4,41.358m-2.076,1.623.446-.453.052.633a4.289,4.289,0,0,0,3.407,3.854l1.046.209A7.559,7.559,0,0,1,50.1,52.78l.212.843-.23.1a6.736,6.736,0,0,1-1.677.458l-.271.038-.066-.315a6.069,6.069,0,0,0-4.929-4.775l-1.444-.241-.2,1.21,1.444.241a4.814,4.814,0,0,1,3.858,3.555l.093.364H44.015a6.626,6.626,0,0,1-6.618-6.62,6.685,6.685,0,0,1,1.924-4.654M33.78,16.89a1.2,1.2,0,0,1,2.391,0V28.937H33.78ZM31.971,30.163H35.88a2.1,2.1,0,0,1,0,4.2H31.971Zm-10.753-2.3.146.581-.547-.245a8.413,8.413,0,0,1-2.525-1.733l-1.233-1.234a.613.613,0,0,0-.867.867l1.234,1.233a9.591,9.591,0,0,0,6.828,2.828h6.493v4.2h-6.8a11.964,11.964,0,0,1-8.518-3.529l-1.982-1.982a.613.613,0,1,0-.867.867L14.557,31.7a13.171,13.171,0,0,0,6.909,3.653l.237.044V41l-.478.359a7.884,7.884,0,0,0-2.208,2.6l-.269.508-.25-.518a8.02,8.02,0,0,0-3.243-3.507l-2.988-1.707L10.56,40.439l-2.1-2.1V29.55a7.526,7.526,0,0,1,7.526-7.526h2.406l.087.115a15.824,15.824,0,0,1,2.739,5.724m7.323-12.1.157.2-1.57,1.57v1.434A2.759,2.759,0,0,1,24.391,21.7a2.664,2.664,0,0,1-.439-.037l-3.736-.623.535-.408a5.523,5.523,0,0,0,1.594-6.865l-.857-1.714A3.505,3.505,0,0,1,21.12,10.5a3.371,3.371,0,0,1,.052-.564l.054-.326,5.9,1.771v.217a6.731,6.731,0,0,0,1.413,4.173M30.07,8.693a1.4,1.4,0,0,1,.676,1.195.982.982,0,0,1-.971.963.931.931,0,0,1-.271-.04L21.74,8.48l.317-.343a3.493,3.493,0,0,1,2.055-1.091l2.6-.37ZM18.7,1.226a8.089,8.089,0,0,1,6.993,3.948l.226.376-1.979.283a4.711,4.711,0,0,0-3.547,6.77l.857,1.714a4.3,4.3,0,0,1-1.267,5.365L18.494,20.8H15.985a8.73,8.73,0,0,0-2.557.383l-.2.06-2.725-3.635A10.238,10.238,0,0,1,18.7,1.226M4.843,15.695H8.048l.075.179a11.563,11.563,0,0,0,.919,1.764l.286.448H4.843ZM1.226,33.167V20.507a1.2,1.2,0,0,1,1.2-1.2h7.832l1.809,2.412-.293.162A8.766,8.766,0,0,0,7.234,29.55v4.813H2.421a1.2,1.2,0,0,1-1.2-1.2m1.809,3.617v-1.2h4.2v2.7L4.555,40.3l-.179-.186a4.776,4.776,0,0,1-1.342-3.326m.115,6.2.446-.453.051.633a4.288,4.288,0,0,0,3.407,3.854l1.046.209a7.559,7.559,0,0,1,5.825,5.555l.212.843-.23.1a6.729,6.729,0,0,1-1.677.458l-.271.038L11.9,53.9a6.068,6.068,0,0,0-4.929-4.775l-1.444-.241-.2,1.21,1.444.241a4.813,4.813,0,0,1,3.859,3.555l.093.364H7.844a6.626,6.626,0,0,1-6.618-6.62A6.684,6.684,0,0,1,3.15,42.981" transform="translate(0)" fill="#12263f"/>
        <path id="Trazado_996449" data-name="Trazado 996449" d="M162.06,45.108a2.424,2.424,0,0,0-2.422-2.421H156.6l1.1-1.1A2.531,2.531,0,0,0,154.122,38l-3.754,3.754.867.867,3.754-3.754a1.305,1.305,0,0,1,1.847,1.846l-.608.608a1.517,1.517,0,0,0,1.073,2.59h2.339a1.2,1.2,0,0,1,0,2.391H157.3a1.517,1.517,0,0,0-1.073,2.59l.607.608a1.305,1.305,0,0,1-1.846,1.847l-3.755-3.755-.867.867,3.754,3.754a2.531,2.531,0,0,0,3.579-3.58l-1.1-1.1h3.042a2.424,2.424,0,0,0,2.422-2.422" transform="translate(-106.577 -26.41)" fill="#12263f"/>
      </g>
    </g>
  </g>
</svg>
