<svg xmlns="http://www.w3.org/2000/svg" xmlns:xlink="http://www.w3.org/1999/xlink" width="84" height="85" viewBox="0 0 84 85">
  <defs>
    <clipPath id="clip-path">
      <rect id="Rectángulo_405209" data-name="Rectángulo 405209" width="64.146" height="48.156" fill="#12263f"/>
    </clipPath>
  </defs>
  <g id="Grupo_1209733" data-name="Grupo 1209733" transform="translate(-809.711 -6559)">
    <ellipse id="Elipse_11980" data-name="Elipse 11980" cx="42" cy="42.5" rx="42" ry="42.5" transform="translate(809.711 6559)" fill="#5fe168"/>
    <g id="Grupo_1108745" data-name="Grupo 1108745" transform="translate(819.711 6576.545)">
      <g id="Grupo_1108744" data-name="Grupo 1108744" clip-path="url(#clip-path)">
        <path id="Trazado_996447" data-name="Trazado 996447" d="M63.706,22.043l-4.15-6.314-1.964-2.987A2.585,2.585,0,0,0,57,12.107l-.094-.08h-.04a2.713,2.713,0,0,0-1.5-.461H46.467a2.673,2.673,0,0,0-2.673,2.673V33.482H41.936V28.264a2.673,2.673,0,0,0-2.673-2.673H36.137v-.167a4.39,4.39,0,0,0-2.058-2.713,4.337,4.337,0,0,0-3.341-.495h-.094a2.757,2.757,0,0,0-.067-.321,4.4,4.4,0,0,0-5.313-3.249l-.033.008a4.918,4.918,0,0,0-.909.341,4.409,4.409,0,0,0-3.161-2.158V8.759h.06a7.952,7.952,0,0,0,5.486-1.884C28.974,4.67,28.606.788,28.586.621a.669.669,0,0,0-.595-.595c-.161,0-4.009-.394-6.254,1.844-1.691,1.664-1.885,4.223-1.885,5.473V7.61a5.078,5.078,0,0,0-.548-.668C17.066,4.7,13.211,5.077,13.05,5.1a.667.667,0,0,0-.594.595c0,.161-.388,4.009,1.851,6.247a7.938,7.938,0,0,0,5.486,1.891h.06V16.8a3.86,3.86,0,0,0-.387.067,4.359,4.359,0,0,0-2.633,1.864,4.417,4.417,0,0,0-5.473,2.319,4.4,4.4,0,0,0-5.639,4.53H2.673A2.672,2.672,0,0,0,0,28.257V40.378a2.673,2.673,0,0,0,2.672,2.673h8.419a5.753,5.753,0,0,0,11.433,0H47.155a5.753,5.753,0,0,0,11.433,0h2.887a2.673,2.673,0,0,0,2.673-2.673V23.539a2.678,2.678,0,0,0-.441-1.5m-18.582-7.8a1.336,1.336,0,0,1,1.336-1.336h8.9a1.38,1.38,0,0,1,.668.161,1.334,1.334,0,0,1,.482.441l2,3.007,4.136,6.3a1.288,1.288,0,0,1,.161.722v2.833H45.124ZM22.679,2.819a6.707,6.707,0,0,1,4.6-1.49c0,1.042-.154,3.261-1.49,4.6a6.647,6.647,0,0,1-4.564,1.5h-.04c-.007-1.042.147-3.261,1.49-4.6m-2.866,9.716a6.7,6.7,0,0,1-4.564-1.5c-1.323-1.323-1.5-3.554-1.49-4.6,1.022,0,3.261.14,4.6,1.483a6.628,6.628,0,0,1,1.49,4.57v.04ZM7.491,23.7a3.047,3.047,0,0,1,1.9-1.4,2.985,2.985,0,0,1,2.065.227.675.675,0,0,0,.935-.434,3.087,3.087,0,0,1,4.424-1.884.66.66,0,0,0,.922-.314,3.021,3.021,0,0,1,2.052-1.7h.067v.127a.668.668,0,1,0,1.336,0v-.127a3.079,3.079,0,0,1,2.245,2,.664.664,0,0,0,1.036.307,3.208,3.208,0,0,1,1.116-.535,3.073,3.073,0,0,1,3.719,2.249l0,.009a2.709,2.709,0,0,1,.093.875.668.668,0,0,0,.982.668,2.808,2.808,0,0,1,.668-.274,3.047,3.047,0,0,1,3.7,2.085H7.063A3.072,3.072,0,0,1,7.491,23.7M2.673,26.92H39.257a1.336,1.336,0,0,1,1.336,1.336v5.219H1.337V28.264a1.337,1.337,0,0,1,1.33-1.343h.007m14.139,19.9a4.4,4.4,0,1,1,0,.014Zm36.082,0a4.423,4.423,0,1,1,4.416-4.43V42.4a4.43,4.43,0,0,1-4.437,4.423Zm8.579-5.1H58.587a5.753,5.753,0,0,0-11.433,0H22.519a5.753,5.753,0,0,0-11.426,0H2.673a1.336,1.336,0,0,1-1.336-1.336V34.819H44.455a.668.668,0,0,0,.668-.668V27.709H62.811V40.4a1.337,1.337,0,0,1-1.336,1.316" transform="translate(-0.001 0.001)" fill="#12263f"/>
      </g>
    </g>
  </g>
</svg>
