<svg xmlns="http://www.w3.org/2000/svg" xmlns:xlink="http://www.w3.org/1999/xlink" width="121" height="122" viewBox="0 0 121 122">
  <defs>
    <clipPath id="clip-path">
      <rect id="Rectángulo_405185" data-name="Rectángulo 405185" width="80.693" height="81.227" fill="none"/>
    </clipPath>
  </defs>
  <g id="Grupo_1209725" data-name="Grupo 1209725" transform="translate(-743.711 -4471)">
    <ellipse id="Elipse_11629" data-name="Elipse 11629" cx="60.5" cy="61" rx="60.5" ry="61" transform="translate(743.711 4471)" fill="#55cb5d"/>
    <g id="Grupo_1108727" data-name="Grupo 1108727" transform="translate(768.207 4491)">
      <g id="Grupo_1108726" data-name="Grupo 1108726" clip-path="url(#clip-path)">
        <path id="Trazado_996296" data-name="Trazado 996296" d="M113.419,138.272a1.275,1.275,0,0,0,.221.013h.039a2.847,2.847,0,0,0,2.8-2.29l.234-1.132a3.822,3.822,0,0,1,3.761-3.085,2.853,2.853,0,0,1,2.707,1.952,2.853,2.853,0,0,0,2.707,1.952h.924a2.879,2.879,0,0,1,2.772,2.161l.208.885a2.88,2.88,0,0,0,2.772,2.16h4.2a2.741,2.741,0,0,0-2.03.911l-2.863,3.28A18.213,18.213,0,0,1,118.17,151.3H114.72a6.488,6.488,0,0,0,6.508-6.507,1.306,1.306,0,0,0-1.3-1.3H103.671a13,13,0,0,0-6.9,1.978l.677-4.737a2.857,2.857,0,0,1,2.824-2.447h.676a2.853,2.853,0,0,0,2.707-1.952,2.852,2.852,0,0,1,2.707-1.952h1.627a1.43,1.43,0,0,1,.234.013,2.85,2.85,0,0,1,2.134,1.263l.911,1.353A2.852,2.852,0,0,0,113.419,138.272Z" transform="translate(-60.057 -81.781)" fill="#c68b61"/>
        <path id="Trazado_996297" data-name="Trazado 996297" d="M107.887,166.2h3.449a18.214,18.214,0,0,0,13.705-6.221l2.863-3.28a2.741,2.741,0,0,1,2.031-.911,2.667,2.667,0,0,1,2.681,2.681,8.308,8.308,0,0,1-1.392,4.62l-.521.768a28.639,28.639,0,0,1-23.818,12.755h-12.1a12.828,12.828,0,0,1-4.842-.937l-4.178-1.666V163.6l2.941-2.356a11.75,11.75,0,0,1,1.236-.872,13,13,0,0,1,6.9-1.979h16.256a1.305,1.305,0,0,1,1.3,1.3,6.487,6.487,0,0,1-6.507,6.507Z" transform="translate(-53.224 -96.683)" fill="#efc5a5"/>
        <path id="Trazado_996298" data-name="Trazado 996298" d="M34.666,7.454V23.072a2.61,2.61,0,0,1-2.6,2.6H22.953v3.371a1.84,1.84,0,0,1-3.136,1.3l-4.673-4.672H6.033a2.611,2.611,0,0,1-2.6-2.6V7.454a2.611,2.611,0,0,1,2.6-2.6h26.03a2.611,2.611,0,0,1,2.6,2.6" transform="translate(-2.129 -3.011)" fill="#e0e4e9"/>
        <path id="Trazado_996299" data-name="Trazado 996299" d="M72.987,172.115v10.412a2.61,2.61,0,0,1-2.6,2.6H65.178V169.512h5.206a2.611,2.611,0,0,1,2.6,2.6" transform="translate(-40.45 -105.199)" fill="#ea695c"/>
        <rect id="Rectángulo_405183" data-name="Rectángulo 405183" width="18.221" height="15.618" transform="translate(1.301 64.313)" fill="#ea695c"/>
        <rect id="Rectángulo_405184" data-name="Rectángulo 405184" width="5.206" height="15.618" transform="translate(19.523 64.313)" fill="#e75542"/>
        <path id="Trazado_996300" data-name="Trazado 996300" d="M60.92,87.181a2.6,2.6,0,1,1-2.6,2.6,2.6,2.6,0,0,1,2.6-2.6" transform="translate(-36.192 -54.105)" fill="#ea695c"/>
        <path id="Trazado_996301" data-name="Trazado 996301" d="M6.033,87.181a2.6,2.6,0,1,1-2.6,2.6,2.6,2.6,0,0,1,2.6-2.6" transform="translate(-2.129 -54.105)" fill="#ea695c"/>
        <path id="Trazado_996302" data-name="Trazado 996302" d="M33.477,87.181a2.6,2.6,0,1,1-2.6,2.6,2.6,2.6,0,0,1,2.6-2.6" transform="translate(-19.16 -54.105)" fill="#ea695c"/>
        <path id="Trazado_996303" data-name="Trazado 996303" d="M160.877,96.766a6.927,6.927,0,0,1-3.215-1.119,9.51,9.51,0,0,1-3.293-5.7,9.293,9.293,0,0,1,4.555.807c-.039-.2-.078-.39-.1-.585a9.615,9.615,0,0,1,1.614-6.416,9.4,9.4,0,0,1,3.149,5.779c.013.078.013.156.026.247.052-.065.078-.143.13-.208a9.1,9.1,0,0,1,5.57-3.371,9.625,9.625,0,0,1-1.757,6.364,2.342,2.342,0,0,1-.169.182c.078-.013.156-.026.247-.039a9.021,9.021,0,0,1,6.26,1.64,9.171,9.171,0,0,1-5.648,3.241c-.195.026-.377.039-.573.052a9.891,9.891,0,0,1,1.926,4.3,8.983,8.983,0,0,1-6.221-1.8A10.632,10.632,0,0,1,160.877,96.766Z" transform="translate(-95.802 -51.976)" fill="#afc96a"/>
        <path id="Trazado_996304" data-name="Trazado 996304" d="M130.4,25.519a9.414,9.414,0,0,1-13.171.143,9.414,9.414,0,0,1-13.171-.143l-1.145-1.145,1.145-1.145a9.54,9.54,0,0,1,3.879-2.342,10.015,10.015,0,0,1-2.421-6.508V12.66h1.718a10.012,10.012,0,0,1,6.391,2.317,9.184,9.184,0,0,1-.3-2.317A9.418,9.418,0,0,1,116.084,6l1.145-1.145L118.375,6a9.418,9.418,0,0,1,2.759,6.664,9.185,9.185,0,0,1-.3,2.317,10.012,10.012,0,0,1,6.391-2.317h1.718v1.718a10.015,10.015,0,0,1-2.421,6.508,9.542,9.542,0,0,1,3.879,2.342l1.145,1.145Z" transform="translate(-63.868 -3.011)" fill="#afc96a"/>
        <path id="Trazado_996305" data-name="Trazado 996305" d="M88.485,100.2a10.632,10.632,0,0,1-2.5,3.371,8.983,8.983,0,0,1-6.221,1.8,9.891,9.891,0,0,1,1.926-4.3c-.2-.013-.378-.026-.573-.052a9.171,9.171,0,0,1-5.648-3.241,9.021,9.021,0,0,1,6.26-1.64c.091.013.169.026.247.039a2.415,2.415,0,0,1-.169-.182,9.625,9.625,0,0,1-1.757-6.364A9.1,9.1,0,0,1,85.622,93c.052.065.078.143.13.208.013-.091.013-.169.026-.247a9.4,9.4,0,0,1,3.149-5.779A9.615,9.615,0,0,1,90.541,93.6c-.026.2-.065.39-.1.585a9.293,9.293,0,0,1,4.555-.807,9.51,9.51,0,0,1-3.293,5.7,6.927,6.927,0,0,1-3.215,1.119" transform="translate(-46.837 -54.105)" fill="#afc96a"/>
        <path id="Trazado_996306" data-name="Trazado 996306" d="M76.708,57.805h-4.2A1.552,1.552,0,0,1,71,56.626l-.221-.877a4.149,4.149,0,0,0-4.031-3.15h-.919a1.553,1.553,0,0,1-1.475-1.062,4.137,4.137,0,0,0-1.9-2.292l2.334-2.334a9.357,9.357,0,0,0,1.976,2.275,10.279,10.279,0,0,0,6.3,2.111,7.256,7.256,0,0,0,.9-.047l1.295-.173-.179-1.295a10.827,10.827,0,0,0-1.077-3.18,10.667,10.667,0,0,0,5.123-3.446l.764-1.016-1-.786a10.536,10.536,0,0,0-4.971-1.933,11.08,11.08,0,0,0,.869-5.364l-.166-1.3-1.3.175a10.549,10.549,0,0,0-4.815,2.2,10.867,10.867,0,0,0-3.082-4.379l-1.046-.824L63.587,31a10.981,10.981,0,0,0-1.93,5.923,10.2,10.2,0,0,0-3.246-.238l-1.3.159.165,1.3a10.788,10.788,0,0,0,3.781,6.552,5.416,5.416,0,0,0,1.462.819l-3.366,3.363a5.15,5.15,0,0,0-3.78,3.957l-.225,1.125a1.536,1.536,0,0,1-.484.829V25.2a10.674,10.674,0,0,0,12.791-1.774l2.065-2.064L67.455,19.3a10.738,10.738,0,0,0-2.772-2,11.266,11.266,0,0,0,1.694-5.935V8.348H63.361a11.305,11.305,0,0,0-4.795,1.071,10.652,10.652,0,0,0-3.139-7.355L53.362,0,51.3,2.064a10.653,10.653,0,0,0-3.139,7.355,11.3,11.3,0,0,0-4.795-1.071H40.347v3.017A11.274,11.274,0,0,0,42.042,17.3a10.746,10.746,0,0,0-2.772,2l-2.064,2.064,2.064,2.064A10.674,10.674,0,0,0,52.061,25.2V54.157l-.672-1.01A4.138,4.138,0,0,0,48.8,51.4l-4.6-4.6a5.4,5.4,0,0,0,1.46-.817,10.78,10.78,0,0,0,3.782-6.553l.166-1.3-1.3-.159a10.162,10.162,0,0,0-3.246.238,11,11,0,0,0-1.93-5.923l-.8-1.065-1.046.824a10.869,10.869,0,0,0-3.081,4.38,10.55,10.55,0,0,0-4.817-2.2l-1.3-.174-.167,1.3a11.082,11.082,0,0,0,.868,5.362,10.541,10.541,0,0,0-4.969,1.934l-1,.786.764,1.016A10.637,10.637,0,0,0,32.717,47.9a10.889,10.889,0,0,0-1.078,3.18l-.179,1.295,1.295.173a7.27,7.27,0,0,0,.9.047,10.28,10.28,0,0,0,6.3-2.112,9.333,9.333,0,0,0,1.974-2.274l3.251,3.251a4.147,4.147,0,0,0-2.814,2.676A1.553,1.553,0,0,1,40.893,55.2H40.22A4.179,4.179,0,0,0,36.1,58.767l-.593,4.156c-.288.2-.571.4-.845.618l-1.493,1.193a3.9,3.9,0,0,0-3.24-1.728H0V81.227H29.936a3.893,3.893,0,0,0,3.471-2.155L36.235,80.2a14.3,14.3,0,0,0,5.317,1.023h12.1A29.875,29.875,0,0,0,78.564,67.9l.514-.77a9.576,9.576,0,0,0,1.617-5.334A3.992,3.992,0,0,0,76.708,57.805ZM64.626,43.374a3.947,3.947,0,0,1-1.957-.733,7.788,7.788,0,0,1-2.383-3.329,7.968,7.968,0,0,1,2.3.645L64.9,41.013l-.5-2.493c-.031-.162-.062-.326-.083-.5a7.974,7.974,0,0,1,.6-4.046A8.01,8.01,0,0,1,66.5,37.783l.387,3.664,1.995-2.912.1-.16a7.572,7.572,0,0,1,3.2-2.416,7.87,7.87,0,0,1-1.461,3.833l-2.2,2.785,3.275-.519L72,42.022a7.441,7.441,0,0,1,3.978.634,7.456,7.456,0,0,1-3.7,1.661c-.165.023-.324.034-.483.044l-2.489.148,1.545,1.956a8.521,8.521,0,0,1,1.224,2.163,7.48,7.48,0,0,1-3.691-1.489,7.829,7.829,0,0,1-1.692-2.124L67.907,43.8l-1.842-1.839-1.418,1.417ZM46.855,23.966a8.073,8.073,0,0,1-5.745-2.379l-.224-.224.224-.224a8.168,8.168,0,0,1,3.349-2.017l1.9-.585-1.3-1.506a8.693,8.693,0,0,1-2.111-5.666v-.414h.414a8.709,8.709,0,0,1,5.561,2.016l3.086,2.569-.992-3.891A8.044,8.044,0,0,1,53.139,3.9l.223-.224.224.224a8.042,8.042,0,0,1,2.119,7.74l-.993,3.89L57.8,12.966a8.712,8.712,0,0,1,5.561-2.016h.415v.414a8.692,8.692,0,0,1-2.111,5.666l-1.3,1.506,1.9.586a8.181,8.181,0,0,1,3.349,2.017l.224.224-.224.224a8.093,8.093,0,0,1-10.951.471v-3.3h-2.6v3.3A8.056,8.056,0,0,1,46.855,23.966Zm-8.51,24.475a7.452,7.452,0,0,1-3.692,1.49,8.5,8.5,0,0,1,1.225-2.163l1.545-1.956-2.488-.148c-.159-.01-.318-.022-.484-.044a7.5,7.5,0,0,1-3.691-1.661,7.543,7.543,0,0,1,4.033-.623l3.416.546-2.045-2.608a1.42,1.42,0,0,0-.143-.16,7.921,7.921,0,0,1-1.472-3.85,7.526,7.526,0,0,1,3.187,2.407l2.1,3.082.373-3.51.019-.22a7.88,7.88,0,0,1,1.584-3.744,7.975,7.975,0,0,1,.6,4.052c-.022.17-.052.334-.083.5l-.5,2.494,2.311-1.056a8.014,8.014,0,0,1,2.305-.646,7.757,7.757,0,0,1-2.392,3.332,3.946,3.946,0,0,1-1.956.731l-.021,0-1.428-1.428-1.84,1.84,1.226,1.226A7.878,7.878,0,0,1,38.345,48.441Zm.338,10.7a1.563,1.563,0,0,1,1.538-1.335h.673a4.151,4.151,0,0,0,3.942-2.842A1.553,1.553,0,0,1,46.311,53.9h1.62a1.55,1.55,0,0,1,1.293.691l.907,1.363a4.183,4.183,0,0,0,7.571-1.49l.225-1.125a2.548,2.548,0,0,1,2.49-2.041,1.553,1.553,0,0,1,1.474,1.062A4.153,4.153,0,0,0,65.833,55.2h.919a1.551,1.551,0,0,1,1.507,1.179l.222.877a4.148,4.148,0,0,0,4.032,3.15h.109l-1.778,2.032A16.9,16.9,0,0,1,60.668,68a7.791,7.791,0,0,0,1.8-4.99,2.605,2.605,0,0,0-2.6-2.6H43.612a14.314,14.314,0,0,0-5.255,1.016ZM23.428,78.629h-2.6V65.614h2.6ZM2.6,65.614H18.222V78.629H2.6ZM31.237,77.328a1.3,1.3,0,0,1-1.3,1.3h-3.9V65.614h3.9a1.3,1.3,0,0,1,1.3,1.3ZM76.912,65.688l-.514.771A27.278,27.278,0,0,1,53.655,78.63h-12.1a11.69,11.69,0,0,1-4.351-.838l-3.36-1.346v-8.9l2.455-1.964a11.753,11.753,0,0,1,7.317-2.568H59.87a5.211,5.211,0,0,1-5.206,5.206H49.458v2.6h8.651A19.527,19.527,0,0,0,72.8,64.151l2.863-3.272a1.384,1.384,0,0,1,2.425.911A7,7,0,0,1,76.912,65.688Z" transform="translate(-0.001)" fill="#040506"/>
        <path id="Trazado_996307" data-name="Trazado 996307" d="M3.9,91.56a3.9,3.9,0,1,0-3.9-3.9,3.909,3.909,0,0,0,3.9,3.9m0-5.206a1.3,1.3,0,1,1-1.3,1.3,1.3,1.3,0,0,1,1.3-1.3" transform="translate(0 -51.976)" fill="#040506"/>
        <path id="Trazado_996308" data-name="Trazado 996308" d="M27.443,87.655a3.9,3.9,0,1,0,3.9-3.9,3.909,3.909,0,0,0-3.9,3.9m5.206,0a1.3,1.3,0,1,1-1.3-1.3,1.3,1.3,0,0,1,1.3,1.3" transform="translate(-17.031 -51.976)" fill="#040506"/>
        <path id="Trazado_996309" data-name="Trazado 996309" d="M54.887,87.655a3.9,3.9,0,1,0,3.9-3.9,3.909,3.909,0,0,0-3.9,3.9m5.206,0a1.3,1.3,0,1,1-1.3-1.3,1.3,1.3,0,0,1,1.3,1.3" transform="translate(-34.063 -51.976)" fill="#040506"/>
        <path id="Trazado_996310" data-name="Trazado 996310" d="M3.9,24.848h8.572l4.286,4.286a3.142,3.142,0,0,0,5.364-2.222V24.848h7.809a3.91,3.91,0,0,0,3.9-3.9V5.325a3.909,3.909,0,0,0-3.9-3.9H3.9A3.909,3.909,0,0,0,0,5.325V20.943a3.909,3.909,0,0,0,3.9,3.9M2.6,5.325a1.3,1.3,0,0,1,1.3-1.3h26.03a1.3,1.3,0,0,1,1.3,1.3V20.943a1.3,1.3,0,0,1-1.3,1.3H19.523v4.667a.56.56,0,0,1-.92.381l-5.048-5.048H3.9a1.3,1.3,0,0,1-1.3-1.3Z" transform="translate(0 -0.882)" fill="#040506"/>
        <path id="Trazado_996311" data-name="Trazado 996311" d="M39.874,17.987l-1.84-1.84-9.492,9.492-1.683-1.683-1.84,1.84,3.523,3.523Z" transform="translate(-15.526 -10.021)" fill="#040506"/>
      </g>
    </g>
  </g>
</svg>
