<svg xmlns="http://www.w3.org/2000/svg" xmlns:xlink="http://www.w3.org/1999/xlink" width="131" height="143.039" viewBox="0 0 131 143.039">
  <defs>
    <clipPath id="clip-path">
      <rect id="Rectángulo_405208" data-name="Rectángulo 405208" width="77.984" height="124.345" fill="none"/>
    </clipPath>
  </defs>
  <g id="Grupo_1209732" data-name="Grupo 1209732" transform="translate(-980.711 -5641.961)">
    <ellipse id="Elipse_11979" data-name="Elipse 11979" cx="65.5" cy="66" rx="65.5" ry="66" transform="translate(980.711 5653)" fill="#f7eeea"/>
    <g id="Grupo_1108743" data-name="Grupo 1108743" transform="translate(1006.711 5641.961)">
      <rect id="Rectángulo_405206" data-name="Rectángulo 405206" width="47.023" height="15.451" transform="translate(15.48 11.239)" fill="#bfe5f6"/>
      <rect id="Rectángulo_405207" data-name="Rectángulo 405207" width="9.699" height="15.451" transform="translate(52.805 11.239)" fill="#90d2ed"/>
      <g id="Grupo_1108742" data-name="Grupo 1108742">
        <g id="Grupo_1108741" data-name="Grupo 1108741" clip-path="url(#clip-path)">
          <path id="Trazado_996423" data-name="Trazado 996423" d="M62.5,20.229H15.48L6.306,30.567A25.019,25.019,0,0,0,0,47.174V96.056H77.983V47.174a25.019,25.019,0,0,0-6.306-16.607Z" fill="#d6eef7"/>
          <path id="Trazado_996424" data-name="Trazado 996424" d="M77.984,47.176V96.054h-9.7V47.176a25.019,25.019,0,0,0-6.3-16.608L52.805,20.23h9.7l9.175,10.338a25.021,25.021,0,0,1,6.307,16.608" fill="#bfe5f6"/>
          <path id="Trazado_996425" data-name="Trazado 996425" d="M39.659,48.892a1.8,1.8,0,0,0-1.337,0,14.886,14.886,0,0,0,0,27.629,1.8,1.8,0,0,0,1.337,0,14.886,14.886,0,0,0,0-27.629Z" fill="#8bb327"/>
          <path id="Trazado_996426" data-name="Trazado 996426" d="M49,62.707A14.885,14.885,0,0,1,39.658,76.52a1.771,1.771,0,0,1-1.338,0,14.836,14.836,0,0,1-3.075-1.685,14.874,14.874,0,0,0,0-24.26,14.786,14.786,0,0,1,3.075-1.684,1.8,1.8,0,0,1,1.338,0A14.892,14.892,0,0,1,49,62.707" fill="#7eaa1f"/>
          <path id="Trazado_996427" data-name="Trazado 996427" d="M21.247,57.944a1.8,1.8,0,0,0-1.257.458,14.886,14.886,0,0,0,9.45,25.962,1.789,1.789,0,0,0,1.257-.457,14.887,14.887,0,0,0-9.45-25.963Z" fill="#96b82e"/>
          <path id="Trazado_996428" data-name="Trazado 996428" d="M34.75,67.731a14.882,14.882,0,0,1-4.055,16.175,1.766,1.766,0,0,1-1.256.458,14.866,14.866,0,0,1-3.467-.531,14.874,14.874,0,0,0-8.3-22.8A14.79,14.79,0,0,1,19.989,58.4a1.8,1.8,0,0,1,1.257-.458A14.892,14.892,0,0,1,34.75,67.731Z" fill="#8bb327"/>
          <path id="Trazado_996429" data-name="Trazado 996429" d="M58.92,58.916a1.8,1.8,0,0,0-1.212-.565,14.886,14.886,0,0,0-11.677,25.04,1.8,1.8,0,0,0,1.212.566A14.886,14.886,0,0,0,58.92,58.916Z" fill="#96b82e"/>
          <path id="Trazado_996430" data-name="Trazado 996430" d="M61.548,75.385a14.885,14.885,0,0,1-14.305,8.571,1.774,1.774,0,0,1-1.212-.566,14.76,14.76,0,0,1-2.075-2.826A14.874,14.874,0,0,0,54.208,58.577a14.769,14.769,0,0,1,3.5-.227,1.8,1.8,0,0,1,1.212.565,14.893,14.893,0,0,1,2.628,16.47" fill="#8bb327"/>
          <path id="Trazado_996431" data-name="Trazado 996431" d="M68.326,75.081a1.8,1.8,0,0,0-.946-.946A14.886,14.886,0,0,0,47.844,93.672a1.8,1.8,0,0,0,.945.946A14.887,14.887,0,0,0,68.326,75.081" fill="#b8cb5e"/>
          <path id="Trazado_996432" data-name="Trazado 996432" d="M65.163,91.455A14.884,14.884,0,0,1,48.79,94.616a1.768,1.768,0,0,1-.946-.945,14.839,14.839,0,0,1-.984-3.366A14.875,14.875,0,0,0,64.015,73.15a14.824,14.824,0,0,1,3.366.984,1.8,1.8,0,0,1,.946.946A14.893,14.893,0,0,1,65.163,91.455Z" fill="#a1bd2c"/>
          <path id="Trazado_996433" data-name="Trazado 996433" d="M10.6,74.136a1.8,1.8,0,0,0-.946.946A14.886,14.886,0,0,0,29.191,94.618a1.8,1.8,0,0,0,.946-.945A14.887,14.887,0,0,0,10.6,74.136Z" fill="#b8cb5e"/>
          <path id="Trazado_996434" data-name="Trazado 996434" d="M26.974,77.3a14.884,14.884,0,0,1,3.161,16.373,1.768,1.768,0,0,1-.945.946,14.838,14.838,0,0,1-3.366.984A14.875,14.875,0,0,0,8.669,78.447a14.824,14.824,0,0,1,.984-3.366,1.8,1.8,0,0,1,.946-.946A14.893,14.893,0,0,1,26.974,77.3Z" fill="#a1bd2c"/>
          <path id="Trazado_996435" data-name="Trazado 996435" d="M39.659,68.052a1.8,1.8,0,0,0-1.337,0,14.886,14.886,0,0,0,0,27.629,1.8,1.8,0,0,0,1.337,0,14.886,14.886,0,0,0,0-27.629" fill="#b8cb5e"/>
          <path id="Trazado_996436" data-name="Trazado 996436" d="M49,81.867A14.885,14.885,0,0,1,39.658,95.68a1.771,1.771,0,0,1-1.338,0A14.836,14.836,0,0,1,35.245,94a14.874,14.874,0,0,0,0-24.26,14.785,14.785,0,0,1,3.075-1.684,1.8,1.8,0,0,1,1.338,0A14.892,14.892,0,0,1,49,81.867" fill="#a1bd2c"/>
          <path id="Trazado_996437" data-name="Trazado 996437" d="M77.984,114.494V96.056c-7.528-6.086-22.167-7.507-38.994-7.507S7.529,89.97,0,96.053v18.441l38.99,1.251Z" fill="#bb5949"/>
          <path id="Trazado_996438" data-name="Trazado 996438" d="M77.984,114.494V96.056a27.219,27.219,0,0,0-9.7-4.643v23.081Z" fill="#ac483e"/>
          <path id="Trazado_996439" data-name="Trazado 996439" d="M0,114.494v4.847a5,5,0,0,0,5,5H72.98a5,5,0,0,0,5-5v-4.847Z" fill="#90d2ed"/>
          <path id="Trazado_996440" data-name="Trazado 996440" d="M68.285,114.494v4.847a5,5,0,0,1-5.005,5h9.7a5,5,0,0,0,5-5v-4.847Z" fill="#63c2e7"/>
          <path id="Trazado_996441" data-name="Trazado 996441" d="M9.975,8.737V2.5a2.5,2.5,0,0,1,2.5-2.5H65.508a2.5,2.5,0,0,1,2.5,2.5V8.737a2.5,2.5,0,0,1-2.5,2.5H12.477a2.5,2.5,0,0,1-2.5-2.5" fill="#f28135"/>
          <path id="Trazado_996442" data-name="Trazado 996442" d="M68.009,2.5V8.737a2.5,2.5,0,0,1-2.5,2.5H57.824a2.5,2.5,0,0,0,2.5-2.5V2.5a2.5,2.5,0,0,0-2.5-2.5h7.683a2.5,2.5,0,0,1,2.5,2.5" fill="#ee6e1c"/>
          <path id="Trazado_996443" data-name="Trazado 996443" d="M17.394,101.9H15.885a1.877,1.877,0,0,1,0-3.753h1.509a1.877,1.877,0,0,1,0,3.753" fill="#742f24"/>
          <path id="Trazado_996444" data-name="Trazado 996444" d="M58.945,102.444H57.436a1.876,1.876,0,0,1,0-3.753h1.509a1.876,1.876,0,0,1,0,3.753" fill="#742f24"/>
          <path id="Trazado_996445" data-name="Trazado 996445" d="M38.478,97.983H36.969a1.876,1.876,0,0,1,0-3.753h1.509a1.876,1.876,0,0,1,0,3.753Z" fill="#742f24"/>
          <path id="Trazado_996446" data-name="Trazado 996446" d="M22.488,107.76H20.979a1.876,1.876,0,0,1,0-3.753h1.509a1.876,1.876,0,0,1,0,3.753" fill="#742f24"/>
        </g>
      </g>
    </g>
  </g>
</svg>
