<svg xmlns="http://www.w3.org/2000/svg" xmlns:xlink="http://www.w3.org/1999/xlink" width="121" height="122" viewBox="0 0 121 122">
  <defs>
    <clipPath id="clip-path">
      <rect id="Rectángulo_405182" data-name="Rectángulo 405182" width="81" height="80.939" fill="none"/>
    </clipPath>
  </defs>
  <g id="Grupo_1209724" data-name="Grupo 1209724" transform="translate(-383.711 -4471)">
    <ellipse id="Elipse_11629" data-name="Elipse 11629" cx="60.5" cy="61" rx="60.5" ry="61" transform="translate(383.711 4471)" fill="#55cb5d"/>
    <g id="Grupo_1108725" data-name="Grupo 1108725" transform="translate(403.711 4491.288)">
      <g id="Grupo_1108724" data-name="Grupo 1108724" clip-path="url(#clip-path)">
        <path id="Trazado_996277" data-name="Trazado 996277" d="M29.991,4.183A25.622,25.622,0,1,1,4.369,29.805,25.622,25.622,0,0,1,29.991,4.183" transform="translate(-2.932 -2.807)" fill="#64c0d8"/>
        <path id="Trazado_996278" data-name="Trazado 996278" d="M65.85,40.043A25.614,25.614,0,0,1,19.623,55.254,25.61,25.61,0,0,0,55.44,19.437,25.55,25.55,0,0,1,65.85,40.043" transform="translate(-13.17 -13.045)" fill="#3fb3c5"/>
        <path id="Trazado_996279" data-name="Trazado 996279" d="M187.756,187.57a5.4,5.4,0,0,1-7.633,0L163.59,171.036l7.632-7.632,16.533,16.533A5.4,5.4,0,0,1,187.756,187.57Z" transform="translate(-109.79 -109.665)" fill="#b69b7f"/>
        <rect id="Rectángulo_405169" data-name="Rectángulo 405169" width="10.792" height="3.813" transform="translate(53.788 61.371) rotate(-45)" fill="#997552"/>
        <path id="Trazado_996280" data-name="Trazado 996280" d="M147.609,143.607l-3.816,3.816-.013-.013-12.541-12.541a25.53,25.53,0,0,0,3.816-3.816L147.6,143.593Z" transform="translate(-88.077 -87.953)" fill="#76767e"/>
        <path id="Trazado_996281" data-name="Trazado 996281" d="M137.75,133.748a25.53,25.53,0,0,1-3.816,3.816l-2.7-2.7a25.53,25.53,0,0,0,3.816-3.816Z" transform="translate(-88.077 -87.952)" fill="#45464b"/>
        <path id="Trazado_996282" data-name="Trazado 996282" d="M7.066,176.4H36.734a2.7,2.7,0,0,1,2.7,2.7v16.182a2.7,2.7,0,0,1-2.7,2.7H7.066a2.7,2.7,0,0,1-2.7-2.7V179.1a2.7,2.7,0,0,1,2.7-2.7" transform="translate(-2.932 -118.388)" fill="#ffd53d"/>
        <path id="Trazado_996283" data-name="Trazado 996283" d="M39.431,179.1v16.182a2.705,2.705,0,0,1-2.7,2.7H7.066a2.705,2.705,0,0,1-2.7-2.7v-2.7H31.34a2.705,2.705,0,0,0,2.7-2.7V176.4h2.7a2.705,2.705,0,0,1,2.7,2.7" transform="translate(-2.932 -118.388)" fill="#eeb000"/>
        <path id="Trazado_996284" data-name="Trazado 996284" d="M96.883,60.754s.121,6.5-3.533,9.062-8.024,2.67-9.723.229-.135-6.5,3.533-9.062,9.723-.229,9.723-.229" transform="translate(-55.664 -40.121)" fill="#d6d762"/>
        <path id="Trazado_996285" data-name="Trazado 996285" d="M95.409,69.956c-3.452,2.414-7.512,2.643-9.4.634a10.615,10.615,0,0,0,5.354-1.982c3.075-2.158,3.479-7.093,3.52-8.617a16.8,16.8,0,0,1,4.059.9S99.063,67.394,95.409,69.956Z" transform="translate(-57.723 -40.262)" fill="#81b02e"/>
        <path id="Trazado_996286" data-name="Trazado 996286" d="M76.664,27.979c0,4.477-2.414,8.091-5.394,8.091s-5.394-3.614-5.394-8.091,5.394-8.091,5.394-8.091,5.394,3.628,5.394,8.091" transform="translate(-44.211 -13.347)" fill="#d6d762"/>
        <path id="Trazado_996287" data-name="Trazado 996287" d="M79.086,29.162c0,4.477-2.414,8.091-5.394,8.091a5,5,0,0,1-4.207-3.021,3.667,3.667,0,0,0,1.51.324c2.98,0,5.394-3.614,5.394-8.091a8.133,8.133,0,0,0-1.915-4.814C75.971,22.865,79.086,25.778,79.086,29.162Z" transform="translate(-46.633 -14.531)" fill="#81b02e"/>
        <path id="Trazado_996288" data-name="Trazado 996288" d="M48.944,60.983c3.668,2.562,5.246,6.621,3.533,9.062s-6.055,2.333-9.723-.229-3.533-9.062-3.533-9.062,6.068-2.333,9.723.229" transform="translate(-26.322 -40.121)" fill="#d6d762"/>
        <path id="Trazado_996289" data-name="Trazado 996289" d="M56.993,70.626c-1.7,2.441-6.055,2.333-9.723-.229a6.277,6.277,0,0,1-1.322-1.281c2.886,1.052,5.7.661,7-1.187,1.348-1.929.647-4.868-1.524-7.282a6.307,6.307,0,0,1,2.036.917C57.127,64.126,58.705,68.185,56.993,70.626Z" transform="translate(-30.837 -40.702)" fill="#81b02e"/>
        <path id="Trazado_996290" data-name="Trazado 996290" d="M96.883,97.658s.121,6.5-3.533,9.062-8.024,2.67-9.723.229-.135-6.5,3.533-9.062,9.723-.229,9.723-.229" transform="translate(-55.664 -64.889)" fill="#d6d762"/>
        <path id="Trazado_996291" data-name="Trazado 996291" d="M95.409,106.86c-3.452,2.414-7.512,2.643-9.4.634a10.615,10.615,0,0,0,5.354-1.982c3.075-2.158,3.479-7.093,3.52-8.617a16.8,16.8,0,0,1,4.059.9S99.063,104.3,95.409,106.86Z" transform="translate(-57.723 -65.029)" fill="#81b02e"/>
        <path id="Trazado_996292" data-name="Trazado 996292" d="M48.944,97.887c3.668,2.562,5.246,6.621,3.533,9.062s-6.055,2.333-9.723-.229-3.533-9.062-3.533-9.062S45.29,95.325,48.944,97.887Z" transform="translate(-26.322 -64.889)" fill="#d6d762"/>
        <path id="Trazado_996293" data-name="Trazado 996293" d="M56.993,107.53c-1.7,2.441-6.055,2.333-9.723-.229a6.275,6.275,0,0,1-1.322-1.281c2.886,1.052,5.7.661,7-1.187,1.348-1.929.647-4.868-1.524-7.282a6.307,6.307,0,0,1,2.036.917C57.127,101.03,58.705,105.089,56.993,107.53Z" transform="translate(-30.837 -65.469)" fill="#81b02e"/>
        <path id="Trazado_996294" data-name="Trazado 996294" d="M78.924,69.315,62.377,52.782a1.349,1.349,0,0,0-1.9,0l-.957.957L48.744,42.965a26.8,26.8,0,0,0-.58-32.715l3.547-2.131h5.016v-2.7H51.333a1.349,1.349,0,0,0-.688.189l-4.3,2.576a26.984,26.984,0,1,0-3.317,40.5L53.8,59.457l-.957.958a1.348,1.348,0,0,0,0,1.9L69.376,78.863a6.751,6.751,0,0,0,9.548-9.548Zm-54.9-36.5a5.5,5.5,0,0,0,3.034-1.9,5.5,5.5,0,0,0,3.034,1.9,12.422,12.422,0,0,0-3.034,3.439,12.417,12.417,0,0,0-3.034-3.439M36.9,28.589c-2.994,2.1-6.581,2.347-7.835.553a3.473,3.473,0,0,1-.094-3.209,9.027,9.027,0,0,1,3.29-3.965A6.277,6.277,0,0,1,35.892,21a15.113,15.113,0,0,1,3.938.607C39.709,23.344,39.182,27,36.9,28.589Zm2.94,5.61c-.149,2.009-.809,5.489-2.94,6.985a9.149,9.149,0,0,1-4.841,1.74,3.489,3.489,0,0,1-2.994-1.187c-1.267-1.807.2-5.084,3.2-7.188,2.279-1.591,5.907-.836,7.579-.351M27.059,21.375c-2.2,0-4.045-3.088-4.045-6.743,0-2.778,2.7-5.313,4.045-6.405,1.578,1.267,4.046,3.816,4.046,6.405,0,3.654-1.848,6.743-4.046,6.743m-1.915,4.558a3.473,3.473,0,0,1-.094,3.209c-1.254,1.807-4.841,1.551-7.835-.553C14.936,27,14.41,23.344,14.289,21.6c1.672-.472,5.286-1.227,7.565.364A9.027,9.027,0,0,1,25.145,25.933Zm-3.29,8.617c2.994,2.1,4.463,5.381,3.2,7.188a3.462,3.462,0,0,1-2.994,1.187,9.149,9.149,0,0,1-4.841-1.74c-2.279-1.6-2.8-5.259-2.926-6.985C15.961,33.714,19.575,32.959,21.854,34.55ZM28.408,51.2V44.718a6.643,6.643,0,0,0,3.506.9h.2a11.709,11.709,0,0,0,6.338-2.238c4.194-2.94,4.113-9.885,4.113-10.182a1.363,1.363,0,0,0-.863-1.241,19.287,19.287,0,0,0-3.681-.9c.148-.094.3-.162.431-.256,4.194-2.94,4.113-9.9,4.113-10.2a1.359,1.359,0,0,0-.863-1.227,16.058,16.058,0,0,0-8.523-.728,13.14,13.14,0,0,0,.621-4.018c0-5.124-5.745-9.049-5.987-9.21a1.393,1.393,0,0,0-1.511,0c-.243.162-5.987,4.086-5.987,9.21a13.139,13.139,0,0,0,.62,4.018,16.059,16.059,0,0,0-8.523.728,1.359,1.359,0,0,0-.863,1.227c0,.3-.081,7.255,4.113,10.2.135.094.283.162.432.256a19.29,19.29,0,0,0-3.682.9,1.363,1.363,0,0,0-.863,1.241c0,.3-.081,7.242,4.113,10.182A11.709,11.709,0,0,0,22,45.621h.2a6.644,6.644,0,0,0,3.506-.9V51.2A24.257,24.257,0,1,1,43.97,9.615L37.16,13.7l1.375,2.32,7.309-4.383A24.24,24.24,0,0,1,28.408,51.2M45.116,46.97a25.66,25.66,0,0,0,1.915-1.915L57.617,55.641,55.7,57.556ZM77.009,76.948a4.135,4.135,0,0,1-5.718,0L55.7,61.372l5.731-5.731L77.009,71.23a4.037,4.037,0,0,1,.008,5.71Z" transform="translate(0 0)" fill="#040506"/>
        <rect id="Rectángulo_405170" data-name="Rectángulo 405170" width="16.182" height="2.697" transform="translate(64.818 0.027)" fill="#040506"/>
        <rect id="Rectángulo_405171" data-name="Rectángulo 405171" width="16.182" height="2.697" transform="translate(64.818 5.421)" fill="#040506"/>
        <rect id="Rectángulo_405172" data-name="Rectángulo 405172" width="16.182" height="2.697" transform="translate(64.818 10.816)" fill="#040506"/>
        <path id="Trazado_996295" data-name="Trazado 996295" d="M33.982,172.3H4.315a4.058,4.058,0,0,0-4.046,4.046V192.53a4.058,4.058,0,0,0,4.046,4.045H33.982a4.058,4.058,0,0,0,4.045-4.045V176.348a4.058,4.058,0,0,0-4.045-4.046m1.348,20.228a1.348,1.348,0,0,1-1.348,1.348H4.315a1.348,1.348,0,0,1-1.349-1.348V176.348A1.349,1.349,0,0,1,4.315,175H33.982a1.349,1.349,0,0,1,1.348,1.349Z" transform="translate(-0.181 -115.637)" fill="#040506"/>
        <rect id="Rectángulo_405173" data-name="Rectángulo 405173" width="21.576" height="2.697" transform="translate(10.877 62.06)" fill="#040506"/>
        <rect id="Rectángulo_405174" data-name="Rectángulo 405174" width="21.576" height="2.697" transform="translate(10.877 67.453)" fill="#040506"/>
        <rect id="Rectángulo_405175" data-name="Rectángulo 405175" width="21.576" height="2.697" transform="translate(10.877 72.848)" fill="#040506"/>
        <rect id="Rectángulo_405176" data-name="Rectángulo 405176" width="2.697" height="2.697" transform="translate(5.483 62.06)" fill="#040506"/>
        <rect id="Rectángulo_405177" data-name="Rectángulo 405177" width="2.697" height="2.697" transform="translate(5.483 67.453)" fill="#040506"/>
        <rect id="Rectángulo_405178" data-name="Rectángulo 405178" width="2.697" height="2.697" transform="translate(5.483 72.848)" fill="#040506"/>
        <rect id="Rectángulo_405179" data-name="Rectángulo 405179" width="2.697" height="2.697" transform="translate(59.424 0.027)" fill="#040506"/>
        <rect id="Rectángulo_405180" data-name="Rectángulo 405180" width="2.697" height="2.697" transform="translate(59.424 5.421)" fill="#040506"/>
        <rect id="Rectángulo_405181" data-name="Rectángulo 405181" width="2.697" height="2.697" transform="translate(59.424 10.816)" fill="#040506"/>
      </g>
    </g>
  </g>
</svg>
