<svg xmlns="http://www.w3.org/2000/svg" xmlns:xlink="http://www.w3.org/1999/xlink" width="79" height="80" viewBox="0 0 79 80">
  <defs>
    <clipPath id="clip-path">
      <rect width="79" height="80" fill="none"/>
    </clipPath>
    <clipPath id="clip-path-2">
      <rect id="Rectángulo_405241" data-name="Rectángulo 405241" width="60.047" height="60.049" fill="none"/>
    </clipPath>
  </defs>
  <g id="Grupo_1209709" data-name="Grupo 1209709" transform="translate(-221.711 -4374)">
    <g id="Cuadrícula_de_repetición_2" data-name="Cuadrícula de repetición 2" transform="translate(221.711 4374)" clip-path="url(#clip-path)">
      <g id="Grupo_1209708" data-name="Grupo 1209708" transform="translate(-221.711 -4374)">
        <ellipse id="Elipse_11983" data-name="Elipse 11983" cx="39.5" cy="40" rx="39.5" ry="40" transform="translate(221.711 4374)" fill="#fdfbf9"/>
        <g id="Grupo_1108827" data-name="Grupo 1108827" transform="translate(228.547 4383.281)">
          <g id="Grupo_1108826" data-name="Grupo 1108826" clip-path="url(#clip-path-2)">
            <path id="Trazado_996554" data-name="Trazado 996554" d="M52.974,139.731v1.78a3.454,3.454,0,0,1-3.454,3.454H21.889a3.454,3.454,0,0,1-3.454-3.454v-1.78a3.621,3.621,0,0,1,3.512-3.638,3.379,3.379,0,0,1,1.877.585,1.145,1.145,0,0,0,1.517-.166,4.593,4.593,0,0,1,5.883-.879,1.2,1.2,0,0,0,1.64-.359,3.46,3.46,0,0,1,5.681,0,1.2,1.2,0,0,0,1.64.359,4.593,4.593,0,0,1,5.883.879,1.145,1.145,0,0,0,1.517.166,3.379,3.379,0,0,1,1.877-.585A3.621,3.621,0,0,1,52.974,139.731Z" transform="translate(-11.778 -85.48)" fill="#804420"/>
            <path id="Trazado_996555" data-name="Trazado 996555" d="M99.072,140.168a3.383,3.383,0,0,0-1.524.38,3.729,3.729,0,0,1,1.988,3.258v1.779a3.454,3.454,0,0,1-3.454,3.454H99.13a3.455,3.455,0,0,0,3.455-3.454v-1.779a3.621,3.621,0,0,0-3.512-3.638" transform="translate(-61.388 -89.555)" fill="#5b3119"/>
            <path id="Trazado_996556" data-name="Trazado 996556" d="M19.934,73.846a8.591,8.591,0,0,1-11.581,1.8c-7.238-4.938-6.975-14.42-6.69-17.425a.461.461,0,0,1,.774-.27,16.036,16.036,0,0,0,5.128,3.277c4.541,1.714,7.577-.372,11.431,2.255C22.72,66.034,22.6,70.307,19.934,73.846Z" transform="translate(-0.993 -36.947)" fill="#a0b800"/>
            <path id="Trazado_996557" data-name="Trazado 996557" d="M19.026,63.488c-3.854-2.627-6.891-.542-11.431-2.255a16.034,16.034,0,0,1-5.128-3.277.461.461,0,0,0-.774.27c-.036.387-.072.885-.092,1.464a14.522,14.522,0,0,0,2.946,1.543c4.541,1.714,7.577-.372,11.431,2.255,3.723,2.547,3.6,6.82.937,10.362A8.329,8.329,0,0,1,11.7,76.993a8.509,8.509,0,0,0,8.263-3.143c2.669-3.542,2.788-7.815-.936-10.362" transform="translate(-1.022 -36.948)" fill="#8a9d12"/>
            <path id="Trazado_996558" data-name="Trazado 996558" d="M88.387,87.633a11.161,11.161,0,0,1-3.1,3.413,6.477,6.477,0,0,1-9.072-1.493c-2.082-2.936-2.174-6.471.732-8.584a6.075,6.075,0,0,1,2.215-1.026A24.231,24.231,0,0,0,88.387,87.633Z" transform="translate(-47.73 -51.076)" fill="#a0b800"/>
            <path id="Trazado_996559" data-name="Trazado 996559" d="M83.1,79.943a6.072,6.072,0,0,0-2.215,1.026l-.02.016a23.939,23.939,0,0,0,8.411,6.648,11.161,11.161,0,0,1-3.1,3.413,6.489,6.489,0,0,1-2.264,1.042,6.46,6.46,0,0,0,5.312-1.042,11.161,11.161,0,0,0,3.1-3.413A24.231,24.231,0,0,1,83.1,79.943Z" transform="translate(-51.664 -51.076)" fill="#8a9d12"/>
            <path id="Trazado_996560" data-name="Trazado 996560" d="M103.614,9.929c-.285,10.026-4.907,23.263-16.843,28.129a1.129,1.129,0,0,1-.853,0c-.386-.152-.762-.325-1.128-.5a24.23,24.23,0,0,1-9.224-7.69A36.331,36.331,0,0,1,69.075,9.919a1.054,1.054,0,0,1,.965-1.067A32.423,32.423,0,0,0,76.877,7.38a19.32,19.32,0,0,0,8.655-5.435,1.071,1.071,0,0,1,1.625,0c4.4,5.171,12.211,6.583,15.492,6.908a1.057,1.057,0,0,1,.965,1.077" transform="translate(-44.132 -1.004)" fill="#214391"/>
            <path id="Trazado_996561" data-name="Trazado 996561" d="M130.454,8.852c-3.281-.325-11.093-1.737-15.492-6.908a1.071,1.071,0,0,0-1.625,0c-.227.266-.469.514-.711.761,4.484,4.546,11.668,5.838,14.781,6.147a1.057,1.057,0,0,1,.965,1.077c-.276,9.717-4.647,22.424-15.777,27.632.366.173.742.345,1.128.5a1.126,1.126,0,0,0,.853,0c11.937-4.866,16.56-18.1,16.844-28.129a1.057,1.057,0,0,0-.965-1.077" transform="translate(-71.937 -1.004)" fill="#002c7c"/>
            <path id="Trazado_996562" data-name="Trazado 996562" d="M93.569,43.371c-7.733-4-11.41-12.587-12.434-20.147a1.008,1.008,0,0,1,.8-1.117,35.043,35.043,0,0,0,3.936-1.064,25.77,25.77,0,0,0,7.557-3.907,1.01,1.01,0,0,1,1.244,0,28.6,28.6,0,0,0,11.49,4.978,1.007,1.007,0,0,1,.794,1.118c-1.023,7.557-4.7,16.138-12.433,20.139a1.039,1.039,0,0,1-.951,0" transform="translate(-51.833 -10.812)" fill="#e0d0b8"/>
            <path id="Trazado_996563" data-name="Trazado 996563" d="M126.3,22.114a28.6,28.6,0,0,1-11.49-4.978,1.01,1.01,0,0,0-1.244,0c-.289.221-.61.424-.914.635a29.45,29.45,0,0,0,10.6,4.343,1.007,1.007,0,0,1,.794,1.118c-.98,7.2-4.375,15.328-11.385,19.535.344.2.688.413,1.049.6a1.041,1.041,0,0,0,.951,0c7.731-4,11.41-12.579,12.433-20.136a1.007,1.007,0,0,0-.794-1.118" transform="translate(-71.975 -10.812)" fill="#998d82"/>
            <path id="Trazado_996564" data-name="Trazado 996564" d="M39.162,150.233a1.966,1.966,0,0,1,1.538.735l.024.033a.565.565,0,0,0,.94-.627,3.1,3.1,0,0,0-5.014.015.557.557,0,0,0,.161.753A.577.577,0,0,0,37.6,151a1.976,1.976,0,0,1,1.552-.769Z" transform="translate(-23.362 -95.266)" fill="#040506"/>
            <path id="Trazado_996565" data-name="Trazado 996565" d="M60.046,8.938a1.638,1.638,0,0,0-1.475-1.653h0C56.16,7.044,47.946,5.851,43.454.573A1.623,1.623,0,0,0,42.215,0h0A1.626,1.626,0,0,0,40.97.574,18.527,18.527,0,0,1,32.546,5.85a31.506,31.506,0,0,1-6.692,1.432A1.643,1.643,0,0,0,24.377,8.94,37.411,37.411,0,0,0,30.242,28.1l.277.434-.467.218a6.96,6.96,0,0,0-1.165.689c-2.712,1.969-3.248,5.333-1.367,8.571l.174.3-.243.246a14.6,14.6,0,0,0-3.01,4.412L23.983,44,23.6,42.934a17.135,17.135,0,0,0-3.609-5.945l-.246-.264.2-.3a8.4,8.4,0,0,0,1.4-5.831,6.8,6.8,0,0,0-3.021-4.514A10.177,10.177,0,0,0,12,24.5a13.876,13.876,0,0,1-5.215-.734A15.441,15.441,0,0,1,1.831,20.6a1.03,1.03,0,0,0-1.07-.211,1,1,0,0,0-.652.841c-.278,2.911-.6,12.807,6.928,17.945A9.221,9.221,0,0,0,18.74,38l.336-.341.32.356A15.439,15.439,0,0,1,23.33,47.4l.023.378-.369.088a4,4,0,0,0-2.349,1.6.636.636,0,0,1-.906.21,5.136,5.136,0,0,0-6.591,1l-.047.047a.589.589,0,0,1-.742.02,3.9,3.9,0,0,0-4.966.477,4.288,4.288,0,0,0-1.291,3.046v1.776a4.03,4.03,0,0,0,4.019,4.019H37.742a4.03,4.03,0,0,0,4.019-4.019V54.252a4.284,4.284,0,0,0-1.288-3.039,3.905,3.905,0,0,0-4.973-.49.587.587,0,0,1-.742-.021l-.046-.046a5.141,5.141,0,0,0-6.6-.987.633.633,0,0,1-.508.076.644.644,0,0,1-.383-.292,4,4,0,0,0-2.343-1.6l-.374-.09.03-.383a12.674,12.674,0,0,1,3.5-7.805l.328-.34.325.342a7.02,7.02,0,0,0,3.95,2.088,7.1,7.1,0,0,0,1.148.1,6.953,6.953,0,0,0,4.1-1.336,11.6,11.6,0,0,0,2.778-2.861l.21-.308.342.148c.064.028.126.058.188.088s.112.056.17.08a1.685,1.685,0,0,0,1.274,0C55.084,32.59,59.76,19.033,60.046,8.938M19.221,35.446l-.284.455-.4-.357a25.984,25.984,0,0,0-8.073-4.912.567.567,0,0,0-.342,1.08,24.636,24.636,0,0,1,7.831,4.819l.344.314-.325.334a8.053,8.053,0,0,1-10.3,1.059h0c-6.324-4.32-6.666-12.453-6.52-15.75l.04-.912.7.586a16.159,16.159,0,0,0,4.484,2.659,14.778,14.778,0,0,0,5.555.816c1.945.009,3.761.017,5.752,1.374a5.647,5.647,0,0,1,2.556,3.781,7.147,7.147,0,0,1-1.019,4.654M26.3,50.11l.081.119a1.747,1.747,0,0,0,2.319.406,4.134,4.134,0,0,1,5.159.763,1.723,1.723,0,0,0,2.262.269,2.818,2.818,0,0,1,1.577-.487h0a2.772,2.772,0,0,1,1.994.85,3.143,3.143,0,0,1,.938,2.224v1.776a2.893,2.893,0,0,1-2.889,2.889H10.11a2.893,2.893,0,0,1-2.889-2.889V54.252a3.151,3.151,0,0,1,.948-2.238,2.771,2.771,0,0,1,1.953-.841,2.839,2.839,0,0,1,1.606.484,1.72,1.72,0,0,0,2.263-.264,4.129,4.129,0,0,1,5.151-.771,1.753,1.753,0,0,0,2.406-.506A2.889,2.889,0,0,1,26.3,50.11m13.24-12.892a10.493,10.493,0,0,1-2.312,2.295,5.875,5.875,0,0,1-7.722-.719l-.328-.348.367-.307a21,21,0,0,1,2.8-1.978.565.565,0,1,0-.578-.971,22.405,22.405,0,0,0-2.8,1.969l-.439.362-.252-.51c-1.307-2.638-.83-5.127,1.278-6.661a5.639,5.639,0,0,1,1.4-.724l.31-.109.2.261a24.532,24.532,0,0,0,7.937,6.776l.457.246Zm2.8-.679-.17.069L42,36.539C30.219,31.728,25.78,18.625,25.558,8.866l-.009-.416.415-.043a32.924,32.924,0,0,0,6.964-1.492,20.334,20.334,0,0,0,9-5.624l.346-.373L42.6,1.3c4.776,5.611,13.324,6.854,15.851,7.1a.494.494,0,0,1,.472.485l-.01.208c-.329,9.739-4.853,22.692-16.571,27.439" transform="translate(0 -0.001)" fill="#040506"/>
            <path id="Trazado_996566" data-name="Trazado 996566" d="M106.511,22.322a1.589,1.589,0,0,0-1.233-1.748,28.411,28.411,0,0,1-11.248-4.862,1.608,1.608,0,0,0-.981-.335,1.576,1.576,0,0,0-.964.328,25.186,25.186,0,0,1-7.4,3.822,34.53,34.53,0,0,1-3.867,1.044,1.587,1.587,0,0,0-1.244,1.748c.614,4.518,3.084,15.572,12.733,20.569a1.606,1.606,0,0,0,1.469,0c9.644-4.994,12.117-16.045,12.733-20.566M93.243,41.882l-.208.107-.207-.108c-9.171-4.752-11.54-15.365-12.133-19.707l-.057-.417.412-.086a35.7,35.7,0,0,0,4-1.082,26.441,26.441,0,0,0,7.73-4l.267-.2.269.2a29.3,29.3,0,0,0,11.715,5.073l.421.08-.058.424c-.59,4.345-2.956,14.965-12.152,19.716" transform="translate(-50.834 -9.824)" fill="#040506"/>
            <path id="Trazado_996567" data-name="Trazado 996567" d="M104.28,45.7l2.026,2.026a.564.564,0,0,0,.883-.108l6.095-10.158a.565.565,0,0,0-.972-.574l-5.719,9.529L105.076,44.9a.565.565,0,0,0-.8.8" transform="translate(-66.525 -23.397)" fill="#040506"/>
          </g>
        </g>
      </g>
    </g>
  </g>
</svg>
