<svg xmlns="http://www.w3.org/2000/svg" xmlns:xlink="http://www.w3.org/1999/xlink" width="131" height="132" viewBox="0 0 131 132">
  <defs>
    <clipPath id="clip-path">
      <rect id="Rectángulo_405108" data-name="Rectángulo 405108" width="115.12" height="115.12" fill="none"/>
    </clipPath>
  </defs>
  <g id="Grupo_1209712" data-name="Grupo 1209712" transform="translate(-469 -3877)">
    <ellipse id="Elipse_11968" data-name="Elipse 11968" cx="65.5" cy="66" rx="65.5" ry="66" transform="translate(469 3877)" fill="#effcef"/>
    <g id="Grupo_1108693" data-name="Grupo 1108693" transform="translate(476.88 3877)">
      <g id="Grupo_1108692" data-name="Grupo 1108692" clip-path="url(#clip-path)">
        <path id="Trazado_995770" data-name="Trazado 995770" d="M117.4,63.039c.054,11.526-8.114,21.034-18.215,21.2-.09,0-.177,0-.265,0h0a17.258,17.258,0,0,1-12.971-6.069,22.487,22.487,0,0,1-5.506-15.01,22.728,22.728,0,0,1,5.28-14.75V20.6c0-8.3,5.922-15.055,13.2-15.055s13.2,6.755,13.2,15.055V48.409a22.735,22.735,0,0,1,5.28,14.63" transform="translate(-11.907 -0.82)" fill="#fdf2f3"/>
        <path id="Trazado_995771" data-name="Trazado 995771" d="M120.612,63.039c.054,11.526-8.114,21.034-18.215,21.2-.09,0-.177,0-.265,0V5.542c7.278,0,13.2,6.755,13.2,15.055V48.409a22.735,22.735,0,0,1,5.28,14.63" transform="translate(-15.117 -0.82)" fill="#e7e1f0"/>
        <path id="Trazado_995772" data-name="Trazado 995772" d="M56.031,47.49v57.3a3.373,3.373,0,1,1-6.745,0V89.621L37.749,78.085a3.372,3.372,0,0,1,4.769-4.769l6.768,6.766V47.49a3.373,3.373,0,1,1,6.745,0" transform="translate(-5.441 -6.53)" fill="#3a9e50"/>
        <path id="Trazado_995773" data-name="Trazado 995773" d="M58.793,47.49v57.3a3.374,3.374,0,0,1-3.373,3.373V44.117A3.374,3.374,0,0,1,58.793,47.49Z" transform="translate(-8.203 -6.53)" fill="#206e30"/>
        <path id="Trazado_995774" data-name="Trazado 995774" d="M56.809,22.8,52.884,0A3.368,3.368,0,0,0,50.86.675c-.511.385-12.57,9.563-12.57,21.493s12.059,21.106,12.57,21.49a3.371,3.371,0,0,0,2.024.675Z" transform="translate(-5.668 0)" fill="#84b654"/>
        <path id="Trazado_995775" data-name="Trazado 995775" d="M38.814,76.419a3.375,3.375,0,0,1-2.863,2.86c-5.949.877-17.475.305-24.087-6.307-8.434-8.435-6.4-23.453-6.306-24.087a3.372,3.372,0,0,1,2.862-2.862c.634-.09,15.652-2.127,24.086,6.309,5.964,5.962,7.354,16.446,6.309,24.087" transform="translate(-0.781 -6.771)" fill="#84b654"/>
        <path id="Trazado_995776" data-name="Trazado 995776" d="M114.893,48.012V16.864a16.863,16.863,0,0,0-33.727,0V48.012A23.607,23.607,0,0,0,98.025,88.14h0c.112,0,.227,0,.34,0a23.606,23.606,0,0,0,16.523-40.125ZM98.275,81.392c-.081,0-.164,0-.245,0a16.861,16.861,0,0,1-11.242-29.43,3.372,3.372,0,0,0,1.125-2.513V16.864a10.118,10.118,0,1,1,20.235,0V49.451a3.369,3.369,0,0,0,1.125,2.513,16.861,16.861,0,0,1-11,29.428" transform="translate(-11.015 0)" fill="#494949"/>
        <path id="Trazado_995777" data-name="Trazado 995777" d="M100.373,15.835A3.374,3.374,0,0,0,97,19.208V57.337a10.117,10.117,0,0,0,3.373,19.655l1.874-31.839Z" transform="translate(-13.359 -2.344)" fill="#e3434a"/>
        <path id="Trazado_995778" data-name="Trazado 995778" d="M70.014,22.168c0,11.928-12.058,21.106-12.571,21.49a3.368,3.368,0,0,1-2.023.675V0a3.362,3.362,0,0,1,2.023.674c.513.385,12.571,9.563,12.571,21.493" transform="translate(-8.203 0)" fill="#3a9e50"/>
        <path id="Trazado_995779" data-name="Trazado 995779" d="M125.739,64.4A23.677,23.677,0,0,1,102.47,88.137c-.112,0-.227,0-.339,0V81.394c.081,0,.164,0,.245,0a16.863,16.863,0,0,0,11-29.428,3.371,3.371,0,0,1-1.124-2.513V16.864A10.131,10.131,0,0,0,102.131,6.746V0a16.884,16.884,0,0,1,16.863,16.863V48.012A23.647,23.647,0,0,1,125.739,64.4" transform="translate(-15.117 0)" fill="#353535"/>
        <path id="Trazado_995780" data-name="Trazado 995780" d="M112.249,66.874a10.131,10.131,0,0,1-10.118,10.118V15.834a3.373,3.373,0,0,1,3.373,3.373V57.336a10.135,10.135,0,0,1,6.745,9.538" transform="translate(-15.117 -2.344)" fill="#db2346"/>
        <path id="Trazado_995781" data-name="Trazado 995781" d="M115.12,126.486v2.136a3.375,3.375,0,0,1-3.374,3.373H3.373A3.375,3.375,0,0,1,0,128.622v-2.136a12.494,12.494,0,0,1,12.479-12.479h90.162a12.494,12.494,0,0,1,12.479,12.479" transform="translate(0 -16.875)" fill="#b55b47"/>
        <path id="Trazado_995782" data-name="Trazado 995782" d="M123.323,126.486v2.136a3.375,3.375,0,0,1-3.374,3.373H55.421V114.007h55.423a12.494,12.494,0,0,1,12.479,12.479" transform="translate(-8.203 -16.875)" fill="#a04a38"/>
      </g>
    </g>
  </g>
</svg>
