<svg xmlns="http://www.w3.org/2000/svg" xmlns:xlink="http://www.w3.org/1999/xlink" width="85" height="86" viewBox="0 0 85 86">
  <defs>
    <clipPath id="clip-path">
      <rect id="Rectángulo_405107" data-name="Rectángulo 405107" width="53.455" height="62.5" fill="#12263f"/>
    </clipPath>
  </defs>
  <g id="Grupo_1209697" data-name="Grupo 1209697" transform="translate(-599.571 -541)">
    <ellipse id="Elipse_11966" data-name="Elipse 11966" cx="42.5" cy="43" rx="42.5" ry="43" transform="translate(599.571 541)" fill="#5fe168"/>
    <g id="Grupo_1108691" data-name="Grupo 1108691" transform="translate(616.452 550)">
      <g id="Grupo_1108690" data-name="Grupo 1108690" transform="translate(0 0)" clip-path="url(#clip-path)">
        <path id="Trazado_995767" data-name="Trazado 995767" d="M22.465,29.988A2.008,2.008,0,0,0,21,28.324l-1.527-.618a2.115,2.115,0,0,0-1.671-.115,2.116,2.116,0,0,0-1.061,1.366c-.081.236-.156.471-.232.706s-.141.445-.219.669a.932.932,0,0,0-.026.113,7.267,7.267,0,0,0-.642,2.369,3.082,3.082,0,0,0-2.386,1.857,4.176,4.176,0,0,0,.363,3.62,4.976,4.976,0,0,0,3.47,2.443,1.714,1.714,0,0,0,.241.018,1.6,1.6,0,0,0,1.083-.424,1.688,1.688,0,0,0,.546-1.356,3.91,3.91,0,0,1,2.872-4.032,1.645,1.645,0,0,0,1.209-1.794c-.135-1.06-.322-2.123-.559-3.158m-4.22,5.577a5.4,5.4,0,0,0-.922,3.524,3.318,3.318,0,0,1-2.274-1.623,2.515,2.515,0,0,1-.271-2.157,1.4,1.4,0,0,1,1.2-.857.793.793,0,0,1,.222.03.831.831,0,0,0,1.064-.822,5.609,5.609,0,0,1,.558-2.6.837.837,0,0,0,.077-.263v-.005c.07-.208.137-.416.2-.624s.142-.444.218-.665a1.9,1.9,0,0,0,.126-.379,1.216,1.216,0,0,1,.412.124l1.526.618a1.492,1.492,0,0,1,.37.187,1.425,1.425,0,0,1,.093.3,29.1,29.1,0,0,1,.523,2.982,5.615,5.615,0,0,0-3.121,2.226" transform="translate(0.562 1.189)" fill="#12263f"/>
        <path id="Trazado_995768" data-name="Trazado 995768" d="M39.34,53a4.074,4.074,0,1,0,4.907-3.987V28.329a.831.831,0,1,0-1.663,0V49.014A4.081,4.081,0,0,0,39.34,53m4.075-2.411A2.412,2.412,0,1,1,41,53a2.413,2.413,0,0,1,2.412-2.411" transform="translate(1.702 1.19)" fill="#12263f"/>
        <path id="Trazado_995769" data-name="Trazado 995769" d="M21.43,17.459A22.455,22.455,0,0,0,4.849,26c-.334.418-.676.888-1.084,1.484-.33.5-.635,1-.923,1.523-.129.231-.244.467-.365.7-.136.264-.271.527-.4.8-.143.307-.272.618-.4.93-.082.2-.164.4-.24.606q-.2.529-.37,1.067c-.022.069-.05.136-.071.2-.053.165-.094.331-.14.5q-.141.5-.259,1c-.028.117-.062.235-.085.349-.032.15-.055.3-.085.45q-.116.6-.2,1.209c-.043.3-.082.6-.113.9q-.033.344-.056.692c-.007.11-.021.216-.026.325l-.025.51C0,39.454,0,39.674,0,39.892c0,.023,0,.046,0,.07A22.289,22.289,0,0,0,10.441,58.968a22.93,22.93,0,0,0,2.256,1.27h0A22.135,22.135,0,0,0,22.532,62.5c.34,0,.662-.008.984-.026a22.291,22.291,0,0,0,9.951-2.807c.073-.041.149-.076.222-.118s.134-.083.2-.123c.371-.217.741-.439,1.1-.679a22.608,22.608,0,0,0,2.284-1.768A8.337,8.337,0,1,0,48.86,46.7V38.345h1.253a.831.831,0,0,0,0-1.663H48.86V34.291h1.253a.831.831,0,1,0,0-1.663H48.86v-2.39h1.253a.831.831,0,0,0,0-1.663H48.86V25.26a3.822,3.822,0,1,0-7.643,0v2.109a23.511,23.511,0,0,0-1.525-2.012c-.388-.454-.813-.911-1.3-1.4a22.759,22.759,0,0,0-2.53-2.167A22.4,22.4,0,0,0,23.1,17.44c.013-.142.027-.289.038-.419a8.22,8.22,0,0,1,1.91-4.724A4.461,4.461,0,0,0,28.5,13.784a5.9,5.9,0,0,0,.963-.08c1.833-.3,3.806-1.535,4.03-3.318C33.75,8.32,36.374,6.638,36.4,6.622a.832.832,0,0,0-.146-1.479c-4.491-1.72-7.808-1.761-9.865-.118-2.088,1.668-2.149,4.5-2.082,5.618a9.52,9.52,0,0,0-.863,1A10.627,10.627,0,0,0,22.32,8.709c.383-1.072,1.1-3.777-.42-5.95C20.392.6,17.2-.3,12.4.087a.832.832,0,0,0-.558,1.379c.575.651,2.007,2.717,1.729,4.433-.288,1.773,1.257,3.516,2.93,4.32a5.394,5.394,0,0,0,2.333.561,4.2,4.2,0,0,0,2.318-.692,9.97,9.97,0,0,1,.922,3.827.821.821,0,0,0,.04.159,10.066,10.066,0,0,0-.637,2.826c-.013.173-.029.364-.049.559m-4.2-8.739c-1.24-.6-2.142-1.742-2.01-2.555a6.886,6.886,0,0,0-1.181-4.5c3.249-.064,5.51.631,6.5,2.038a4.323,4.323,0,0,1,.529,3.25A8.3,8.3,0,0,0,18.723,5.1a.831.831,0,0,0-.708,1.5,7.033,7.033,0,0,1,2.294,2.056,3.088,3.088,0,0,1-3.083.057M8.436,44.776a20.909,20.909,0,0,0,2.179,3.182,25.289,25.289,0,0,1,1.651,2.283,12.276,12.276,0,0,1,1.6,4.217,4.774,4.774,0,0,1-.443,3.55,2.765,2.765,0,0,1-.443.5c-.17-.088-.339-.175-.5-.267-.187-.1-.373-.2-.555-.31-.24-.141-.473-.289-.705-.438-.18-.116-.362-.231-.538-.352-.223-.152-.439-.313-.655-.474-.173-.129-.349-.257-.519-.391-.208-.165-.407-.336-.607-.508-.166-.142-.333-.282-.493-.429-.193-.175-.378-.359-.563-.541-.155-.153-.313-.3-.463-.462-.179-.188-.351-.384-.523-.578-.143-.162-.288-.321-.426-.487-.167-.2-.324-.41-.483-.618-.13-.169-.263-.336-.388-.509-.154-.215-.3-.438-.445-.659-.115-.173-.234-.344-.343-.521-.143-.232-.274-.469-.409-.707-.1-.175-.2-.347-.3-.526-.132-.25-.252-.508-.373-.765-.082-.171-.169-.34-.246-.514-.121-.274-.23-.557-.339-.838-.064-.162-.132-.321-.192-.485-.111-.306-.206-.617-.3-.929-.045-.145-.1-.288-.139-.435-.1-.351-.184-.707-.266-1.064-.025-.113-.057-.222-.081-.335-.09-.423-.163-.851-.226-1.283-.007-.05-.019-.1-.026-.148a21.362,21.362,0,0,1-.207-2.971c0-.024,0-.047,0-.071,0-.444.024-.885.052-1.324.016-.225.033-.45.055-.674s.054-.461.085-.692c.028-.212.053-.426.088-.636s.079-.433.121-.65.082-.425.13-.635.1-.414.151-.622c.027-.105.061-.211.089-.315.061-.215.121-.429.188-.642.11-.351.233-.695.36-1.038.062-.166.124-.331.191-.495.119-.3.246-.59.379-.882q.152-.329.315-.652c.119-.237.238-.473.366-.7.159-.289.329-.574.5-.855.1-.16.192-.32.293-.477q.407-.623.859-1.221l.055-.072a2.916,2.916,0,0,1,2.549,1.9,6.817,6.817,0,0,1,.011,4.22c-.136.557-.3,1.108-.465,1.659a20.781,20.781,0,0,0-.748,3.07,11.108,11.108,0,0,0,1.143,6.624M33.753,57.557q-.291.186-.588.363c-.124.073-.246.151-.372.222A20.788,20.788,0,0,1,30.4,59.3c-.115.046-.232.088-.347.131-.3.115-.594.224-.894.324-.148.05-.3.095-.448.141-.271.083-.544.163-.818.236-.168.044-.335.086-.5.126-.26.062-.522.117-.783.168-.18.035-.36.073-.541.1-.252.043-.507.077-.762.111-.191.025-.381.054-.572.074l-.064.005a5.314,5.314,0,0,0-.705-4.052,9.5,9.5,0,0,0-1.345-1.54c-.141-.137-.28-.274-.424-.423a14.022,14.022,0,0,1-1.649-2,2.449,2.449,0,0,1-.572-1.522c.129-.834,1.377-1.261,1.91-1.407a12.666,12.666,0,0,1,3.405-.462,13.028,13.028,0,0,1,7.3,2.233,1.721,1.721,0,0,1,.5.453,2.065,2.065,0,0,1,.2.716,18.5,18.5,0,0,1,.46,4.846m1.691-1.2a26.562,26.562,0,0,0-.522-3.983,3.273,3.273,0,0,0-.434-1.284,3.111,3.111,0,0,0-.96-.925,14.681,14.681,0,0,0-12.089-2c-1.806.5-2.911,1.473-3.11,2.755a3.869,3.869,0,0,0,.84,2.711,15.644,15.644,0,0,0,1.839,2.235c.144.149.292.3.441.441a8.081,8.081,0,0,1,1.124,1.269,3.781,3.781,0,0,1,.339,3.246c-.126,0-.25.01-.381.01a20.52,20.52,0,0,1-7.988-1.589c.081-.1.175-.187.249-.293l0,0a6.341,6.341,0,0,0,.71-4.782,13.988,13.988,0,0,0-1.821-4.8,26.671,26.671,0,0,0-1.76-2.438A19.406,19.406,0,0,1,9.91,44.008a9.458,9.458,0,0,1-.971-5.626,19.37,19.37,0,0,1,.695-2.824c.173-.578.345-1.156.486-1.736a8.35,8.35,0,0,0-.086-5.245,4.895,4.895,0,0,0-2.863-2.728,20.824,20.824,0,0,1,14.78-6.743,7.31,7.31,0,0,0,3.356,3.218c.389.182.8.328,1.2.472a7.694,7.694,0,0,1,1.452.624c.563.341,1.066.979.939,1.53a2.725,2.725,0,0,1-1.033,1.184c-.135.11-.269.219-.4.333a6.747,6.747,0,0,0-2.2,4.963,5.088,5.088,0,0,0,1.682,3.914c1.6,1.384,3.716,1.536,5.939,1.536h.251c1.956-.017,3.919-.025,5.88-.035l2.193-.01v9.951c-.245.129-.467.287-.695.437-.128.085-.268.155-.39.246-.091.067-.167.149-.255.219a8.568,8.568,0,0,0-.7.611c-.033.034-.059.074-.093.108a8.272,8.272,0,0,0-.718.848c-.007.008-.011.019-.018.027a8.287,8.287,0,0,0-1.437,3.4c0,.009,0,.019,0,.028a8.313,8.313,0,0,0-.122,1.231c0,.089.01.178.011.267a8.354,8.354,0,0,0,.042.953c-.451.421-.917.82-1.394,1.2M45.038,23.1A2.161,2.161,0,0,1,47.2,25.26V47.234a.83.83,0,0,0,.509.766,6.679,6.679,0,1,1-9.2,7.056,6.738,6.738,0,0,1,.672-3.908c.04-.08.068-.168.112-.246a6.62,6.62,0,0,1,.493-.741c.031-.044.055-.092.089-.135.118-.15.259-.282.39-.421.11-.118.209-.245.328-.356.027-.025.061-.044.088-.068a6.649,6.649,0,0,1,1.717-1.118.832.832,0,0,0,.491-.758V30.477l0-.014v-5.2A2.16,2.16,0,0,1,45.038,23.1m-6.613,3.333a21.063,21.063,0,0,1,2.5,3.664c.059.107.112.212.164.315l.12.236v0l0,.007v4.512l-2.2.01c-1.963.01-3.929.019-5.882.035-1.981.008-3.864-.071-5.091-1.128a3.46,3.46,0,0,1-1.108-2.661,5.039,5.039,0,0,1,1.63-3.708c.115-.1.236-.2.357-.3a4.026,4.026,0,0,0,1.6-2.09A3.235,3.235,0,0,0,28.828,22a9.081,9.081,0,0,0-1.763-.771c-.356-.126-.713-.25-1.057-.411a5.553,5.553,0,0,1-2.058-1.661c.111.007.223.007.333.017.281.023.559.057.838.092.371.046.743.1,1.11.164.279.05.555.107.831.168.36.08.718.168,1.072.267.271.075.543.154.811.241.351.114.7.239,1.041.37.261.1.521.2.777.31.344.148.681.312,1.017.479.244.12.489.238.728.368.342.187.674.392,1.006.6.22.137.443.265.658.41.357.241.7.5,1.043.77.175.135.358.259.529.4.506.416,1,.854,1.47,1.322s.853.884,1.21,1.3m-11-20.111c1.344-1.075,3.684-1.113,6.816-.125a6.882,6.882,0,0,0-2.4,3.98c-.1.817-1.292,1.662-2.649,1.884a3.082,3.082,0,0,1-2.939-.923,7.783,7.783,0,0,1,.845-.564,6.523,6.523,0,0,1,1.937-.763.832.832,0,0,0-.259-1.643,8.005,8.005,0,0,0-2.5.962c-.095.054-.179.122-.271.179a4.329,4.329,0,0,1,1.427-2.987" transform="translate(0 0)" fill="#12263f"/>
      </g>
    </g>
  </g>
</svg>
