<svg id="Grupo_1108723" data-name="Grupo 1108723" xmlns="http://www.w3.org/2000/svg" xmlns:xlink="http://www.w3.org/1999/xlink" width="513.284" height="342.776" viewBox="0 0 513.284 342.776">
  <defs>
    <clipPath id="clip-path">
      <rect id="Rectángulo_405168" data-name="Rectángulo 405168" width="513.284" height="342.776" fill="none"/>
    </clipPath>
    <clipPath id="clip-path-2">
      <path id="Trazado_996276" data-name="Trazado 996276" d="M227.123,11.418c-35.708,3.826-52.547,14.871-76.341,35.693S71.466,76.853,71.466,76.853c-57.5,22.8-33.71,76.343-49.573,139.794C7.928,272.509,60.56,304.886,125,313.811c59.738,8.27,218.121,4.958,285.539-21.813s69.221-87.138,64.443-121.948c-6.939-50.564-30.735-109.06-91.474-99.334-22.93,3.673-48.38-12.946-75.1-29.564C284.236,26.111,259.02,11.069,233.7,11.071a61.8,61.8,0,0,0-6.573.347" transform="translate(-19.629 -11.071)" fill="none"/>
    </clipPath>
    <clipPath id="clip-path-3">
      <rect id="Rectángulo_405163" data-name="Rectángulo 405163" width="14.372" height="9.971" fill="none"/>
    </clipPath>
    <clipPath id="clip-path-4">
      <rect id="Rectángulo_405165" data-name="Rectángulo 405165" width="144.484" height="161.944" fill="none"/>
    </clipPath>
  </defs>
  <g id="Grupo_1108722" data-name="Grupo 1108722" clip-path="url(#clip-path)">
    <g id="Grupo_1108721" data-name="Grupo 1108721" transform="translate(29.462 16.617)">
      <g id="Grupo_1108720" data-name="Grupo 1108720" clip-path="url(#clip-path-2)">
        <rect id="Rectángulo_405150" data-name="Rectángulo 405150" width="513.284" height="342.189" transform="translate(-29.462 -16.101)" fill="#71ae4c"/>
        <path id="Trazado_996081" data-name="Trazado 996081" d="M44.517,152.6s4.218-38.112,41.174-60.847,73.141-4.278,109.8-53.093c28-37.279,80.626-23.206,104.516,10.151s45.1,49.732,93.61,66.539c69.459,24.065,66.773,92.921,40.056,124.5S93.091,276.186,60.708,255.586,36.5,169.543,44.517,152.6" transform="translate(-10.773 -8.36)" fill="#cbdfb6"/>
        <path id="Trazado_996082" data-name="Trazado 996082" d="M17.533,71.215l2.99,73.571H156.706l-6.685-73.571Z" transform="translate(-20.678 19.058)" fill="#2c6265"/>
        <path id="Trazado_996083" data-name="Trazado 996083" d="M154.806,73.333H15.927a1.466,1.466,0,0,1-1.466-1.466v-.141a1.466,1.466,0,0,1,1.466-1.466H154.806a1.466,1.466,0,0,1,1.466,1.466v.141a1.466,1.466,0,0,1-1.466,1.466" transform="translate(-22.217 18.579)" fill="#09363e"/>
        <path id="Trazado_996084" data-name="Trazado 996084" d="M157.878,122.281H19a1.466,1.466,0,0,1-1.466-1.466v-.141A1.466,1.466,0,0,1,19,119.207H157.878a1.466,1.466,0,0,1,1.466,1.466v.141a1.466,1.466,0,0,1-1.466,1.466" transform="translate(-20.679 43.1)" fill="#09363e"/>
        <path id="Trazado_996085" data-name="Trazado 996085" d="M29.448,83.81S50.715,80.248,62.9,86.951s13.87,25.765,52.98,23.194" transform="translate(-14.71 24.894)" fill="none" stroke="#39936d" stroke-miterlimit="10" stroke-width="0.912"/>
        <path id="Trazado_996086" data-name="Trazado 996086" d="M29.041,110.465s21.352,2.994,33.353-4.032S77.678,80.7,116.844,82.227" transform="translate(-14.914 24.53)" fill="none" stroke="#39936d" stroke-miterlimit="10" stroke-width="0.912"/>
        <path id="Trazado_996087" data-name="Trazado 996087" d="M31.424,84.412a1.96,1.96,0,1,1-1.986-1.933,1.96,1.96,0,0,1,1.986,1.933" transform="translate(-15.683 24.701)" fill="#39936d"/>
        <path id="Trazado_996088" data-name="Trazado 996088" d="M31.653,101.562a1.96,1.96,0,1,1-1.986-1.933,1.96,1.96,0,0,1,1.986,1.933" transform="translate(-15.568 33.292)" fill="#39936d"/>
        <path id="Trazado_996089" data-name="Trazado 996089" d="M90.151,82.722a1.96,1.96,0,1,1-1.986-1.933,1.96,1.96,0,0,1,1.986,1.933" transform="translate(13.736 23.854)" fill="#39936d"/>
        <path id="Trazado_996090" data-name="Trazado 996090" d="M89.644,101.668a1.96,1.96,0,1,1-1.986-1.933,1.96,1.96,0,0,1,1.986,1.933" transform="translate(13.482 33.345)" fill="#39936d"/>
        <line id="Línea_4392" data-name="Línea 4392" x2="0.368" y2="27.587" transform="translate(18.723 107.868)" fill="none" stroke="#39936d" stroke-miterlimit="10" stroke-width="0.912"/>
        <line id="Línea_4393" data-name="Línea 4393" x2="0.368" y2="27.587" transform="translate(23.846 107.799)" fill="none" stroke="#39936d" stroke-miterlimit="10" stroke-width="0.912"/>
        <line id="Línea_4394" data-name="Línea 4394" x2="0.368" y2="27.587" transform="translate(28.969 107.731)" fill="none" stroke="#39936d" stroke-miterlimit="10" stroke-width="0.912"/>
        <line id="Línea_4395" data-name="Línea 4395" x2="0.368" y2="27.587" transform="translate(34.092 107.663)" fill="none" stroke="#39936d" stroke-miterlimit="10" stroke-width="0.912"/>
        <line id="Línea_4396" data-name="Línea 4396" x2="0.336" y2="25.261" transform="translate(39.23 108.779)" fill="none" stroke="#39936d" stroke-miterlimit="10" stroke-width="0.912"/>
        <line id="Línea_4397" data-name="Línea 4397" x2="0.294" y2="22.106" transform="translate(44.372 110.157)" fill="none" stroke="#39936d" stroke-miterlimit="10" stroke-width="0.912"/>
        <line id="Línea_4398" data-name="Línea 4398" x2="0.23" y2="17.231" transform="translate(49.526 112.395)" fill="none" stroke="#39936d" stroke-miterlimit="10" stroke-width="0.912"/>
        <line id="Línea_4399" data-name="Línea 4399" x2="0.11" y2="8.206" transform="translate(54.708 116.816)" fill="none" stroke="#39936d" stroke-miterlimit="10" stroke-width="0.912"/>
        <line id="Línea_4400" data-name="Línea 4400" x2="0.375" y2="28.123" transform="translate(98.637 106.682)" fill="none" stroke="#39936d" stroke-miterlimit="10" stroke-width="0.912"/>
        <line id="Línea_4401" data-name="Línea 4401" x2="0.375" y2="28.123" transform="translate(93.514 106.751)" fill="none" stroke="#39936d" stroke-miterlimit="10" stroke-width="0.912"/>
        <line id="Línea_4402" data-name="Línea 4402" x2="0.366" y2="27.425" transform="translate(88.401 107.516)" fill="none" stroke="#39936d" stroke-miterlimit="10" stroke-width="0.912"/>
        <line id="Línea_4403" data-name="Línea 4403" x2="0.36" y2="27.016" transform="translate(83.284 107.994)" fill="none" stroke="#39936d" stroke-miterlimit="10" stroke-width="0.912"/>
        <line id="Línea_4404" data-name="Línea 4404" x2="0.33" y2="24.739" transform="translate(78.176 109.223)" fill="none" stroke="#39936d" stroke-miterlimit="10" stroke-width="0.912"/>
        <line id="Línea_4405" data-name="Línea 4405" x2="0.288" y2="21.648" transform="translate(73.072 110.707)" fill="none" stroke="#39936d" stroke-miterlimit="10" stroke-width="0.912"/>
        <line id="Línea_4406" data-name="Línea 4406" x2="0.225" y2="16.875" transform="translate(67.98 113.034)" fill="none" stroke="#39936d" stroke-miterlimit="10" stroke-width="0.912"/>
        <line id="Línea_4407" data-name="Línea 4407" x2="0.116" y2="8.623" transform="translate(62.908 116.911)" fill="none" stroke="#39936d" stroke-miterlimit="10" stroke-width="0.912"/>
        <path id="Trazado_996091" data-name="Trazado 996091" d="M92.436,106.27l1.2,13.986h18.249l-1.632-13.986Z" transform="translate(16.844 36.619)" fill="#39936d"/>
        <path id="Trazado_996092" data-name="Trazado 996092" d="M79.838,106.543H96.284l.461,2.382H80.454Z" transform="translate(10.533 36.756)" fill="#39936d"/>
        <path id="Trazado_996093" data-name="Trazado 996093" d="M80.282,109.649H96.728l.461,2.382H80.9Z" transform="translate(10.755 38.312)" fill="#39936d"/>
        <path id="Trazado_996094" data-name="Trazado 996094" d="M80.726,112.755H97.171l.461,2.382H81.341Z" transform="translate(10.978 39.868)" fill="#39936d"/>
        <path id="Trazado_996095" data-name="Trazado 996095" d="M358.942,66.894H255.57a1.425,1.425,0,0,1-1.424-1.424v-.354a1.425,1.425,0,0,1,1.424-1.424H358.942a1.425,1.425,0,0,1,1.424,1.424v.354a1.425,1.425,0,0,1-1.424,1.424" transform="translate(97.852 15.289)" fill="#2c6265"/>
        <path id="Trazado_996096" data-name="Trazado 996096" d="M278.317,42.19l-2.874-1.436V38.106h-7.617v2.648l-2.874,1.436a8.412,8.412,0,0,0-4.651,7.524V76.508h22.669V49.714a8.412,8.412,0,0,0-4.651-7.524" transform="translate(100.935 2.472)" fill="#b0c9eb"/>
        <path id="Trazado_996097" data-name="Trazado 996097" d="M261.507,64.619V60.787a27.045,27.045,0,0,1,6.411-1.324c3-.14,5.783,1.184,8.081,1.184a26.7,26.7,0,0,0,3.972-.279v4.251Z" transform="translate(101.54 13.166)" fill="#645748"/>
        <path id="Trazado_996098" data-name="Trazado 996098" d="M270.756,64.323l-.65-.023a18.7,18.7,0,0,0-1.238-7.011,11.252,11.252,0,0,0-4.218-4.726l.321-.564a11.709,11.709,0,0,1,4.492,5.03,19.022,19.022,0,0,1,1.292,7.295" transform="translate(103.114 9.432)" fill="#2c6265"/>
        <path id="Trazado_996099" data-name="Trazado 996099" d="M267.732,56.886l-.627-.173c1.03-3.737,4.794-5.914,4.955-6l.321.566c-.038.021-3.692,2.136-4.648,5.611" transform="translate(104.344 8.786)" fill="#2c6265"/>
        <path id="Trazado_996100" data-name="Trazado 996100" d="M262.064,50.855s1.231,2.81,2.439,3.692,3.761.465,3.761.465a2.594,2.594,0,0,0-.812-3.16c-1.858-1.672-5.388-1-5.388-1" transform="translate(101.819 8.791)" fill="#39936d"/>
        <path id="Trazado_996101" data-name="Trazado 996101" d="M275.207,49.493s-1.231,2.81-2.439,3.692-3.761.465-3.761.465a2.594,2.594,0,0,1,.812-3.159c1.858-1.672,5.388-1,5.388-1" transform="translate(105.18 8.109)" fill="#39936d"/>
        <path id="Trazado_996102" data-name="Trazado 996102" d="M325.132,65.4H285.465V61.669a1.392,1.392,0,0,1,1.393-1.393h36.881a1.393,1.393,0,0,1,1.393,1.393Z" transform="translate(113.542 13.578)" fill="#b0c9eb"/>
        <path id="Trazado_996103" data-name="Trazado 996103" d="M288.578,61.3a11.181,11.181,0,0,1,6.708-3c4.507-.551,10.556,1.845,13.635.593s9.346-.428,11,2.4Z" transform="translate(115.101 12.55)" fill="#645748"/>
        <path id="Trazado_996104" data-name="Trazado 996104" d="M299.054,67.353s-6.6-2.573-9.016-5.211-4.069-4.494-1.65-5.106,6.487,2.8,6.487,2.8-5.168-6.6-3.628-8.907,6.378,2.639,6.378,2.639-3.848-6.927-1.21-8.907S301.8,49.7,301.8,49.7s-.8-8.015,2.627-8.345,3.092,8.062,3.092,8.062,3.409-6.961,5.828-4.432-1.43,7.916-1.43,7.916,4.839-3.377,6.6-1.084-3.739,7.311-3.739,7.311,6.817-4.027,8.248-1.279-9.677,9.84-13.525,10.364-10.447-.865-10.447-.865" transform="translate(114.411 4.097)" fill="#2c6265"/>
        <path id="Trazado_996105" data-name="Trazado 996105" d="M287.966,70.424v30.727a1.821,1.821,0,0,1-1.816,1.816h-6.158a1.821,1.821,0,0,1-1.816-1.816V70.424a1.82,1.82,0,0,1,1.816-1.816h6.158a1.82,1.82,0,0,1,1.816,1.816" transform="translate(109.89 17.752)" fill="#09363e"/>
        <rect id="Rectángulo_405151" data-name="Rectángulo 405151" width="9.791" height="1.486" transform="translate(388.065 91.087)" fill="#2c6265"/>
        <rect id="Rectángulo_405152" data-name="Rectángulo 405152" width="9.791" height="1.486" transform="translate(388.065 93.811)" fill="#2c6265"/>
        <rect id="Rectángulo_405153" data-name="Rectángulo 405153" width="9.791" height="1.486" transform="translate(388.065 112.777)" fill="#2c6265"/>
        <rect id="Rectángulo_405154" data-name="Rectángulo 405154" width="9.791" height="1.486" transform="translate(388.065 115.501)" fill="#2c6265"/>
        <path id="Trazado_996106" data-name="Trazado 996106" d="M268.332,70.424v30.727a1.821,1.821,0,0,1-1.818,1.816h-6.158a1.821,1.821,0,0,1-1.816-1.816V70.424a1.821,1.821,0,0,1,1.816-1.816h6.158a1.82,1.82,0,0,1,1.818,1.816" transform="translate(100.054 17.752)" fill="#09363e"/>
        <rect id="Rectángulo_405155" data-name="Rectángulo 405155" width="9.791" height="1.486" transform="translate(358.595 91.087)" fill="#2c6265"/>
        <rect id="Rectángulo_405156" data-name="Rectángulo 405156" width="9.791" height="1.486" transform="translate(358.595 93.811)" fill="#2c6265"/>
        <rect id="Rectángulo_405157" data-name="Rectángulo 405157" width="9.791" height="1.486" transform="translate(358.595 112.777)" fill="#2c6265"/>
        <rect id="Rectángulo_405158" data-name="Rectángulo 405158" width="9.791" height="1.486" transform="translate(358.595 115.501)" fill="#2c6265"/>
        <rect id="Rectángulo_405159" data-name="Rectángulo 405159" width="3.629" height="12.536" transform="translate(361.647 97.439)" fill="#2c6265"/>
        <path id="Trazado_996107" data-name="Trazado 996107" d="M274.884,70.424v30.727a1.821,1.821,0,0,1-1.816,1.816h-6.158a1.821,1.821,0,0,1-1.816-1.816V70.424a1.82,1.82,0,0,1,1.816-1.816h6.158a1.82,1.82,0,0,1,1.816,1.816" transform="translate(103.336 17.752)" fill="#1c4f54"/>
        <rect id="Rectángulo_405160" data-name="Rectángulo 405160" width="3.629" height="12.536" transform="translate(371.482 97.439)" fill="#2c6265"/>
        <path id="Trazado_996108" data-name="Trazado 996108" d="M293.855,69.728l12.11,28.24a1.822,1.822,0,0,1-.953,2.386l-5.66,2.427a1.82,1.82,0,0,1-2.385-.955l-12.11-28.239a1.819,1.819,0,0,1,.953-2.385l5.66-2.427a1.82,1.82,0,0,1,2.385.952" transform="translate(113.164 17.763)" fill="#286844"/>
        <path id="Trazado_996109" data-name="Trazado 996109" d="M281.407,70.424v30.727a1.821,1.821,0,0,1-1.816,1.816h-6.158a1.821,1.821,0,0,1-1.816-1.816V70.424a1.82,1.82,0,0,1,1.816-1.816h6.158a1.82,1.82,0,0,1,1.816,1.816" transform="translate(106.604 17.752)" fill="#286844"/>
        <rect id="Rectángulo_405161" data-name="Rectángulo 405161" width="3.629" height="12.536" transform="translate(381.273 97.439)" fill="#39936d"/>
        <path id="Trazado_996110" data-name="Trazado 996110" d="M358.942,94.7H255.57a1.425,1.425,0,0,1-1.424-1.424v-.354A1.425,1.425,0,0,1,255.57,91.5H358.942a1.425,1.425,0,0,1,1.424,1.424v.354a1.425,1.425,0,0,1-1.424,1.424" transform="translate(97.852 29.219)" fill="#2c6265"/>
        <rect id="Rectángulo_405162" data-name="Rectángulo 405162" width="2.969" height="26.163" transform="translate(355.625 94.554)" fill="#2c6265"/>
        <path id="Trazado_996111" data-name="Trazado 996111" d="M148.834,39.155V25.616l-11.725-6.769-11.724,6.769V39.155l11.724,6.769Z" transform="translate(33.349 -7.176)" fill="none" stroke="#d3e5f7" stroke-linecap="round" stroke-linejoin="round" stroke-width="0.342"/>
        <path id="Trazado_996112" data-name="Trazado 996112" d="M141.022,52.775V39.237L129.3,32.468l-11.724,6.769V52.775L129.3,59.545Z" transform="translate(29.436 -0.352)" fill="none" stroke="#d3e5f7" stroke-linecap="round" stroke-linejoin="round" stroke-width="0.342"/>
        <path id="Trazado_996113" data-name="Trazado 996113" d="M120.557,41.215V27.676l-11.724-6.769L97.108,27.676V41.215l11.725,6.769Z" transform="translate(19.184 -6.144)" fill="none" stroke="#d3e5f7" stroke-linecap="round" stroke-linejoin="round" stroke-width="0.342"/>
        <path id="Trazado_996114" data-name="Trazado 996114" d="M126.094,25.543a1.6,1.6,0,1,1,1.6-1.6,1.6,1.6,0,0,1-1.6,1.6" transform="translate(32.902 -5.426)" fill="#fff"/>
        <path id="Trazado_996115" data-name="Trazado 996115" d="M133.731,20.983a1.6,1.6,0,1,1,1.6-1.6,1.6,1.6,0,0,1-1.6,1.6" transform="translate(36.728 -7.71)" fill="#fff"/>
        <path id="Trazado_996116" data-name="Trazado 996116" d="M141.375,25.543a1.6,1.6,0,1,1,1.6-1.6,1.6,1.6,0,0,1-1.6,1.6" transform="translate(40.557 -5.426)" fill="#fff"/>
        <path id="Trazado_996117" data-name="Trazado 996117" d="M141.375,34.6a1.6,1.6,0,1,1,1.6-1.6,1.6,1.6,0,0,1-1.6,1.6" transform="translate(40.557 -0.887)" fill="#fff"/>
        <line id="Línea_4408" data-name="Línea 4408" x1="7.268" y1="3.814" transform="translate(139.741 35.071)" fill="none" stroke="#d3e5f7" stroke-linecap="round" stroke-linejoin="round" stroke-width="0.342"/>
        <path id="Trazado_996118" data-name="Trazado 996118" d="M133.731,39.023a1.6,1.6,0,1,1,1.6-1.6,1.6,1.6,0,0,1-1.6,1.6" transform="translate(36.728 1.327)" fill="#fff"/>
        <path id="Trazado_996119" data-name="Trazado 996119" d="M126.094,34.263a1.6,1.6,0,1,1,1.6-1.6,1.6,1.6,0,0,1-1.6,1.6" transform="translate(32.902 -1.058)" fill="#fff"/>
        <path id="Trazado_996120" data-name="Trazado 996120" d="M118.108,39.023a1.6,1.6,0,1,1,1.6-1.6,1.6,1.6,0,0,1-1.6,1.6" transform="translate(28.902 1.327)" fill="#fff"/>
        <path id="Trazado_996121" data-name="Trazado 996121" d="M117.8,48.025a1.6,1.6,0,1,1,1.6-1.6,1.6,1.6,0,0,1-1.6,1.6" transform="translate(28.746 5.837)" fill="#fff"/>
        <path id="Trazado_996122" data-name="Trazado 996122" d="M105.454,41.083a1.6,1.6,0,1,1,1.6-1.6,1.6,1.6,0,0,1-1.6,1.6" transform="translate(22.563 2.359)" fill="#fff"/>
        <path id="Trazado_996123" data-name="Trazado 996123" d="M113.265,36.573a1.6,1.6,0,1,1,1.6-1.6,1.6,1.6,0,0,1-1.6,1.6" transform="translate(26.476 0.1)" fill="#fff"/>
        <path id="Trazado_996124" data-name="Trazado 996124" d="M113.265,27.467a1.6,1.6,0,1,1,1.6-1.6,1.6,1.6,0,0,1-1.6,1.6" transform="translate(26.476 -4.461)" fill="#fff"/>
        <path id="Trazado_996125" data-name="Trazado 996125" d="M105.454,23.043a1.6,1.6,0,1,1,1.6-1.6,1.6,1.6,0,0,1-1.6,1.6" transform="translate(22.563 -6.678)" fill="#fff"/>
        <path id="Trazado_996126" data-name="Trazado 996126" d="M97.642,27.467a1.6,1.6,0,1,1,1.6-1.6,1.6,1.6,0,0,1-1.6,1.6" transform="translate(18.649 -4.461)" fill="#fff"/>
        <path id="Trazado_996127" data-name="Trazado 996127" d="M97.642,36.573a1.6,1.6,0,1,1,1.6-1.6,1.6,1.6,0,0,1-1.6,1.6" transform="translate(18.649 0.1)" fill="#fff"/>
        <path id="Trazado_996128" data-name="Trazado 996128" d="M89.772,42.282a1.6,1.6,0,1,1,1.6-1.6,1.6,1.6,0,0,1-1.6,1.6" transform="translate(14.707 2.96)" fill="#fff"/>
        <path id="Trazado_996129" data-name="Trazado 996129" d="M80.925,42.282a1.6,1.6,0,1,1,1.6-1.6,1.6,1.6,0,0,1-1.6,1.6" transform="translate(10.275 2.96)" fill="#fff"/>
        <path id="Trazado_996130" data-name="Trazado 996130" d="M76.718,50.456a1.6,1.6,0,1,1,1.6-1.6,1.6,1.6,0,0,1-1.6,1.6" transform="translate(8.168 7.054)" fill="#fff"/>
        <path id="Trazado_996131" data-name="Trazado 996131" d="M125.919,52.644a1.6,1.6,0,1,1,1.6-1.6,1.6,1.6,0,0,1-1.6,1.6" transform="translate(32.815 8.15)" fill="#fff"/>
        <path id="Trazado_996132" data-name="Trazado 996132" d="M133.731,48.025a1.6,1.6,0,1,1,1.6-1.6,1.6,1.6,0,0,1-1.6,1.6" transform="translate(36.728 5.837)" fill="#fff"/>
        <path id="Trazado_996133" data-name="Trazado 996133" d="M107.589,34.437,95.519,43.129H82.472L76.184,54.778" transform="translate(8.702 0.634)" fill="none" stroke="#d3e5f7" stroke-linecap="round" stroke-linejoin="round" stroke-width="0.342"/>
        <path id="Trazado_996134" data-name="Trazado 996134" d="M229.306,25.2l-11.855-6.874L205.57,25.151l-.026,13.7L217.4,45.729,229.28,38.9Z" transform="translate(73.505 -7.439)" fill="none" stroke="#d3e5f7" stroke-linecap="round" stroke-linejoin="round" stroke-width="0.342"/>
        <path id="Trazado_996135" data-name="Trazado 996135" d="M237.266,38.952l-11.855-6.874L213.53,38.907l-.026,13.7,11.854,6.874,11.882-6.829Z" transform="translate(77.493 -0.548)" fill="none" stroke="#d3e5f7" stroke-linecap="round" stroke-linejoin="round" stroke-width="0.342"/>
        <path id="Trazado_996136" data-name="Trazado 996136" d="M207.62,33.229a1.621,1.621,0,1,1-.59-2.215,1.621,1.621,0,0,1,.59,2.215" transform="translate(73.031 -1.191)" fill="#fff"/>
        <path id="Trazado_996137" data-name="Trazado 996137" d="M207.505,24.226a1.621,1.621,0,1,1-.59-2.215,1.621,1.621,0,0,1,.59,2.215" transform="translate(72.973 -5.701)" fill="#fff"/>
        <path id="Trazado_996138" data-name="Trazado 996138" d="M215.38,19.849a1.621,1.621,0,1,1-.59-2.215,1.621,1.621,0,0,1,.59,2.215" transform="translate(76.918 -7.893)" fill="#fff"/>
        <path id="Trazado_996139" data-name="Trazado 996139" d="M223.313,24.449a1.621,1.621,0,1,1-.59-2.215,1.621,1.621,0,0,1,.59,2.215" transform="translate(80.892 -5.589)" fill="#fff"/>
        <line id="Línea_4409" data-name="Línea 4409" x1="7.029" y2="4.428" transform="translate(283.969 52.063)" fill="none" stroke="#d3e5f7" stroke-linecap="round" stroke-linejoin="round" stroke-width="0.342"/>
        <path id="Trazado_996140" data-name="Trazado 996140" d="M223.3,33.386a1.621,1.621,0,1,1-.59-2.215,1.621,1.621,0,0,1,.59,2.215" transform="translate(80.886 -1.112)" fill="#fff"/>
        <path id="Trazado_996141" data-name="Trazado 996141" d="M215.256,37.657a1.621,1.621,0,1,1-.59-2.215,1.621,1.621,0,0,1,.59,2.215" transform="translate(76.856 1.027)" fill="#fff"/>
        <path id="Trazado_996142" data-name="Trazado 996142" d="M215.368,47.067a1.621,1.621,0,1,1-.59-2.215,1.621,1.621,0,0,1,.59,2.215" transform="translate(76.912 5.741)" fill="#fff"/>
        <path id="Trazado_996143" data-name="Trazado 996143" d="M223.095,51.909a1.622,1.622,0,1,1-.591-2.215,1.623,1.623,0,0,1,.591,2.215" transform="translate(80.782 8.167)" fill="#fff"/>
        <path id="Trazado_996144" data-name="Trazado 996144" d="M210.765,50.063a1.621,1.621,0,1,1-.59-2.215,1.621,1.621,0,0,1,.59,2.215" transform="translate(74.606 7.242)" fill="#fff"/>
        <path id="Trazado_996145" data-name="Trazado 996145" d="M231.262,47.143a1.621,1.621,0,1,1-.59-2.215,1.621,1.621,0,0,1,.59,2.215" transform="translate(84.874 5.779)" fill="#fff"/>
        <path id="Trazado_996146" data-name="Trazado 996146" d="M231.184,37.957a1.621,1.621,0,1,1-.59-2.215,1.621,1.621,0,0,1,.59,2.215" transform="translate(84.835 1.178)" fill="#fff"/>
        <path id="Trazado_996147" data-name="Trazado 996147" d="M248.87,42.075a3.129,3.129,0,1,1-3.128-3.128,3.128,3.128,0,0,1,3.128,3.128" transform="translate(92.075 2.893)" fill="#d3e5f7"/>
        <path id="Trazado_996148" data-name="Trazado 996148" d="M189.8,156.505l-2.438,1.641s-11.35-1.1-13.525-1.349-7.326,5.213-8.431,6.868-1.1,2.454-.368,2.637,1.962-.5,2.7-1.231,3.066-3.062,3.066-3.062l4.231.368s-5.274,2.269-5.151,3.956,4.477-.153,5.948-.89a31.066,31.066,0,0,0,9.19,1.58c5.591.2,11.233-4.339,11.233-4.339Z" transform="translate(52.956 61.784)" fill="#f18b6c"/>
        <path id="Trazado_996149" data-name="Trazado 996149" d="M180.927,155.592l-1.351,1.37s5.336,8.2,7.667,9.491l2.82-.994Z" transform="translate(60.497 61.327)" fill="#09363e"/>
        <path id="Trazado_996150" data-name="Trazado 996150" d="M225.066,108.481,207.448,156.96,180.1,178.58l10.624,11.473s28.52-9.189,36.093-21.461-1.749-60.111-1.749-60.111" transform="translate(60.758 37.726)" fill="#d3e5f7"/>
        <path id="Trazado_996151" data-name="Trazado 996151" d="M213.263,201.291l1.588-27.726s-5.271-45.876-4.782-56.18c.189-3.9,4.671-8.56,10.526-12.88,2.079-1.537,4.336-3.03,6.63-4.429,7.77-4.74,16.065-8.441,19.859-9.24.284-.06.533-.1.766-.129,0,0,1.33.705,3.434,1.933,5.426,3.15,16.014,9.728,22.2,16.408,6.019,6.49,10.424,73.842,10.424,73.842l2.7,18.4Z" transform="translate(75.756 28.823)" fill="#b0c9eb"/>
        <path id="Trazado_996152" data-name="Trazado 996152" d="M221.5,96.266l.982,6.5,1.779,2.948s10-3.557,13.186-10.427c0,0-5.321-12.941-6.034-15.793Z" transform="translate(81.498 23.204)" fill="#d5654b"/>
        <path id="Trazado_996153" data-name="Trazado 996153" d="M242.359,92.639c-.15,4.53-2.113,21.171-2.759,26.55a14.925,14.925,0,0,1-.78,3.289L228.235,151.79c-1.435-6.07,1.6-43.961,1.6-43.961l8.321-16.992a7.746,7.746,0,0,1,.764-.129s1.33.7,3.434,1.932" transform="translate(84.68 28.823)" fill="#d3e5f7"/>
        <path id="Trazado_996154" data-name="Trazado 996154" d="M224.641,96.948l-4.413,53.372-4.417-22.2a32.068,32.068,0,0,1-.366-10.251c.677-5.426,1.852-12.986,2.568-16.489,2.077-1.537,4.336-3.032,6.628-4.431" transform="translate(78.34 31.949)" fill="#d3e5f7"/>
        <path id="Trazado_996155" data-name="Trazado 996155" d="M204.175,78.907a136.7,136.7,0,0,0,6.256,16.069c3.68,7.727,7.727,10.426,11.653,11.775s11.161-.245,15.7-8.218.982-17.663.982-17.663L231.528,65.66s-22.814,2.576-27.353,13.247" transform="translate(72.819 16.275)" fill="#f18b6c"/>
        <path id="Trazado_996156" data-name="Trazado 996156" d="M225.64,77.4s-1.1-6.991,2.453-7.482,6.256,5.4,5.276,10.181-3.984,5.632-3.984,5.632Z" transform="translate(83.491 18.395)" fill="#f18b6c"/>
        <path id="Trazado_996157" data-name="Trazado 996157" d="M207.991,83.342s15.563-.587,23.014-9.234c0,0-.26,4.512,2.316,7.547a6.442,6.442,0,0,0,5.642,2.516s-1.429-7.011,2.889-7.508,7.422,12.576.856,15.838l2.412,5.222s6.477-3.371,6.109-16.435-4.14-19.472-9.935-19.565c0,0-8-6.531-17.939-5.151s-22.079,11.96-24.011,18.124,2.852,7.268,2.852,7.268a7.4,7.4,0,0,0,2.576,7.083c3.587,3.128,5.042,2.951,5.042,2.951Z" transform="translate(70.169 11.626)" fill="#002731"/>
        <path id="Trazado_996158" data-name="Trazado 996158" d="M220.568,104.228s-4.048,63.109-1.073,94.021h12.021s1.474-84.7,3.355-94.021l-8.231-7.452-1.135.276Z" transform="translate(79.947 31.863)" fill="#09363e"/>
        <path id="Trazado_996159" data-name="Trazado 996159" d="M234.653,87.4l-10.763,14.08a28.9,28.9,0,0,0,7.936,8.009l9.084-17.117Z" transform="translate(82.696 27.163)" fill="#002731"/>
        <path id="Trazado_996160" data-name="Trazado 996160" d="M225.171,99.075l-5.244,7.176a34.472,34.472,0,0,1,0-8.1c.552-3.956,2.954-5.415,2.954-5.415Z" transform="translate(80.588 29.84)" fill="#002731"/>
        <path id="Trazado_996161" data-name="Trazado 996161" d="M254.243,111.2l-6.448,47.85-33.854,5.888s5.519,3.313,5.336,14.535c0,0,37.166.368,43.421-2.943s14.167-63.478,11.224-69.365a9.957,9.957,0,0,0-4.651-4.434c-6.475-3.087-14.07,1.358-15.028,8.468" transform="translate(77.712 34.35)" fill="#d3e5f7"/>
        <path id="Trazado_996162" data-name="Trazado 996162" d="M221.457,147.188h-4.074s-12.512-7.829-13.493-8.381-3.188.245-3.188.245l7.85,16.622s1.411,2.208,6.133,2.82,7.3-.735,7.3-.735l3.845.435s.806-6.73-4.372-11" transform="translate(71.08 52.821)" fill="#f18b6c"/>
        <path id="Trazado_996163" data-name="Trazado 996163" d="M203.425,138.9s-5.642,2.393-6.868,3.373-1.291,5.827-1.291,5.827l2.822-1.471.552-2.393,7.851-1.1s-1.165-3.066-3.066-4.231" transform="translate(68.357 52.967)" fill="#f18b6c"/>
        <path id="Trazado_996164" data-name="Trazado 996164" d="M201.679,147.252a2.514,2.514,0,0,0-3.227-3.718c-.047.026-.093.054-.138.083-1.408.878-3.589,4.83-3.589,4.83l1.226,1.564s3.881-.51,5.675-2.693l.053-.066" transform="translate(68.086 55.115)" fill="#002731"/>
        <path id="Trazado_996165" data-name="Trazado 996165" d="M205.759,141.969s-6.318,4.845-7.115,6.624-.062,3.8,1.534,3.863l6.807-6.991Z" transform="translate(69.887 54.502)" fill="#f18b6c"/>
        <path id="Trazado_996166" data-name="Trazado 996166" d="M206.944,143.767s-6.318,4.845-7.115,6.624-.062,3.8,1.534,3.863l6.807-6.991Z" transform="translate(70.48 55.403)" fill="#f18b6c"/>
        <path id="Trazado_996167" data-name="Trazado 996167" d="M208.14,145.463s-6.318,4.845-7.115,6.624-.062,3.8,1.534,3.863l6.807-6.991Z" transform="translate(71.079 56.253)" fill="#f18b6c"/>
        <path id="Trazado_996168" data-name="Trazado 996168" d="M201.939,153.4s3.539.4,4.4,0a1.623,1.623,0,0,0,.614-2.238c-.429-.614-2.943-.614-2.943-.614a8.925,8.925,0,0,0-2.068,2.852" transform="translate(71.699 58.801)" fill="#f18b6c"/>
        <path id="Trazado_996169" data-name="Trazado 996169" d="M198.594,146.692,187,156.455l.552.689,12.266-8.887Z" transform="translate(64.217 56.868)" fill="#8b8989"/>
        <path id="Trazado_996170" data-name="Trazado 996170" d="M215.041,144.018h-2.592v.462s2.116.938,3.313,6.136.735,6.946.735,6.946h3.53s1.331-9.195-4.986-13.545" transform="translate(76.964 55.529)" fill="#09363e"/>
        <path id="Trazado_996171" data-name="Trazado 996171" d="M210.426,78.787a5.616,5.616,0,0,1,4.462,2.489c1.794,2.571,1.564,8.736,1.564,8.736l3.634-.69" transform="translate(75.951 22.851)" fill="none" stroke="#a24940" stroke-linecap="round" stroke-linejoin="round" stroke-width="0.342"/>
        <path id="Trazado_996172" data-name="Trazado 996172" d="M207.117,79.622a14.1,14.1,0,0,1,4.554-.824,4.054,4.054,0,0,0-2.865-.9,1.668,1.668,0,0,0-1.689,1.728" transform="translate(74.293 22.399)" fill="#002731"/>
        <path id="Trazado_996173" data-name="Trazado 996173" d="M214.962,76.741a14.1,14.1,0,0,1,4.554-.824,4.054,4.054,0,0,0-2.865-.9,1.668,1.668,0,0,0-1.689,1.728" transform="translate(78.223 20.956)" fill="#002731"/>
        <path id="Trazado_996174" data-name="Trazado 996174" d="M212.3,82.353c.324.746.246,1.5-.173,1.68s-1.022-.275-1.346-1.019-.246-1.5.173-1.681,1.022.275,1.346,1.021" transform="translate(76.03 24.106)" fill="#002731"/>
        <path id="Trazado_996175" data-name="Trazado 996175" d="M219.715,79.847c.324.746.246,1.5-.173,1.68s-1.022-.275-1.346-1.019-.246-1.5.173-1.681,1.022.275,1.346,1.021" transform="translate(79.743 22.851)" fill="#002731"/>
        <path id="Trazado_996176" data-name="Trazado 996176" d="M216.862,88.641a6.636,6.636,0,0,0,3.818-1.794" transform="translate(79.175 26.889)" fill="none" stroke="#a24940" stroke-linecap="round" stroke-linejoin="round" stroke-width="0.342"/>
        <path id="Trazado_996177" data-name="Trazado 996177" d="M228.455,71.432a15.05,15.05,0,0,0-1.049,5.608,2.976,2.976,0,0,1,1.154,1.8,3.239,3.239,0,0,1-.372,2.346,1.983,1.983,0,0,0,1.885-2.254" transform="translate(84.456 19.167)" fill="none" stroke="#a24940" stroke-linecap="round" stroke-linejoin="round" stroke-width="0.342"/>
        <path id="Trazado_996178" data-name="Trazado 996178" d="M229.512,75.692a3.513,3.513,0,0,0-2-2.061" transform="translate(84.511 20.268)" fill="none" stroke="#a24940" stroke-linecap="round" stroke-linejoin="round" stroke-width="0.342"/>
        <path id="Trazado_996179" data-name="Trazado 996179" d="M224.954,100.469c0,.686-.411,1.241-.92,1.241s-.92-.555-.92-1.241.413-1.241.92-1.241.92.555.92,1.241" transform="translate(82.307 33.091)" fill="#195359"/>
        <path id="Trazado_996180" data-name="Trazado 996180" d="M224.739,105.311c0,.686-.411,1.241-.92,1.241s-.92-.555-.92-1.241.413-1.241.92-1.241.92.555.92,1.241" transform="translate(82.199 35.517)" fill="#195359"/>
        <path id="Trazado_996181" data-name="Trazado 996181" d="M199.721,150.265s4.029-5.165,6.415-6.247" transform="translate(70.588 55.529)" fill="none" stroke="#a24940" stroke-linecap="round" stroke-linejoin="round" stroke-width="0.342"/>
        <path id="Trazado_996182" data-name="Trazado 996182" d="M201.206,152.074s3.719-4.516,5.56-5.382" transform="translate(71.332 56.868)" fill="none" stroke="#a24940" stroke-linecap="round" stroke-linejoin="round" stroke-width="0.342"/>
        <path id="Trazado_996183" data-name="Trazado 996183" d="M237.518,140.518s6.868,3.28,9.322,7.16" transform="translate(89.523 53.775)" fill="none" stroke="#7fa5d8" stroke-miterlimit="10" stroke-width="0.228"/>
        <path id="Trazado_996184" data-name="Trazado 996184" d="M239.111,94.263a59.081,59.081,0,0,1,14.412,11.224" transform="translate(90.321 30.604)" fill="none" stroke="#7fa5d8" stroke-miterlimit="10" stroke-width="0.228"/>
        <path id="Trazado_996185" data-name="Trazado 996185" d="M221.03,69.352a25.391,25.391,0,0,1,7.635-8.554" transform="translate(81.263 13.84)" fill="none" stroke="#2c6265" stroke-linecap="round" stroke-linejoin="round" stroke-width="0.228"/>
        <path id="Trazado_996186" data-name="Trazado 996186" d="M201.894,73.331a23.057,23.057,0,0,0,2.859.452" transform="translate(71.677 20.118)" fill="none" stroke="#2c6265" stroke-linecap="round" stroke-linejoin="round" stroke-width="0.228"/>
        <path id="Trazado_996187" data-name="Trazado 996187" d="M130.964,86.408s3.589,3.889,3.88,8.153-2.184,5.965-2.184,5.965,1.677,9.816-7.433,8.944c-6.43-.615-8.356-10.841-8.356-10.841Z" transform="translate(29.085 26.669)" fill="#002731"/>
        <path id="Trazado_996188" data-name="Trazado 996188" d="M131.075,104.509s5.944,5.782,11.371,21.03,10.214,30.532,10.214,30.532l-8.146,9.516a69.234,69.234,0,0,1-15.337-19.826c-5.747-11.692,1.9-41.252,1.9-41.252" transform="translate(34.177 35.737)" fill="#d3e5f7"/>
        <path id="Trazado_996189" data-name="Trazado 996189" d="M114,96.795s-20.27,9.692-23.961,11.889,6.646,57.761,6.646,57.761L85.795,199.158h72.383l-5.926-43.568s3.617-23.6,3.617-29.288-4.137-17.929-4.137-17.929l-12.227-8.242Z" transform="translate(13.517 31.872)" fill="#b0c9eb"/>
        <path id="Trazado_996190" data-name="Trazado 996190" d="M100.558,99.1l1.963,27.109,5.977,2.576-3.156,7.115,9.773,12.863L113.2,110.751,106.607,96.8Z" transform="translate(20.913 31.873)" fill="#d3e5f7"/>
        <path id="Trazado_996191" data-name="Trazado 996191" d="M126.21,145.995l6.3-11.328-3.149-4.539,4.212-4.907-5.789-22.068-6.2-4.135s5.731,34.385,4.629,46.977" transform="translate(31.444 32.986)" fill="#d3e5f7"/>
        <path id="Trazado_996192" data-name="Trazado 996192" d="M105.848,99.881l4.7,9.909L115,198.2h19.047s.144-64.758-.114-75.355-1.81-15.119-1.81-15.119-3.163-5.216-12.177-7.841-12.008,0-12.008,0" transform="translate(23.563 32.834)" fill="#09363e"/>
        <path id="Trazado_996193" data-name="Trazado 996193" d="M124.58,97.973l-.272,14.14s-7.892,1.938-16.057-10.813c0,0,1.857-14.477,1.8-17.542Z" transform="translate(24.766 25.342)" fill="#d5654b"/>
        <path id="Trazado_996194" data-name="Trazado 996194" d="M139.766,72.99s-1.1,11.066-2.134,19.879-5.253,12.036-8.581,14.6-8.261,1.951-15.179-4.548S107.245,85.7,107.245,85.7l2.04-17.342s22.7-4.542,30.481,4.635" transform="translate(24.261 17.062)" fill="#f18b6c"/>
        <path id="Trazado_996195" data-name="Trazado 996195" d="M140.045,76.378s-2.2,5.133-15.313,6.462c0,0-.323,10.014-4.506,12.509,0,0-.9,17.4-4.095,22.134s-10.619,3.2-10.619,3.2-7.293,4.186-11.643.239-4.479-8.811-2.432-13.288a4.162,4.162,0,0,1-2.814-1.535s11.131-1.92,13.563-12.411,2.3-23.188,12.919-29.713,18.169-2.687,18.169-2.687,3.71-1.92,9.466,1.408,9.984,11.8,9.984,16.278a15.474,15.474,0,0,1-5.054,11.154l-.053-6.864s-2.858-.2-7.574-6.883" transform="translate(14.934 13.523)" fill="#002731"/>
        <path id="Trazado_996196" data-name="Trazado 996196" d="M104.588,97.708s5.3,11.371,6.591,13.956c0,0,6.26-5.04,7.071-5.686s4.776,1.207,4.776,1.207L109.369,94.973Z" transform="translate(22.932 30.96)" fill="#002731"/>
        <path id="Trazado_996197" data-name="Trazado 996197" d="M120.674,96.057l-3.8,10.586,3.116-.69,6.616,3.1-3.1-9.95Z" transform="translate(29.085 31.503)" fill="#002731"/>
        <path id="Trazado_996198" data-name="Trazado 996198" d="M122.674,148.516s-13.66,3.773-23.87,7.359l3.616-13.417c3.542-13.144,1.166-26.862-7.575-37.3-.227-.27-.351-.413-.351-.413s-9,8.171-13.454,33.854-4.278,30.145-4.278,30.145,0,8.971,10.906,11.083,40.284-17.944,40.284-17.944Z" transform="translate(8.991 35.856)" fill="#d3e5f7"/>
        <path id="Trazado_996199" data-name="Trazado 996199" d="M115.186,126.343l14.522,19.975,1.421-1.228-13.494-20.431a1.487,1.487,0,1,0-2.45,1.684" transform="translate(28.097 45.49)" fill="#ffe500"/>
        <path id="Trazado_996200" data-name="Trazado 996200" d="M107.669,135.122l3.566-1.214,3.988,10.673-3.131,1.746Z" transform="translate(24.475 50.464)" fill="#09363e"/>
        <path id="Trazado_996201" data-name="Trazado 996201" d="M110.186,137.492,112.5,136.2s5.923-7.565,7.271-8.5,5.747.117,7.916,1.289,3.518,5.513,3.343,6.393a3.094,3.094,0,0,1-1.172,1.818c-.236.059-2.639-3.167-2.639-3.167l-3.518-1.617s4.1,4.489,4.281,5.427-.528,2.287-1.291,2.287c0,0-.234,2.522-1.818,2.639,0,0-.293,1.172-1.114,1.466a2.933,2.933,0,0,1-1.7,0,6.223,6.223,0,0,1-3.108,2.052,11.787,11.787,0,0,1-4.222.41l-.887.839Z" transform="translate(25.736 47.173)" fill="#f18b6c"/>
        <path id="Trazado_996202" data-name="Trazado 996202" d="M136.646,127.236l-19.512,40.7h30.883l19.808-39.928Z" transform="translate(29.216 47.122)" fill="#2c6265"/>
        <path id="Trazado_996203" data-name="Trazado 996203" d="M149.343,148.043a41.157,41.157,0,0,1-1.875,6.5c-1.054,2.423-4.423,4.686-5.792,5.16s-3.473-.632-4.579-1.264a5.488,5.488,0,0,1-2.474-4,1.472,1.472,0,0,1,1.262-1.632,2.476,2.476,0,0,1-.263-1.9c.21-1.316,1.948-1.421,1.948-1.421s-.844-1.737-.369-2.738a2.3,2.3,0,0,1,2.948-.895c1.211.422,4.212,1.526,4.212,1.526l2.448-1.027-2.526-2.329s-5.238.777-5.555-.8,2.738-2.317,5.528-2.423,5.159,2.211,5.37,3.105a20.686,20.686,0,0,1-.284,4.138" transform="translate(37.978 53.914)" fill="#f18b6c"/>
        <path id="Trazado_996204" data-name="Trazado 996204" d="M125.7,79.282a9.9,9.9,0,0,0-3.248,4.284c-1.177,2.906.419,8.865.419,8.865l-3.7.135" transform="translate(30.238 23.099)" fill="none" stroke="#a24940" stroke-linecap="round" stroke-linejoin="round" stroke-width="0.342"/>
        <path id="Trazado_996205" data-name="Trazado 996205" d="M128.834,79.487a14.112,14.112,0,0,0-4.572-.722,4.056,4.056,0,0,1,2.846-.967,1.667,1.667,0,0,1,1.726,1.689" transform="translate(32.787 22.354)" fill="#002731"/>
        <path id="Trazado_996206" data-name="Trazado 996206" d="M119.841,77.929a14.093,14.093,0,0,0-4.554-.836,4.058,4.058,0,0,1,2.87-.9,1.669,1.669,0,0,1,1.684,1.732" transform="translate(28.291 21.549)" fill="#002731"/>
        <path id="Trazado_996207" data-name="Trazado 996207" d="M123.347,83.715c-.15.8.093,1.514.542,1.6s.935-.5,1.085-1.294-.092-1.516-.542-1.6-.935.5-1.085,1.294" transform="translate(32.306 24.667)" fill="#002731"/>
        <path id="Trazado_996208" data-name="Trazado 996208" d="M115.563,82.92c-.15.8.093,1.514.542,1.6s.935-.5,1.085-1.294-.092-1.516-.542-1.6-.935.5-1.085,1.294" transform="translate(28.407 24.269)" fill="#002731"/>
        <path id="Trazado_996209" data-name="Trazado 996209" d="M121.048,90.613a6.642,6.642,0,0,1-4.122-.9" transform="translate(29.112 28.325)" fill="none" stroke="#a24940" stroke-linecap="round" stroke-linejoin="round" stroke-width="0.342"/>
        <path id="Trazado_996210" data-name="Trazado 996210" d="M122.741,85.418c-.582,3.1-3.275,5.2-6.013,4.683s-4.486-3.445-3.9-6.546,3.274-5.2,6.013-4.683S123.324,82.317,122.741,85.418Z" transform="translate(27.001 22.855)" fill="none" stroke="#fff" stroke-linecap="round" stroke-linejoin="round" stroke-width="0.342"/>
        <path id="Trazado_996211" data-name="Trazado 996211" d="M131.726,86.825c-.582,3.1-3.275,5.2-6.013,4.684s-4.486-3.445-3.9-6.547,3.274-5.2,6.013-4.681S132.309,83.724,131.726,86.825Z" transform="translate(31.502 23.561)" fill="none" stroke="#fff" stroke-linecap="round" stroke-linejoin="round" stroke-width="0.342"/>
        <path id="Trazado_996212" data-name="Trazado 996212" d="M119.424,83.074s2.368-.633,3.524.536" transform="translate(30.364 24.913)" fill="none" stroke="#fff" stroke-linecap="round" stroke-linejoin="round" stroke-width="0.228"/>
        <path id="Trazado_996213" data-name="Trazado 996213" d="M119.13,61.6a15.994,15.994,0,0,1,4.752,8" transform="translate(30.216 14.241)" fill="none" stroke="#2c6265" stroke-linecap="round" stroke-linejoin="round" stroke-width="0.228"/>
        <path id="Trazado_996214" data-name="Trazado 996214" d="M100.662,100.919s-2.943-1.012-3.128-2.667" transform="translate(19.398 32.602)" fill="none" stroke="#2c6265" stroke-linecap="round" stroke-linejoin="round" stroke-width="0.228"/>
        <path id="Trazado_996215" data-name="Trazado 996215" d="M91.405,91.665a7.405,7.405,0,0,0,2.208-1.016" transform="translate(16.327 28.794)" fill="none" stroke="#2c6265" stroke-linecap="round" stroke-linejoin="round" stroke-width="0.228"/>
        <path id="Trazado_996216" data-name="Trazado 996216" d="M118.062,132.313s2.786,3.03,3.862,4.351" transform="translate(29.681 49.665)" fill="none" stroke="#a24940" stroke-linecap="round" stroke-linejoin="round" stroke-width="0.342"/>
        <path id="Trazado_996217" data-name="Trazado 996217" d="M117.133,134.788a20.5,20.5,0,0,1,3.325,2.786" transform="translate(29.216 50.905)" fill="none" stroke="#a24940" stroke-linecap="round" stroke-linejoin="round" stroke-width="0.342"/>
        <line id="Línea_4410" data-name="Línea 4410" x2="0.245" y2="1.076" transform="translate(147.206 189.75)" fill="none" stroke="#a24940" stroke-linecap="round" stroke-linejoin="round" stroke-width="0.342"/>
        <path id="Trazado_996218" data-name="Trazado 996218" d="M196.3,39.381A12.441,12.441,0,0,0,185.177,32.5h-6.035a12.441,12.441,0,0,0-11.127,6.877L151.509,72.393h61.3Z" transform="translate(46.437 -0.334)" fill="#09363e"/>
        <path id="Trazado_996219" data-name="Trazado 996219" d="M212.807,60.969c0,2.76-13.722,4.991-30.646,4.991-.431,0-.863,0-1.294-.009h-.054c-.26,0-.521,0-.781-.006-15.939-.177-28.526-2.332-28.526-4.976,0-2.277,9.424-4.2,22.291-4.79,2.655-.123,5.462-.191,8.363-.191q2.546,0,4.982.06c14.558.392,25.665,2.444,25.665,4.92" transform="translate(46.436 11.431)" fill="#2c6265"/>
        <g id="Grupo_1108716" data-name="Grupo 1108716" transform="translate(220.628 67.418)" opacity="0.68">
          <g id="Grupo_1108715" data-name="Grupo 1108715">
            <g id="Grupo_1108714" data-name="Grupo 1108714" clip-path="url(#clip-path-3)">
              <path id="Trazado_996220" data-name="Trazado 996220" d="M180.993,58.774a7.186,7.186,0,0,1-6.816,7.179h-.056c-.1.008-.212.008-.315.008-.156,0-.314-.008-.465-.014a7.189,7.189,0,0,1-6.72-7.173,7.065,7.065,0,0,1,.486-2.594c2.655-.123,5.46-.192,8.362-.192q2.546,0,4.983.062a7.079,7.079,0,0,1,.54,2.724" transform="translate(-166.621 -55.988)" fill="#ffe326"/>
            </g>
          </g>
        </g>
        <path id="Trazado_996221" data-name="Trazado 996221" d="M177.879,39.334h-8.653V31.781a3.446,3.446,0,0,1,3.446-3.446h1.761a3.446,3.446,0,0,1,3.446,3.446Z" transform="translate(55.312 -2.423)" fill="#09363e"/>
        <rect id="Rectángulo_405164" data-name="Rectángulo 405164" width="3.227" height="48.029" transform="translate(227.471 -16.617)" fill="#09363e"/>
        <g id="Grupo_1108719" data-name="Grupo 1108719" transform="translate(158.456 67.408)" opacity="0.27">
          <g id="Grupo_1108718" data-name="Grupo 1108718">
            <g id="Grupo_1108717" data-name="Grupo 1108717" clip-path="url(#clip-path-4)">
              <path id="Trazado_996222" data-name="Trazado 996222" d="M164.536,61.563,125.2,217.924H269.683L225.824,60.457s-3.415-4.725-30.729-4.465c0,0-29.1-.222-30.559,5.572" transform="translate(-125.199 -55.981)" fill="#fff"/>
            </g>
          </g>
        </g>
        <path id="Trazado_996223" data-name="Trazado 996223" d="M195.538,105.435a1.932,1.932,0,1,1-1.932-1.93,1.931,1.931,0,0,1,1.932,1.93" transform="translate(66.558 35.234)" fill="#fff"/>
        <path id="Trazado_996224" data-name="Trazado 996224" d="M193.4,102.112a1.3,1.3,0,1,1-1.3-1.3,1.295,1.295,0,0,1,1.3,1.3" transform="translate(66.126 33.887)" fill="#fff"/>
        <path id="Trazado_996225" data-name="Trazado 996225" d="M191.721,106.509a1.3,1.3,0,1,1-1.3-1.3,1.295,1.295,0,0,1,1.3,1.3" transform="translate(65.283 36.09)" fill="#fff"/>
        <path id="Trazado_996226" data-name="Trazado 996226" d="M195.146,108.691a1.3,1.3,0,1,1-1.3-1.3,1.295,1.295,0,0,1,1.3,1.3" transform="translate(66.998 37.183)" fill="#fff"/>
        <path id="Trazado_996227" data-name="Trazado 996227" d="M202.507,102.731a1.931,1.931,0,1,1-1.93-1.93,1.931,1.931,0,0,1,1.93,1.93" transform="translate(70.049 33.879)" fill="#fff"/>
        <line id="Línea_4411" data-name="Línea 4411" y1="3.52" x2="9.312" transform="translate(260.702 136.782)" fill="none" stroke="#fff" stroke-miterlimit="10" stroke-width="0.342"/>
        <line id="Línea_4412" data-name="Línea 4412" x2="1.418" y2="3.617" transform="translate(258.233 136)" fill="none" stroke="#fff" stroke-miterlimit="10" stroke-width="0.342"/>
        <line id="Línea_4413" data-name="Línea 4413" x2="0.294" y2="3.874" transform="translate(260.555 141.746)" fill="none" stroke="#fff" stroke-miterlimit="10" stroke-width="0.342"/>
        <line id="Línea_4414" data-name="Línea 4414" y1="1.448" x2="3.605" transform="translate(255.707 141.151)" fill="none" stroke="#fff" stroke-miterlimit="10" stroke-width="0.342"/>
        <path id="Trazado_996228" data-name="Trazado 996228" d="M201.914,101.458a1.3,1.3,0,1,1,1.217,1.37,1.3,1.3,0,0,1-1.217-1.37" transform="translate(71.686 33.597)" fill="#fff"/>
        <line id="Línea_4415" data-name="Línea 4415" x1="3.685" y2="1.234" transform="translate(271.207 135.132)" fill="none" stroke="#fff" stroke-miterlimit="10" stroke-width="0.342"/>
        <path id="Trazado_996229" data-name="Trazado 996229" d="M201.929,104.022a1.3,1.3,0,1,1-1.021,1.52,1.3,1.3,0,0,1,1.021-1.52" transform="translate(71.171 35.48)" fill="#fff"/>
        <line id="Línea_4416" data-name="Línea 4416" x1="2.118" y1="3.257" transform="translate(271.231 137.517)" fill="none" stroke="#fff" stroke-miterlimit="10" stroke-width="0.342"/>
        <path id="Trazado_996230" data-name="Trazado 996230" d="M199.471,100.744a1.3,1.3,0,1,1,1.444-1.129,1.3,1.3,0,0,1-1.444,1.129" transform="translate(69.893 32.558)" fill="#fff"/>
        <line id="Línea_4417" data-name="Línea 4417" x2="1" y2="3.754" transform="translate(269.521 132.016)" fill="none" stroke="#fff" stroke-miterlimit="10" stroke-width="0.342"/>
        <path id="Trazado_996231" data-name="Trazado 996231" d="M144.087,88.767s1.108-1.309,3.473,0,1.912,3.824,5.334,3.875,5,2.517,3.806,4.63-4.36,1.66-4.461,4.63-2.265,4.881-5.033,3.775-1.157-4.731-4.681-5.839S137.8,97.675,138.3,95.26s4.479-2.265,5.033-3.826.2-2.284.755-2.667" transform="translate(39.765 27.559)" fill="#fff"/>
        <path id="Trazado_996232" data-name="Trazado 996232" d="M137.8,99.361s-.152,1.208.907,1.157.956.4,1.258,1.309,1.157.806,2.013.7.3.857.4,1.51,1.409.3,1.711.453-1.006,2.347,0,2.281,1.711-.941,1.813,0-.1,2.047.856,1.947,1.761-1.409,1.962-.654,2.164,1.674,2.819.66.654-.408,1.46-.308,1.559-1.328,1.307-1.645.152-.218.907-.872-.252-1.309-.3-2.113,1.559-.1,1.962-1.057-.4-2.014.4-2.014,2.366-.05,2.314-.755-.3-1.358.6-1.358,1.106-1.711.452-2.064-1.409-.15-1.057-1.157a1.776,1.776,0,0,0-.856-2.164c-.5-.1-2.164,0-2.265-.7s-.453-1.409-1.459-1.159-2.265.3-2.517-.905-1.057-1.214-1.761-1.487-1.409-2.338-2.669-2.338-1.006,1.409-1.861.857-2.768-.554-3.172.4.453,1.912-.8,2.013-1.662.6-1.611,1.309-.152,1.108-1.108,1.258-1.827.117-1.719,1.393.51,1.678-.7,2.08S136.593,98.959,137.8,99.361Z" transform="translate(38.903 26.779)" fill="none" stroke="#fff" stroke-linecap="round" stroke-linejoin="round" stroke-width="0.342"/>
        <path id="Trazado_996233" data-name="Trazado 996233" d="M142.991,91.457s-.554-2.265.907-1.863,3.12,2.97,1.912,3.574-2.819-1.711-2.819-1.711" transform="translate(42.118 28.241)" fill="#b0c9eb"/>
        <path id="Trazado_996234" data-name="Trazado 996234" d="M141.307,95.6a2.016,2.016,0,0,1,.944-3.6,1.884,1.884,0,0,1,.615.044c1.611.4,3.49,3.356,5.033,3.49s.6,4.63-3.422,2.215a30.9,30.9,0,0,1-3.17-2.151" transform="translate(40.934 29.466)" fill="#b0c9eb"/>
        <path id="Trazado_996235" data-name="Trazado 996235" d="M148.31,92.826s-1.409-.536-1.744.672,2.684,2.453,3.824,1.327-2.08-2-2.08-2" transform="translate(43.947 29.824)" fill="#b0c9eb"/>
        <path id="Trazado_996236" data-name="Trazado 996236" d="M146.875,96.905s-.375,1.208-1.881.6-1.139,1.447-.249,2.334,2.583.269,3.08-1.468-.95-1.469-.95-1.469" transform="translate(42.66 31.92)" fill="#b0c9eb"/>
        <path id="Trazado_996237" data-name="Trazado 996237" d="M188.549,158.423l-.191.384c-.185.377-4.348,8.791-7.586,11.906a56.315,56.315,0,0,0-3.905-13.479,43.582,43.582,0,0,0,3.544-19.94c3.71-2.483,8.513-12.191,9.06-13.312l.188-.386-1.546-.741-.191.384c-.191.389-4.474,9.048-7.728,12.041a34.245,34.245,0,0,0-3.649-11.428l-.027-.392A14.417,14.417,0,0,1,179.2,114.3l.266-.333-1.327-1.081-.272.332a15.672,15.672,0,0,0-3.008,7.767,30.438,30.438,0,0,0-6.314-7.148l-.347-.255-1.021,1.379.342.255a31.012,31.012,0,0,1,8.6,11.722,15.715,15.715,0,0,0-8.132-1.495l-.431.053.224,1.7.422-.051a14.486,14.486,0,0,1,8.88,2.313c2.642,7.851,2.232,16.462-1.217,25.609a47.034,47.034,0,0,0-4.383-7.2l-.257-.345-1.378,1.024.257.345a46.825,46.825,0,0,1,6.13,11.319,15.843,15.843,0,0,0-8.317-1.55l-.426.057.236,1.693.414-.048a14.508,14.508,0,0,1,8.961,2.328,57.427,57.427,0,0,1,2.591,21.836l-.049.425,1.7.2.054-.423a54.2,54.2,0,0,0-.326-12.027c3.764-2.769,8.63-12.728,8.841-13.159l.188-.386Z" transform="translate(54.284 39.934)" fill="#ffe500"/>
        <path id="Trazado_996238" data-name="Trazado 996238" d="M174.716,145.68a13.142,13.142,0,0,0-8.015-5.136c-5.177-.892-8.683,2.3-8.85,3.227s3,4.83,8.71,4.614,8.155-2.7,8.155-2.7" transform="translate(49.61 53.71)" fill="#2c6265"/>
        <path id="Trazado_996239" data-name="Trazado 996239" d="M174.343,119.744a13.149,13.149,0,0,1-.2-9.518c1.942-4.881,6.495-6.206,7.373-5.864s2.55,5.084-.611,9.837-6.562,5.545-6.562,5.545" transform="translate(57.368 35.638)" fill="#2c6265"/>
        <path id="Trazado_996240" data-name="Trazado 996240" d="M174.756,123.563a13.141,13.141,0,0,0-8-5.163c-5.174-.908-8.69,2.272-8.862,3.2s2.99,4.839,8.7,4.642,8.164-2.678,8.164-2.678" transform="translate(49.633 42.614)" fill="#2c6265"/>
        <path id="Trazado_996241" data-name="Trazado 996241" d="M174.776,141.874a13.145,13.145,0,0,0-3.194-8.968c-3.548-3.872-8.276-3.494-8.974-2.864s-.579,5.659,4.065,8.98,8.1,2.852,8.1,2.852" transform="translate(51.839 48.328)" fill="#2c6265"/>
        <path id="Trazado_996242" data-name="Trazado 996242" d="M180.965,126.535a13.142,13.142,0,0,1,.527-9.506c2.308-4.717,6.949-5.692,7.8-5.285s2.155,5.262-1.358,9.762-6.966,5.028-6.966,5.028" transform="translate(60.864 39.32)" fill="#2c6265"/>
        <path id="Trazado_996243" data-name="Trazado 996243" d="M181.256,150.232a13.142,13.142,0,0,1,.527-9.506c2.308-4.717,6.949-5.692,7.8-5.285s2.155,5.264-1.358,9.762-6.966,5.028-6.966,5.028" transform="translate(61.01 51.191)" fill="#2c6265"/>
        <path id="Trazado_996244" data-name="Trazado 996244" d="M158.276,103.135a21.823,21.823,0,0,0,3.3,11.988c3.677,5.4,13.623,6.973,13.623,6.973s.171-6.346-2.8-10.945-11.544-8.126-14.124-8.017" transform="translate(49.822 35.047)" fill="#2c6265"/>
        <path id="Trazado_996245" data-name="Trazado 996245" d="M195.617,163.819a9.183,9.183,0,0,0-4.554-3.742,7.226,7.226,0,0,0-5.7,0,15.161,15.161,0,0,0-8.77-2.208c-5.582.123-7.482,2.973-7.482,2.973a5.371,5.371,0,0,0-5.582,4.264Z" transform="translate(52.456 62.465)" fill="#4d3e35"/>
        <rect id="Rectángulo_405166" data-name="Rectángulo 405166" width="35.694" height="3.557" transform="translate(214.204 225.794)" fill="#2c6265"/>
        <path id="Trazado_996246" data-name="Trazado 996246" d="M159.853,104.786s10.99,9.551,14.553,16.482" transform="translate(50.616 35.875)" fill="none" stroke="#39936d" stroke-linecap="round" stroke-linejoin="round" stroke-width="0.228"/>
        <line id="Línea_4418" data-name="Línea 4418" y1="0.615" x2="4.522" transform="translate(211.399 146.022)" fill="none" stroke="#39936d" stroke-linecap="round" stroke-linejoin="round" stroke-width="0.228"/>
        <line id="Línea_4419" data-name="Línea 4419" x1="0.291" y2="4.615" transform="translate(218.405 143.781)" fill="none" stroke="#39936d" stroke-linecap="round" stroke-linejoin="round" stroke-width="0.228"/>
        <line id="Línea_4420" data-name="Línea 4420" y1="0.662" x2="5.318" transform="translate(216.377 152.355)" fill="none" stroke="#39936d" stroke-linecap="round" stroke-linejoin="round" stroke-width="0.228"/>
        <path id="Trazado_996247" data-name="Trazado 996247" d="M180.235,105.293s-4.955,7.682-5.89,12.483" transform="translate(57.876 36.129)" fill="none" stroke="#39936d" stroke-linecap="round" stroke-linejoin="round" stroke-width="0.228"/>
        <line id="Línea_4421" data-name="Línea 4421" x1="2.834" y2="0.42" transform="translate(235.762 145.188)" fill="none" stroke="#39936d" stroke-linecap="round" stroke-linejoin="round" stroke-width="0.228"/>
        <line id="Línea_4422" data-name="Línea 4422" x2="0.983" y2="2.732" transform="translate(233.696 144.742)" fill="none" stroke="#39936d" stroke-linecap="round" stroke-linejoin="round" stroke-width="0.228"/>
        <line id="Línea_4423" data-name="Línea 4423" x1="3.322" y2="0.531" transform="translate(233.388 149.905)" fill="none" stroke="#39936d" stroke-linecap="round" stroke-linejoin="round" stroke-width="0.228"/>
        <path id="Trazado_996248" data-name="Trazado 996248" d="M158.935,120.536s9.136-.269,13.731,1.414" transform="translate(50.157 43.758)" fill="none" stroke="#39936d" stroke-linecap="round" stroke-linejoin="round" stroke-width="0.228"/>
        <line id="Línea_4424" data-name="Línea 4424" y1="2.208" x2="1.825" transform="translate(212.064 164.449)" fill="none" stroke="#39936d" stroke-linecap="round" stroke-linejoin="round" stroke-width="0.228"/>
        <line id="Línea_4425" data-name="Línea 4425" x2="1.83" y2="2.254" transform="translate(214.216 162.233)" fill="none" stroke="#39936d" stroke-linecap="round" stroke-linejoin="round" stroke-width="0.228"/>
        <line id="Línea_4426" data-name="Línea 4426" y1="2.568" x2="2.172" transform="translate(217.077 164.914)" fill="none" stroke="#39936d" stroke-linecap="round" stroke-linejoin="round" stroke-width="0.228"/>
        <path id="Trazado_996249" data-name="Trazado 996249" d="M187.568,112.664s-5.1,7.586-6.127,12.369" transform="translate(61.431 39.822)" fill="none" stroke="#39936d" stroke-linecap="round" stroke-linejoin="round" stroke-width="0.228"/>
        <line id="Línea_4427" data-name="Línea 4427" x1="2.841" y2="0.366" transform="translate(246.57 156.26)" fill="none" stroke="#39936d" stroke-linecap="round" stroke-linejoin="round" stroke-width="0.228"/>
        <line id="Línea_4428" data-name="Línea 4428" x2="0.931" y2="2.75" transform="translate(244.521 155.721)" fill="none" stroke="#39936d" stroke-linecap="round" stroke-linejoin="round" stroke-width="0.228"/>
        <line id="Línea_4429" data-name="Línea 4429" x1="3.331" y2="0.468" transform="translate(244.106 160.94)" fill="none" stroke="#39936d" stroke-linecap="round" stroke-linejoin="round" stroke-width="0.228"/>
        <path id="Trazado_996250" data-name="Trazado 996250" d="M188.343,136.429s-5.693,7.15-7.1,11.836" transform="translate(61.331 51.727)" fill="none" stroke="#39936d" stroke-linecap="round" stroke-linejoin="round" stroke-width="0.228"/>
        <line id="Línea_4430" data-name="Línea 4430" x1="2.862" y2="0.137" transform="translate(246.92 191.951)" fill="none" stroke="#39936d" stroke-linecap="round" stroke-linejoin="round" stroke-width="0.228"/>
        <line id="Línea_4431" data-name="Línea 4431" x2="0.707" y2="2.816" transform="translate(244.952 191.021)" fill="none" stroke="#39936d" stroke-linecap="round" stroke-linejoin="round" stroke-width="0.228"/>
        <line id="Línea_4432" data-name="Línea 4432" x1="3.358" y2="0.198" transform="translate(244.08 196.458)" fill="none" stroke="#39936d" stroke-linecap="round" stroke-linejoin="round" stroke-width="0.228"/>
        <path id="Trazado_996251" data-name="Trazado 996251" d="M163.544,130.525s7.343,5.442,9.911,9.608" transform="translate(52.465 48.769)" fill="none" stroke="#39936d" stroke-linecap="round" stroke-linejoin="round" stroke-width="0.228"/>
        <line id="Línea_4433" data-name="Línea 4433" y1="0.605" x2="2.801" transform="translate(216.882 182.384)" fill="none" stroke="#39936d" stroke-linecap="round" stroke-linejoin="round" stroke-width="0.228"/>
        <line id="Línea_4434" data-name="Línea 4434" x2="0.042" y2="2.903" transform="translate(221.31 180.846)" fill="none" stroke="#39936d" stroke-linecap="round" stroke-linejoin="round" stroke-width="0.228"/>
        <line id="Línea_4435" data-name="Línea 4435" y1="0.672" x2="3.296" transform="translate(220.309 186.067)" fill="none" stroke="#39936d" stroke-linecap="round" stroke-linejoin="round" stroke-width="0.228"/>
        <path id="Trazado_996252" data-name="Trazado 996252" d="M158.959,142.877s9.126-.522,13.765,1.031" transform="translate(50.169 54.915)" fill="none" stroke="#39936d" stroke-linecap="round" stroke-linejoin="round" stroke-width="0.228"/>
        <line id="Línea_4436" data-name="Línea 4436" y1="2.259" x2="1.764" transform="translate(212.164 197.812)" fill="none" stroke="#39936d" stroke-linecap="round" stroke-linejoin="round" stroke-width="0.228"/>
        <line id="Línea_4437" data-name="Línea 4437" x2="1.891" y2="2.202" transform="translate(214.192 195.589)" fill="none" stroke="#39936d" stroke-linecap="round" stroke-linejoin="round" stroke-width="0.228"/>
        <line id="Línea_4438" data-name="Línea 4438" y1="2.628" x2="2.1" transform="translate(217.197 198.129)" fill="none" stroke="#39936d" stroke-linecap="round" stroke-linejoin="round" stroke-width="0.228"/>
        <path id="Trazado_996253" data-name="Trazado 996253" d="M153.44,146.246a3.129,3.129,0,1,1-3.128-3.128,3.128,3.128,0,0,1,3.128,3.128" transform="translate(44.269 55.078)" fill="#fff"/>
        <path id="Trazado_996254" data-name="Trazado 996254" d="M172.777,85.385a3.129,3.129,0,1,1-3.129-3.128,3.129,3.129,0,0,1,3.129,3.128" transform="translate(53.956 24.59)" fill="#fff"/>
        <path id="Trazado_996255" data-name="Trazado 996255" d="M200.6,122.413a3.129,3.129,0,1,1-3.128-3.128,3.128,3.128,0,0,1,3.128,3.128" transform="translate(67.892 43.139)" fill="#fff"/>
        <path id="Trazado_996256" data-name="Trazado 996256" d="M185.873,80.134a1.222,1.222,0,1,1-1.088-1.342,1.222,1.222,0,0,1,1.088,1.342" transform="translate(62.431 22.851)" fill="#fff"/>
        <path id="Trazado_996257" data-name="Trazado 996257" d="M150.89,118.773a1.222,1.222,0,1,1-1.088-1.342,1.221,1.221,0,0,1,1.088,1.342" transform="translate(44.906 42.207)" fill="#fff"/>
        <path id="Trazado_996258" data-name="Trazado 996258" d="M193.971,133.319a1.222,1.222,0,1,1-1.088-1.342,1.222,1.222,0,0,1,1.088,1.342" transform="translate(66.487 49.494)" fill="#fff"/>
        <path id="Trazado_996259" data-name="Trazado 996259" d="M160.507,73.665a2.1,2.1,0,1,1-1.873-2.307,2.1,2.1,0,0,1,1.873,2.307" transform="translate(48.844 19.124)" fill="#fff"/>
        <path id="Trazado_996260" data-name="Trazado 996260" d="M92.638,139.6A49.976,49.976,0,0,0,82.6,144.518" transform="translate(11.918 53.313)" fill="none" stroke="#7fa5d8" stroke-miterlimit="10" stroke-width="0.228"/>
        <path id="Trazado_996261" data-name="Trazado 996261" d="M266.164,181.532,59.578,199.443v-9.3a8.607,8.607,0,0,1,8.609-8.609Z" transform="translate(0.384 74.321)" fill="#2d6d4e"/>
        <path id="Trazado_996262" data-name="Trazado 996262" d="M476.1,168.659H14.777a1.907,1.907,0,0,1-1.906-1.906v-.971a1.907,1.907,0,0,1,1.906-1.906H476.1A1.906,1.906,0,0,1,478,165.781v.971a1.906,1.906,0,0,1-1.906,1.906" transform="translate(-23.014 65.476)" fill="#09363e"/>
        <rect id="Rectángulo_405167" data-name="Rectángulo 405167" width="412.755" height="92.025" transform="translate(16.085 234.134)" fill="#2d6d4e"/>
        <path id="Trazado_996263" data-name="Trazado 996263" d="M443.1,167.064v7.644L280.808,188.78H82.831a8.607,8.607,0,0,0-8.609,8.609v9.3l-43.876,3.8v-43.43Z" transform="translate(-14.26 67.073)" fill="#2b5942"/>
        <path id="Trazado_996264" data-name="Trazado 996264" d="M392.576,190.141v61.7h-333v-52.4l206.586-17.911h117.8a8.607,8.607,0,0,1,8.609,8.609" transform="translate(0.384 74.321)" fill="#317853"/>
        <line id="Línea_4439" data-name="Línea 4439" y2="66.48" transform="translate(78.506 259.679)" fill="none" stroke="#2d6d4e" stroke-miterlimit="10" stroke-width="1.368"/>
        <line id="Línea_4440" data-name="Línea 4440" y2="66.48" transform="translate(102.978 259.679)" fill="none" stroke="#2d6d4e" stroke-miterlimit="10" stroke-width="1.368"/>
        <line id="Línea_4441" data-name="Línea 4441" y2="66.48" transform="translate(127.449 259.679)" fill="none" stroke="#2d6d4e" stroke-miterlimit="10" stroke-width="1.368"/>
        <line id="Línea_4442" data-name="Línea 4442" y2="66.48" transform="translate(151.92 259.679)" fill="none" stroke="#2d6d4e" stroke-miterlimit="10" stroke-width="1.368"/>
        <line id="Línea_4443" data-name="Línea 4443" y2="66.48" transform="translate(176.392 259.679)" fill="none" stroke="#2d6d4e" stroke-miterlimit="10" stroke-width="1.368"/>
        <line id="Línea_4444" data-name="Línea 4444" y2="66.48" transform="translate(200.863 259.679)" fill="none" stroke="#2d6d4e" stroke-miterlimit="10" stroke-width="1.368"/>
        <line id="Línea_4445" data-name="Línea 4445" y2="66.48" transform="translate(225.335 259.679)" fill="none" stroke="#2d6d4e" stroke-miterlimit="10" stroke-width="1.368"/>
        <line id="Línea_4446" data-name="Línea 4446" y2="66.48" transform="translate(249.806 259.679)" fill="none" stroke="#2d6d4e" stroke-miterlimit="10" stroke-width="1.368"/>
        <line id="Línea_4447" data-name="Línea 4447" y2="66.48" transform="translate(274.278 259.679)" fill="none" stroke="#2d6d4e" stroke-miterlimit="10" stroke-width="1.368"/>
        <line id="Línea_4448" data-name="Línea 4448" y2="66.48" transform="translate(298.749 259.679)" fill="none" stroke="#2d6d4e" stroke-miterlimit="10" stroke-width="1.368"/>
        <line id="Línea_4449" data-name="Línea 4449" y2="66.48" transform="translate(323.221 259.679)" fill="none" stroke="#2d6d4e" stroke-miterlimit="10" stroke-width="1.368"/>
        <line id="Línea_4450" data-name="Línea 4450" y2="66.48" transform="translate(347.692 259.679)" fill="none" stroke="#2d6d4e" stroke-miterlimit="10" stroke-width="1.368"/>
        <line id="Línea_4451" data-name="Línea 4451" y2="66.48" transform="translate(372.164 259.679)" fill="none" stroke="#2d6d4e" stroke-miterlimit="10" stroke-width="1.368"/>
        <path id="Trazado_996265" data-name="Trazado 996265" d="M343.384,165.412H252.1A1.414,1.414,0,0,1,250.682,164V162.22a1.414,1.414,0,0,1,1.414-1.414h91.288a1.414,1.414,0,0,1,1.414,1.414V164a1.414,1.414,0,0,1-1.414,1.414" transform="translate(96.117 63.939)" fill="#1c4f54"/>
        <path id="Trazado_996266" data-name="Trazado 996266" d="M332.82,165.412H273.183A1.414,1.414,0,0,1,271.769,164V162.22a1.414,1.414,0,0,1,1.414-1.414H332.82a1.414,1.414,0,0,1,1.414,1.414V164a1.414,1.414,0,0,1-1.414,1.414" transform="translate(106.681 63.939)" fill="#164749"/>
        <path id="Trazado_996267" data-name="Trazado 996267" d="M269.727,175.954l8.76-42.312a3.853,3.853,0,0,1,3.773-3.074h58.057a1.929,1.929,0,0,1,1.893,2.3l-8.465,43.085Z" transform="translate(105.658 48.791)" fill="#2c6265"/>
        <path id="Trazado_996268" data-name="Trazado 996268" d="M272.8,174.46l8.6-40.908,48.968,40.908Z" transform="translate(107.199 50.285)" fill="#1c4f54"/>
        <path id="Trazado_996269" data-name="Trazado 996269" d="M305.661,150.459a5.673,5.673,0,1,1-5.674-5.674,5.674,5.674,0,0,1,5.674,5.674" transform="translate(117.975 55.913)" fill="#164749"/>
        <path id="Trazado_996270" data-name="Trazado 996270" d="M37.15,134.175h-10.4V136.2h.874V171.25a4.324,4.324,0,0,0,8.648,0V136.2h.874Z" transform="translate(-16.059 50.598)" fill="#b0c9eb"/>
        <path id="Trazado_996271" data-name="Trazado 996271" d="M47.937,134.175h-10.4V136.2h.874V171.25a4.324,4.324,0,0,0,8.648,0V136.2h.874Z" transform="translate(-10.656 50.598)" fill="#b0c9eb"/>
        <path id="Trazado_996272" data-name="Trazado 996272" d="M58.725,134.175h-10.4V136.2H49.2V171.25a4.324,4.324,0,0,0,8.648,0V136.2h.874Z" transform="translate(-5.251 50.598)" fill="#b0c9eb"/>
        <path id="Trazado_996273" data-name="Trazado 996273" d="M60.62,176.42H57.492V140.08a1.247,1.247,0,0,1,1.247-1.247h.635a1.247,1.247,0,0,1,1.246,1.247Z" transform="translate(-0.661 52.931)" fill="#2c6265"/>
        <path id="Trazado_996274" data-name="Trazado 996274" d="M25.836,176.42H22.708V140.08a1.247,1.247,0,0,1,1.247-1.247h.633a1.247,1.247,0,0,1,1.247,1.247Z" transform="translate(-18.086 52.931)" fill="#2c6265"/>
        <path id="Trazado_996275" data-name="Trazado 996275" d="M80.62,143.916H21.838a1.244,1.244,0,0,1-1.244-1.244v-.633a1.244,1.244,0,0,1,1.244-1.243H80.62a1.244,1.244,0,0,1,1.244,1.243v.633a1.244,1.244,0,0,1-1.244,1.244" transform="translate(-19.145 53.915)" fill="#2c6265"/>
      </g>
    </g>
  </g>
</svg>
