<svg xmlns="http://www.w3.org/2000/svg" xmlns:xlink="http://www.w3.org/1999/xlink" width="85" height="79" viewBox="0 0 85 79">
  <defs>
    <clipPath id="clip-path">
      <rect width="85" height="79" fill="none"/>
    </clipPath>
    <clipPath id="clip-path-2">
      <rect id="Rectángulo_405113" data-name="Rectángulo 405113" width="85" height="79" transform="translate(179.711 4597)" fill="#fff" stroke="#707070" stroke-width="1"/>
    </clipPath>
    <clipPath id="clip-path-3">
      <rect id="Rectángulo_405112" data-name="Rectángulo 405112" width="55.792" height="66.49" fill="none"/>
    </clipPath>
  </defs>
  <g id="Grupo_1209715" data-name="Grupo 1209715" transform="translate(-179.711 -4597)">
    <g id="Cuadrícula_de_repetición_3" data-name="Cuadrícula de repetición 3" transform="translate(179.711 4597)" clip-path="url(#clip-path)">
      <g id="Grupo_1209714" data-name="Grupo 1209714" transform="translate(-179.711 -4597)">
        <g id="Enmascarar_grupo_1098822" data-name="Enmascarar grupo 1098822" clip-path="url(#clip-path-2)">
          <g id="Grupo_1108699" data-name="Grupo 1108699" transform="translate(194.711 4603)">
            <rect id="Rectángulo_405110" data-name="Rectángulo 405110" width="2.841" height="46.205" transform="translate(22.861 10.209)" fill="#71ae4c"/>
            <rect id="Rectángulo_405111" data-name="Rectángulo 405111" width="1.807" height="46.205" transform="translate(22.861 10.209)" fill="#5e9349"/>
            <g id="Grupo_1108698" data-name="Grupo 1108698">
              <g id="Grupo_1108697" data-name="Grupo 1108697" clip-path="url(#clip-path-3)">
                <path id="Trazado_995803" data-name="Trazado 995803" d="M79.238,31.823C94.9,30.411,93.6,18.371,92.794,14.609c-.135-.635-.958-.9-1.815-.584-5.176,1.908-21.251,8.725-13.346,17.3A1.923,1.923,0,0,0,79.238,31.823Z" transform="translate(-53.557 -9.857)" fill="#71ae4c"/>
                <path id="Trazado_995804" data-name="Trazado 995804" d="M92.984,15.615c-.06-.378-.124-.716-.185-1.005-.135-.635-.958-.9-1.815-.583a46.614,46.614,0,0,0-10.531,5.344l-.193.142-.026.019-.167.125-.036.027-.154.118-.043.033-.146.114-.044.035L79.5,20.1l-.042.034-.145.119-.037.031-.151.128-.029.024-.172.149,0,0q-.268.235-.521.476l-.02.02-.142.137-.036.036-.123.123-.042.043-.113.116-.046.048-.107.114-.046.05-.1.114-.044.049-.1.118-.041.048-.1.124-.035.041-.117.145-.017.021q-.136.171-.262.345l0,.005c-.04.054-.078.109-.116.164l-.027.04c-.03.043-.06.087-.088.13l-.034.053-.077.12-.036.058-.07.115-.037.062-.065.113-.036.064c-.021.037-.041.075-.061.113l-.034.064-.059.116-.031.061q-.03.061-.058.122l-.026.056c-.021.046-.04.091-.06.137l-.018.042q-.076.182-.141.365l-.012.035c-.017.049-.033.1-.049.147-.006.019-.012.039-.017.058-.013.042-.025.084-.037.125-.006.022-.012.044-.018.067-.01.039-.021.078-.031.117l-.017.072c-.009.038-.017.076-.026.113l-.015.075c-.008.037-.015.075-.021.112l-.013.076c-.006.037-.012.075-.017.113s-.007.051-.01.076-.009.076-.013.115-.005.049-.008.074c0,.04-.006.08-.009.121,0,.023,0,.046,0,.069q0,.067-.005.134c0,.019,0,.037,0,.056q0,.192.007.385c0,.018,0,.036,0,.054,0,.046.006.093.01.139,0,.024,0,.048.008.071,0,.041.009.082.014.123s.007.052.011.078.011.078.018.117.01.055.015.082.014.076.022.114l.018.084c.008.038.017.076.026.114s.014.056.021.084.02.077.031.115l.024.084c.012.039.024.078.036.117s.017.055.027.083.028.081.043.122.018.052.028.078c.017.045.035.09.053.135l.026.065q.04.1.085.2l0,.006q.046.1.1.2l.033.065c.023.046.046.092.071.138l.043.079c.023.042.046.083.069.125l.05.085c.024.04.047.08.071.12l.055.089.075.118.06.09.08.118.063.09.086.119.066.089.093.121.068.088.1.126.068.082c.039.047.08.094.12.14l.06.069c.062.07.124.14.189.21a1.21,1.21,0,0,0,.1.094l.048.039.055.041c.022.016.045.032.069.046l.032.019a1.692,1.692,0,0,0,.232.117c.355.036.717.067,1.088.093a3.194,3.194,0,0,0,.481,0l.153-.016a2.018,2.018,0,0,0,1.264-.61c3.317-3.75,2.93-7.151.789-10.069a46.619,46.619,0,0,1,10.527-5.341A2.22,2.22,0,0,1,92.984,15.615Z" transform="translate(-53.561 -9.857)" fill="#4f7c44"/>
                <path id="Trazado_995805" data-name="Trazado 995805" d="M41.059,22.431C22.585,19.335,25.225,5.153,26.517.758c.218-.742,1.22-.981,2.208-.529C34.7,2.964,53.175,12.517,43.01,21.987a2.291,2.291,0,0,1-1.951.444" transform="translate(-18.16 0)" fill="#71ae4c"/>
                <path id="Trazado_995806" data-name="Trazado 995806" d="M29.925.793c-.439-.211-.842-.4-1.2-.564-.989-.453-1.99-.214-2.208.529-1.292,4.4-3.932,18.577,14.542,21.673a2.29,2.29,0,0,0,1.951-.444A12.734,12.734,0,0,0,44.134,20.8C28.193,17.787,28.73,6.217,29.925.793" transform="translate(-18.16 0)" fill="#5e9349"/>
                <path id="Trazado_995807" data-name="Trazado 995807" d="M70.217,50a.87.87,0,0,1-.669-.313l-4.857-5.809a.872.872,0,0,1,1.337-1.118l4.857,5.81A.871.871,0,0,1,70.217,50" transform="translate(-45.755 -30.115)" fill="#4f7c44"/>
                <path id="Trazado_995808" data-name="Trazado 995808" d="M2.322,170.324H43.54a17.591,17.591,0,0,0-.188-5.734,4.843,4.843,0,0,0-3.052-7.468,4.841,4.841,0,0,0-5.211-6.541,4.841,4.841,0,0,0-9.21-1.4,4.842,4.842,0,0,0-8.846.071,4.842,4.842,0,0,0-6.893,4.386,4.874,4.874,0,0,0,.057.744q-.234.2-.461.414a4.843,4.843,0,0,0-4.127,5.555q-.239.494-.446,1c-.106-.007-.212-.012-.32-.012a4.842,4.842,0,0,0-2.522,8.976Z" transform="translate(-0.001 -103.835)" fill="#b2560a"/>
                <path id="Trazado_995809" data-name="Trazado 995809" d="M2.321,170.324H6.88v-.006a4.842,4.842,0,0,1,4.842-4.842c.108,0,.214,0,.32.012q.208-.509.446-1a4.843,4.843,0,0,1,4.127-5.555c.151-.14.305-.278.461-.414a4.846,4.846,0,0,1,4.785-5.586,4.82,4.82,0,0,1,2.051.456,4.842,4.842,0,0,1,8.846-.071,4.847,4.847,0,0,1,3.537-2.756,4.831,4.831,0,0,0-1.207.024,4.841,4.841,0,0,0-9.21-1.4,4.842,4.842,0,0,0-8.846.071,4.842,4.842,0,0,0-6.893,4.386,4.874,4.874,0,0,0,.057.744q-.234.2-.461.414a4.843,4.843,0,0,0-4.127,5.555q-.239.494-.446,1c-.106-.007-.212-.012-.32-.012a4.842,4.842,0,0,0-2.521,8.976Z" transform="translate(0 -103.835)" fill="#954c16"/>
                <path id="Trazado_995810" data-name="Trazado 995810" d="M57.169,197.493a2.8,2.8,0,1,1-2.8,2.8,2.8,2.8,0,0,1,2.8-2.8" transform="translate(-38.578 -140.122)" fill="#954c16"/>
                <path id="Trazado_995811" data-name="Trazado 995811" d="M75.319,177.693a2.8,2.8,0,1,1-2.8,2.8,2.8,2.8,0,0,1,2.8-2.8" transform="translate(-51.455 -126.073)" fill="#954c16"/>
                <path id="Trazado_995812" data-name="Trazado 995812" d="M132.547,78.171V51.5a6.223,6.223,0,1,0-12.446,0V78.171a11.17,11.17,0,1,0,12.446,0Z" transform="translate(-81.702 -32.123)" fill="#fff0b3"/>
                <path id="Trazado_995813" data-name="Trazado 995813" d="M121.865,87.283a11.169,11.169,0,0,1,4.945-9.113V51.5a6.217,6.217,0,0,1,2.868-5.24A6.221,6.221,0,0,0,120.1,51.5V78.17a11.167,11.167,0,0,0,9.581,19.923,11.216,11.216,0,0,1-7.816-10.81" transform="translate(-81.701 -32.122)" fill="#ffde5f"/>
                <path id="Trazado_995814" data-name="Trazado 995814" d="M134.7,105.262A7.741,7.741,0,0,1,131,90.724l.91-.5V62.2a2.719,2.719,0,0,1,2.716-2.716h.154a2.719,2.719,0,0,1,2.716,2.716V90.227l.91.5a7.741,7.741,0,0,1-3.7,14.537" transform="translate(-90.08 -42.203)" fill="#640c0c"/>
                <path id="Trazado_995815" data-name="Trazado 995815" d="M151.476,194.036a.871.871,0,1,1,0-1.743,4,4,0,0,0,3.993-3.992.871.871,0,1,1,1.743,0,5.742,5.742,0,0,1-5.736,5.735" transform="translate(-106.854 -132.981)" fill="#b2494d"/>
                <path id="Trazado_995816" data-name="Trazado 995816" d="M155.98,130.868h-2.092a.871.871,0,1,1,0-1.743h2.092a.871.871,0,0,1,0,1.743" transform="translate(-108.565 -91.614)" fill="#b2494d"/>
                <path id="Trazado_995817" data-name="Trazado 995817" d="M157.4,147.368h-3.515a.871.871,0,1,1,0-1.743H157.4a.871.871,0,1,1,0,1.743" transform="translate(-108.565 -103.321)" fill="#b2494d"/>
                <path id="Trazado_995818" data-name="Trazado 995818" d="M155.98,81.368h-2.092a.871.871,0,1,1,0-1.743h2.092a.871.871,0,0,1,0,1.743" transform="translate(-108.565 -56.494)" fill="#b2494d"/>
                <path id="Trazado_995819" data-name="Trazado 995819" d="M155.98,97.868h-2.092a.871.871,0,1,1,0-1.743h2.092a.871.871,0,0,1,0,1.743" transform="translate(-108.565 -68.201)" fill="#b2494d"/>
                <path id="Trazado_995820" data-name="Trazado 995820" d="M157.4,114.368h-3.515a.871.871,0,1,1,0-1.743H157.4a.871.871,0,1,1,0,1.743" transform="translate(-108.565 -79.908)" fill="#b2494d"/>
                <path id="Trazado_995821" data-name="Trazado 995821" d="M130.8,97.523a7.744,7.744,0,0,1,4.036-6.8l.91-.5V62.2a2.706,2.706,0,0,1,.876-1.992,2.7,2.7,0,0,0-1.84-.724h-.154A2.719,2.719,0,0,0,131.91,62.2V90.228l-.91.5a7.741,7.741,0,0,0,5.621,14.3,7.753,7.753,0,0,1-5.823-7.5" transform="translate(-90.08 -42.203)" fill="#7a191a"/>
              </g>
            </g>
          </g>
        </g>
      </g>
    </g>
  </g>
</svg>
