<svg xmlns="http://www.w3.org/2000/svg" xmlns:xlink="http://www.w3.org/1999/xlink" width="79" height="80" viewBox="0 0 79 80">
  <defs>
    <clipPath id="clip-path">
      <rect id="Rectángulo_405148" data-name="Rectángulo 405148" width="56.828" height="56.828" fill="none"/>
    </clipPath>
  </defs>
  <g id="Grupo_1209717" data-name="Grupo 1209717" transform="translate(-219.711 -6015)">
    <ellipse id="Elipse_11970" data-name="Elipse 11970" cx="39.5" cy="40" rx="39.5" ry="40" transform="translate(219.711 6015)" fill="#fdfbf9"/>
    <g id="Grupo_1108713" data-name="Grupo 1108713" transform="translate(231.02 6026.309)">
      <g id="Grupo_1108712" data-name="Grupo 1108712" clip-path="url(#clip-path)">
        <path id="Trazado_996066" data-name="Trazado 996066" d="M29.13,1.632a27.5,27.5,0,1,1-27.5,27.5,27.5,27.5,0,0,1,27.5-27.5" transform="translate(-0.715 -0.715)" fill="#d5d6d5"/>
        <path id="Trazado_996067" data-name="Trazado 996067" d="M28.414,56.829A28.414,28.414,0,1,1,56.828,28.415,28.446,28.446,0,0,1,28.414,56.829m0-54.995A26.581,26.581,0,1,0,55,28.415,26.612,26.612,0,0,0,28.414,1.834" transform="translate(0 0)" fill="#040506"/>
        <path id="Trazado_996068" data-name="Trazado 996068" d="M52,23.742C52,20.2,45.587,8.16,45.587,8.16S39.17,20.2,39.17,23.742a6.416,6.416,0,0,0,12.833,0" transform="translate(-17.172 -3.577)" fill="#87b22b"/>
        <path id="Trazado_996069" data-name="Trazado 996069" d="M44.871,30.389a7.341,7.341,0,0,1-7.333-7.333c0-3.667,5.856-14.76,6.524-16.013a.956.956,0,0,1,1.618,0C46.348,8.3,52.2,19.389,52.2,23.057a7.34,7.34,0,0,1-7.332,7.333m0-20.932c-2.052,4.005-5.5,11.234-5.5,13.6a5.5,5.5,0,1,0,11,0c0-2.365-3.448-9.594-5.5-13.6" transform="translate(-16.457 -2.892)" fill="#040506"/>
        <path id="Trazado_996070" data-name="Trazado 996070" d="M49.88,67.472a.916.916,0,0,1-.917-.917v-33a.917.917,0,0,1,1.833,0v33a.916.916,0,0,1-.917.917" transform="translate(-21.465 -14.31)" fill="#040506"/>
        <path id="Trazado_996071" data-name="Trazado 996071" d="M25.534,56.329C23.523,55.21,12.827,57.8,12.827,57.8s6.642,4.7,8.654,5.815a4.169,4.169,0,0,0,4.053-7.286" transform="translate(-5.623 -24.572)" fill="#9fba14"/>
        <path id="Trazado_996072" data-name="Trazado 996072" d="M22.785,64.356a5.065,5.065,0,0,1-2.464-.644c-2.032-1.129-8.465-5.674-8.737-5.867a.916.916,0,0,1,.313-1.639c2.591-.627,11.21-2.582,13.368-1.382a5.085,5.085,0,0,1-1.078,9.335,5.144,5.144,0,0,1-1.4.2M14.327,57.53c2.1,1.461,5.56,3.844,6.885,4.58a3.251,3.251,0,0,0,4.423-1.261,3.255,3.255,0,0,0-1.262-4.422c-.908-.507-5.574.136-10.046,1.1" transform="translate(-4.908 -23.868)" fill="#040506"/>
        <path id="Trazado_996073" data-name="Trazado 996073" d="M62.3,56.329C64.313,55.21,75.008,57.8,75.008,57.8s-6.642,4.7-8.654,5.815A4.169,4.169,0,0,1,62.3,56.329" transform="translate(-26.373 -24.572)" fill="#9fba14"/>
        <path id="Trazado_996074" data-name="Trazado 996074" d="M63.619,64.356a5.129,5.129,0,0,1-1.4-.2,5.086,5.086,0,0,1-1.078-9.335c2.159-1.2,10.779.754,13.369,1.382a.916.916,0,0,1,.313,1.639c-.273.193-6.707,4.738-8.738,5.868a5.065,5.065,0,0,1-2.465.644m-.329-8.107a2.978,2.978,0,0,0-1.26.177,3.252,3.252,0,0,0,3.162,5.683c1.326-.736,4.789-3.12,6.885-4.58a50.724,50.724,0,0,0-8.787-1.281" transform="translate(-25.659 -23.868)" fill="#040506"/>
        <path id="Trazado_996075" data-name="Trazado 996075" d="M49.879,71.186a.928.928,0,0,1-.3-.051.916.916,0,0,1-.564-1.166c2.091-6.027,10.4-7.853,10.759-7.929a.917.917,0,0,1,.38,1.794c-.076.016-7.656,1.69-9.407,6.736a.918.918,0,0,1-.866.616" transform="translate(-21.465 -27.19)" fill="#040506"/>
        <path id="Trazado_996076" data-name="Trazado 996076" d="M42.009,71.186a.918.918,0,0,1-.866-.616c-1.757-5.061-9.33-6.72-9.406-6.736a.917.917,0,1,1,.38-1.794c.354.075,8.667,1.9,10.759,7.929a.917.917,0,0,1-.866,1.217" transform="translate(-13.595 -27.19)" fill="#040506"/>
        <path id="Trazado_996077" data-name="Trazado 996077" d="M78.428,1.632a8.249,8.249,0,1,1-8.249,8.249,8.249,8.249,0,0,1,8.249-8.249" transform="translate(-30.767 -0.715)" fill="#10b0e5"/>
        <path id="Trazado_996078" data-name="Trazado 996078" d="M77.713,18.333a9.166,9.166,0,1,1,9.166-9.166,9.177,9.177,0,0,1-9.166,9.166m0-16.5a7.333,7.333,0,1,0,7.333,7.333,7.341,7.341,0,0,0-7.333-7.333" transform="translate(-30.051 0)" fill="#040506"/>
        <path id="Trazado_996079" data-name="Trazado 996079" d="M84.153,17.729a.916.916,0,0,1-.917-.917v-11a.917.917,0,1,1,1.833,0v11a.916.916,0,0,1-.917.917" transform="translate(-36.491 -2.147)" fill="#040506"/>
        <path id="Trazado_996080" data-name="Trazado 996080" d="M85.359,16.522h-11a.917.917,0,0,1,0-1.833h11a.917.917,0,0,1,0,1.833" transform="translate(-32.198 -6.44)" fill="#040506"/>
      </g>
    </g>
  </g>
</svg>
