<svg xmlns="http://www.w3.org/2000/svg" xmlns:xlink="http://www.w3.org/1999/xlink" width="121" height="122" viewBox="0 0 121 122">
  <defs>
    <clipPath id="clip-path">
      <rect id="Rectángulo_405186" data-name="Rectángulo 405186" width="58.435" height="80.708" fill="none"/>
    </clipPath>
  </defs>
  <g id="Grupo_1209726" data-name="Grupo 1209726" transform="translate(-1094.711 -4471)">
    <ellipse id="Elipse_11629" data-name="Elipse 11629" cx="60.5" cy="61" rx="60.5" ry="61" transform="translate(1094.711 4471)" fill="#55cb5d"/>
    <g id="Grupo_1108729" data-name="Grupo 1108729" transform="translate(1126 4488)">
      <g id="Grupo_1108728" data-name="Grupo 1108728" clip-path="url(#clip-path)">
        <path id="Trazado_996312" data-name="Trazado 996312" d="M30.621,51.317l.892-.968a9.641,9.641,0,0,0,0-13.074l-.907-.985-.905.985a9.724,9.724,0,0,0,0,13.074l.905.984ZM58.435,29.429V85.564a5.836,5.836,0,0,1-5.972,5.69H8.779a5.835,5.835,0,0,1-5.972-5.69V29.429a5.835,5.835,0,0,1,5.972-5.69h8.4v5.285H44.059V23.739h8.4a5.836,5.836,0,0,1,5.972,5.69M41.4,50.731l.056-1.338-1.335.056a9.724,9.724,0,0,0-9.245,9.245l-.056,1.336,1.336-.056A9.641,9.641,0,0,0,41.4,50.731m-10.976,9.3-.056-1.336a9.725,9.725,0,0,0-9.246-9.245l-1.335-.056.056,1.338a9.641,9.641,0,0,0,9.245,9.243Z" transform="translate(-1.403 -11.868)" fill="#7ecbe6"/>
        <path id="Trazado_996313" data-name="Trazado 996313" d="M58.431,13.173v5.284H31.554V7.482h7.082A6.5,6.5,0,0,1,44.95,2.6a6.352,6.352,0,0,1,6.313,4.878h7.168Z" transform="translate(-15.775 -1.302)" fill="#b69b7f"/>
        <path id="Trazado_996314" data-name="Trazado 996314" d="M69.459,75.04,69.4,76.378a9.641,9.641,0,0,1-9.245,9.243l-1.336.056.056-1.336A9.725,9.725,0,0,1,68.123,75.1Z" transform="translate(-29.407 -37.515)" fill="#8aba64"/>
        <path id="Trazado_996315" data-name="Trazado 996315" d="M54.982,63.864l-.015.017-.906-.985a9.725,9.725,0,0,1,0-13.074l.906-.985.907.985a9.642,9.642,0,0,1,0,13.074Z" transform="translate(-25.765 -24.415)" fill="#8aba64"/>
        <path id="Trazado_996316" data-name="Trazado 996316" d="M47.342,84.34l.056,1.336-1.336-.056a9.64,9.64,0,0,1-9.245-9.243l-.056-1.338L38.1,75.1a9.723,9.723,0,0,1,9.245,9.245" transform="translate(-18.378 -37.514)" fill="#8aba64"/>
        <path id="Trazado_996317" data-name="Trazado 996317" d="M51.06,10.452H44.08V6.18a1.375,1.375,0,0,0-1.424-1.3H36.49A7.861,7.861,0,0,0,29.153,0a7.666,7.666,0,0,0-7.265,4.877H15.779a1.375,1.375,0,0,0-1.424,1.3v4.271H7.376A7.3,7.3,0,0,0,0,17.562V73.7a7.217,7.217,0,0,0,7.376,7.012H51.06A7.217,7.217,0,0,0,58.436,73.7V17.562a7.3,7.3,0,0,0-7.376-7.111m-34-2.871h5.8a1.36,1.36,0,0,0,1.308-1.024,5.154,5.154,0,0,1,4.989-3.874h.017A5.04,5.04,0,0,1,34.167,6.5a1.36,1.36,0,0,0,1.322,1.077h5.889v8.275H17.058ZM55.733,73.7a4.516,4.516,0,0,1-4.673,4.31H7.376A4.516,4.516,0,0,1,2.7,73.7V17.562a4.6,4.6,0,0,1,4.673-4.408h6.98v4a1.459,1.459,0,0,0,1.424,1.4H42.656a1.459,1.459,0,0,0,1.424-1.4v-4h6.98a4.6,4.6,0,0,1,4.673,4.408Z" transform="translate(0 0)" fill="#040506"/>
        <path id="Trazado_996318" data-name="Trazado 996318" d="M57.023,59.286l-1.326.056a11,11,0,0,0-8.1,4.113v-.367l.528-.573a11.009,11.009,0,0,0,0-14.921l-.9-.953a1.4,1.4,0,0,0-1.987,0l-.9.965a11.083,11.083,0,0,0-.007,14.9l.564.608v.336A10.975,10.975,0,0,0,36.8,59.342l-1.336-.056a1.351,1.351,0,0,0-1.406,1.294q0,.056,0,.113l.056,1.325a11,11,0,0,0,10.539,10.55l.239.01v4.051a1.351,1.351,0,1,0,2.7,0V72.577l.228-.01a11.007,11.007,0,0,0,10.55-10.55l.056-1.325a1.351,1.351,0,0,0-1.294-1.406q-.056,0-.113,0Zm-20.2,2.761a8.357,8.357,0,0,1,7.816,7.815,8.273,8.273,0,0,1-7.816-7.815m9.412-12.519a8.277,8.277,0,0,1,0,11.053,8.357,8.357,0,0,1,0-11.053Zm1.621,20.334a8.358,8.358,0,0,1,7.816-7.814,8.278,8.278,0,0,1-7.817,7.814Z" transform="translate(-17.028 -23.11)" fill="#040506"/>
        <path id="Trazado_996319" data-name="Trazado 996319" d="M57.079,119.853H35.461a1.351,1.351,0,0,0,0,2.7H57.079a1.351,1.351,0,0,0,0-2.7" transform="translate(-17.053 -59.918)" fill="#040506"/>
        <path id="Trazado_996320" data-name="Trazado 996320" d="M57.079,133.7H35.461a1.351,1.351,0,0,0,0,2.7H57.079a1.351,1.351,0,0,0,0-2.7" transform="translate(-17.053 -66.84)" fill="#040506"/>
      </g>
    </g>
  </g>
</svg>
