<svg xmlns="http://www.w3.org/2000/svg" xmlns:xlink="http://www.w3.org/1999/xlink" width="121" height="122" viewBox="0 0 121 122">
  <defs>
    <clipPath id="clip-path">
      <rect id="Rectángulo_405198" data-name="Rectángulo 405198" width="88.593" height="88.593" fill="none"/>
    </clipPath>
  </defs>
  <g id="Grupo_1209728" data-name="Grupo 1209728" transform="translate(919 6988)">
    <ellipse id="Elipse_11975" data-name="Elipse 11975" cx="60.5" cy="61" rx="60.5" ry="61" transform="translate(-919 -6988)" fill="#55cb5d"/>
    <g id="Grupo_1108734" data-name="Grupo 1108734" transform="translate(-901.797 -6971.297)">
      <g id="Grupo_1108733" data-name="Grupo 1108733" clip-path="url(#clip-path)">
        <path id="Trazado_996334" data-name="Trazado 996334" d="M45.317,2.751c-22.932,0-42.566,19.627-42.566,42.566,0,6.268,2.165,13.043,4.651,18.371L26.759,83.437l.007.007a42.642,42.642,0,0,0,18.551,4.44c22.984,0,42.566-19.68,42.566-42.566,0-22.87-19.567-42.566-42.566-42.566" transform="translate(-1.021 -1.021)" fill="#71ae4c"/>
        <path id="Trazado_996335" data-name="Trazado 996335" d="M54.339,85.118c.051,1.643-1.4,4.117-3.135,4.414-1.908.327-4.162-1.978-5.137-10.917v0l-.4-10.764c0-3.918-9.344-7.3-9.344-10.879V52.589c0-1.376-.945-2.5-5.1-4.75-.245-.116-.48-.242-.708-.377.245.13.481.255.708.377a11.036,11.036,0,0,0,4.682,1.083c8.762.142,8.639-5.1,13.464-5.1,2.226,0,2.942,2.3,4.381,4.381,5.2,7.519,13.145,3.419,13.145,8.764,0,10.772-12.557,23.055-12.557,27.788,0,.15-.005.2,0,.36M62.453,8.77h0c-1.659.013-4.32.561-4.32,4.382,0,4.381,4.381,8.762,4.381,13.145,0,3.736-3.186,4.286-6.84,4.368h0l-6.842.182h0a13.4,13.4,0,0,0-8.222,4.213c-4.382,4.383-8.763-4.381-13.145,0-3.341,3.342-1.781,9.563,3.04,12.394-1.857-.977-4.28-2.156-7.424-3.63-5.352-2.512-14.155-.577-4.426-16.371,4.744-7.7.577-8.714-4.278-8.693A42.324,42.324,0,0,0,2.751,47.551c0,6.267,2.164,13.043,4.651,18.371L26.76,85.669l.007.007a42.637,42.637,0,0,0,18.551,4.44,40.33,40.33,0,0,0,5.909-.436c20.3-3.011,36.657-21.194,36.657-42.13,0-16.9-10.652-32-25.43-38.781" transform="translate(-1.021 -3.254)" fill="#91d1e7"/>
        <path id="Trazado_996336" data-name="Trazado 996336" d="M84.894,86.934a3.461,3.461,0,1,1-3.461,3.461,3.459,3.459,0,0,1,3.461-3.461" transform="translate(-30.215 -32.256)" fill="#d9ac97"/>
        <path id="Trazado_996337" data-name="Trazado 996337" d="M84.894,86.934a3.461,3.461,0,1,1-3.461,3.461,3.459,3.459,0,0,1,3.461-3.461" transform="translate(-30.215 -32.256)" fill="none" stroke="#040506" stroke-miterlimit="13.333" stroke-width="2"/>
        <path id="Trazado_996338" data-name="Trazado 996338" d="M82.852,40.876a3.461,3.461,0,1,1-3.461-3.461,3.46,3.46,0,0,1,3.461,3.461" transform="translate(-28.173 -13.882)" fill="#d9ac97"/>
        <path id="Trazado_996339" data-name="Trazado 996339" d="M82.852,40.876a3.461,3.461,0,1,1-3.461-3.461,3.46,3.46,0,0,1,3.461,3.461" transform="translate(-28.173 -13.882)" fill="none" stroke="#040506" stroke-miterlimit="13.333" stroke-width="2"/>
        <path id="Trazado_996340" data-name="Trazado 996340" d="M68.387,15.406a3.461,3.461,0,1,1-3.461,3.461,3.459,3.459,0,0,1,3.461-3.461" transform="translate(-24.09 -5.716)" fill="#d9ac97"/>
        <path id="Trazado_996341" data-name="Trazado 996341" d="M68.387,15.406a3.461,3.461,0,1,1-3.461,3.461,3.459,3.459,0,0,1,3.461-3.461" transform="translate(-24.09 -5.716)" fill="none" stroke="#040506" stroke-miterlimit="13.333" stroke-width="2"/>
        <path id="Trazado_996342" data-name="Trazado 996342" d="M71.847,112.4a3.461,3.461,0,1,1-3.461-3.461,3.461,3.461,0,0,1,3.461,3.461" transform="translate(-24.09 -40.422)" fill="#d9ac97"/>
        <path id="Trazado_996343" data-name="Trazado 996343" d="M71.847,112.4a3.461,3.461,0,1,1-3.461-3.461,3.461,3.461,0,0,1,3.461,3.461" transform="translate(-24.09 -40.422)" fill="none" stroke="#040506" stroke-miterlimit="13.333" stroke-width="2"/>
        <path id="Trazado_996344" data-name="Trazado 996344" d="M26.383,98.141a13.844,13.844,0,0,1,2.2,2.867h8.773l-6.921,6.921a13.843,13.843,0,1,1-4.054-9.789" transform="translate(-1.021 -34.91)" fill="#e66485"/>
        <path id="Trazado_996345" data-name="Trazado 996345" d="M26.383,98.141a13.844,13.844,0,0,1,2.2,2.867h8.773l-6.921,6.921a13.843,13.843,0,1,1-4.054-9.789" transform="translate(-1.021 -34.91)" fill="none" stroke="#040506" stroke-miterlimit="13.333" stroke-width="2"/>
        <path id="Trazado_996346" data-name="Trazado 996346" d="M46.378,26.41a3.461,3.461,0,1,1-3.461,3.461,3.459,3.459,0,0,1,3.461-3.461" transform="translate(-15.924 -9.799)" fill="#d9ac97"/>
        <path id="Trazado_996347" data-name="Trazado 996347" d="M46.378,26.41a3.461,3.461,0,1,1-3.461,3.461,3.459,3.459,0,0,1,3.461-3.461" transform="translate(-15.924 -9.799)" fill="none" stroke="#040506" stroke-miterlimit="13.333" stroke-width="2"/>
        <path id="Trazado_996348" data-name="Trazado 996348" d="M93.674,8.773c-1.658.012-4.319.56-4.319,4.381,0,4.381,4.381,8.762,4.381,13.145,0,3.736-3.186,4.286-6.84,4.368" transform="translate(-32.242 -3.255)" fill="none" stroke="#040506" stroke-linecap="round" stroke-linejoin="round" stroke-width="2"/>
        <path id="Trazado_996349" data-name="Trazado 996349" d="M46.9,68.142c.228.135.464.261.708.377A11.046,11.046,0,0,0,52.285,69.6c8.762.142,8.639-5.1,13.464-5.1,2.225,0,2.942,2.3,4.381,4.381,5.2,7.519,13.145,3.419,13.145,8.764,0,10.772-12.557,23.055-12.557,27.788,0,.151-.005.2,0,.36.05,1.644-1.4,4.117-3.135,4.415-1.908.326-4.161-1.978-5.137-10.917" transform="translate(-17.4 -23.934)" fill="none" stroke="#040506" stroke-linecap="round" stroke-linejoin="round" stroke-width="2"/>
        <path id="Trazado_996350" data-name="Trazado 996350" d="M62.358,43.871a13.4,13.4,0,0,0-8.222,4.213c-4.383,4.383-8.765-4.381-13.145,0-3.342,3.341-1.781,9.563,3.04,12.394" transform="translate(-14.549 -16.278)" fill="none" stroke="#040506" stroke-linecap="round" stroke-linejoin="round" stroke-width="2"/>
        <path id="Trazado_996351" data-name="Trazado 996351" d="M21.18,24.655c4.856-.021,9.022.99,4.278,8.694-9.728,15.793-.926,13.858,4.426,16.371,3.144,1.474,5.567,2.652,7.423,3.63l.014.007c.246.13.481.254.708.377,4.151,2.246,5.1,3.374,5.1,4.75v4.381c0,3.574,9.344,6.961,9.344,10.879v3.926" transform="translate(-7.825 -9.148)" fill="none" stroke="#040506" stroke-linecap="round" stroke-linejoin="round" stroke-width="2"/>
        <path id="Trazado_996352" data-name="Trazado 996352" d="M26.766,108.316l-4.893,4.893L16.979,118.1" transform="translate(-6.3 -40.189)" fill="none" stroke="#040506" stroke-linecap="round" stroke-linejoin="round" stroke-width="2"/>
        <path id="Trazado_996353" data-name="Trazado 996353" d="M16.98,108.316l4.893,4.893,4.894,4.894" transform="translate(-6.3 -40.189)" fill="none" stroke="#040506" stroke-linecap="round" stroke-linejoin="round" stroke-width="2"/>
        <path id="Trazado_996354" data-name="Trazado 996354" d="M126.553,107.322a1.35,1.35,0,1,1-1.35-1.35,1.35,1.35,0,0,1,1.35,1.35" transform="translate(-45.955 -39.32)" fill="#040506"/>
        <path id="Trazado_996355" data-name="Trazado 996355" d="M7.406,63.695l0-.007c-2.486-5.328-4.651-12.1-4.651-18.371A42.321,42.321,0,0,1,14.376,16.527,42.588,42.588,0,0,1,45.318,2.75,41.045,41.045,0,0,1,62.454,6.536c14.779,6.783,25.431,21.885,25.431,38.781a41,41,0,0,1-3.712,16.969" transform="translate(-1.021 -1.02)" fill="none" stroke="#040506" stroke-linecap="round" stroke-linejoin="round" stroke-width="2"/>
        <path id="Trazado_996356" data-name="Trazado 996356" d="M89.516,117.705A43.039,43.039,0,0,1,65.394,130.1a40.318,40.318,0,0,1-5.909.436,42.64,42.64,0,0,1-18.551-4.44" transform="translate(-15.188 -43.673)" fill="none" stroke="#040506" stroke-linecap="round" stroke-linejoin="round" stroke-width="2"/>
      </g>
    </g>
  </g>
</svg>
