<svg xmlns="http://www.w3.org/2000/svg" xmlns:xlink="http://www.w3.org/1999/xlink" width="121" height="122" viewBox="0 0 121 122">
  <defs>
    <clipPath id="clip-path">
      <ellipse id="Elipse_11986" data-name="Elipse 11986" cx="60.5" cy="61" rx="60.5" ry="61" transform="translate(-179 -7056)" fill="#55cb5d"/>
    </clipPath>
    <clipPath id="clip-path-2">
      <rect id="Rectángulo_405204" data-name="Rectángulo 405204" width="84.595" height="86.355" fill="none"/>
    </clipPath>
  </defs>
  <g id="Grupo_1209730" data-name="Grupo 1209730" transform="translate(179 6988)">
    <ellipse id="Elipse_11977" data-name="Elipse 11977" cx="60.5" cy="61" rx="60.5" ry="61" transform="translate(-179 -6988)" fill="#55cb5d"/>
    <g id="Enmascarar_grupo_1098825" data-name="Enmascarar grupo 1098825" transform="translate(0 68)" clip-path="url(#clip-path)">
      <g id="Grupo_1108738" data-name="Grupo 1108738" transform="translate(-161.297 -7020.063)">
        <g id="Grupo_1108737" data-name="Grupo 1108737" clip-path="url(#clip-path-2)">
          <path id="Trazado_996375" data-name="Trazado 996375" d="M84.261,43.615V7.1A4.957,4.957,0,0,0,79.3,2.146H7.1A4.957,4.957,0,0,0,2.145,7.1V43.615A4.957,4.957,0,0,0,7.1,48.571H79.3a4.957,4.957,0,0,0,4.957-4.957" transform="translate(-0.906 -0.907)" fill="#bfe4f4"/>
          <path id="Trazado_996376" data-name="Trazado 996376" d="M130.908,2.146H124.3A4.956,4.956,0,0,1,129.256,7.1V43.615a4.957,4.957,0,0,1-4.957,4.957h6.609a4.957,4.957,0,0,0,4.957-4.957V7.1a4.956,4.956,0,0,0-4.957-4.957" transform="translate(-52.509 -0.907)" fill="#a6daeb"/>
          <path id="Trazado_996377" data-name="Trazado 996377" d="M2.146,44.809h1.6a3.893,3.893,0,0,0,3.893-3.893V30.292A3.893,3.893,0,0,0,3.741,26.4h-1.6Z" transform="translate(-0.907 -11.152)" fill="#53aabc"/>
          <path id="Trazado_996378" data-name="Trazado 996378" d="M125.725,43.4a3.954,3.954,0,1,0-3.955-3.954,3.954,3.954,0,0,0,3.955,3.954" transform="translate(-51.441 -14.993)" fill="#53aabc"/>
          <path id="Trazado_996379" data-name="Trazado 996379" d="M125.725,43.4a3.954,3.954,0,1,0-3.955-3.954,3.954,3.954,0,0,0,3.955,3.954" transform="translate(-51.441 -14.993)" fill="none" stroke="#040506" stroke-miterlimit="10" stroke-width="2"/>
          <rect id="Rectángulo_405201" data-name="Rectángulo 405201" width="55.62" height="36.517" transform="translate(11.296 6.193)" fill="#fff"/>
          <rect id="Rectángulo_405202" data-name="Rectángulo 405202" width="55.62" height="5.42" transform="translate(11.423 36.909)" fill="#ba642a"/>
          <rect id="Rectángulo_405203" data-name="Rectángulo 405203" width="13.328" height="36.489" transform="translate(53.587 6.193)" fill="#f37f1d"/>
          <path id="Trazado_996380" data-name="Trazado 996380" d="M63.535,22.11c.011,2.216,2.437,3.816,2.437,3.816s2.41-1.591,2.4-3.84c-.011-2.233-2.437-3.816-2.437-3.816s-2.41,1.607-2.4,3.84" transform="translate(-26.84 -7.718)" fill="#b6c140"/>
          <path id="Trazado_996381" data-name="Trazado 996381" d="M61.815,33.4c1.732,1.383,1.483,4.277,1.483,4.277s-2.742.905-4.5-.5S57.315,32.9,57.315,32.9s2.754-.894,4.5.5" transform="translate(-24.206 -13.778)" fill="#b6c140"/>
          <path id="Trazado_996382" data-name="Trazado 996382" d="M69.216,33.4c-1.732,1.383-1.483,4.277-1.483,4.277s2.742.905,4.5-.5S73.716,32.9,73.716,32.9s-2.754-.894-4.5.5" transform="translate(-28.608 -13.778)" fill="#b6c140"/>
          <path id="Trazado_996383" data-name="Trazado 996383" d="M61.807,48.785c1.732,1.383,1.483,4.277,1.483,4.277s-2.742.905-4.5-.5-1.483-4.278-1.483-4.278,2.754-.894,4.5.5" transform="translate(-24.203 -20.279)" fill="#b6c140"/>
          <path id="Trazado_996384" data-name="Trazado 996384" d="M69.208,48.785c-1.732,1.383-1.483,4.277-1.483,4.277s2.742.905,4.5-.5,1.483-4.278,1.483-4.278-2.754-.894-4.5.5" transform="translate(-28.605 -20.279)" fill="#b6c140"/>
          <path id="Trazado_996385" data-name="Trazado 996385" d="M34.065,33.4c1.732,1.383,1.483,4.277,1.483,4.277s-2.741.905-4.5-.5S29.566,32.9,29.566,32.9s2.754-.894,4.5.5" transform="translate(-12.484 -13.778)" fill="#b6c140"/>
          <path id="Trazado_996386" data-name="Trazado 996386" d="M34.065,33.4c1.732,1.383,1.483,4.277,1.483,4.277s-2.741.905-4.5-.5S29.566,32.9,29.566,32.9s2.754-.894,4.5.5" transform="translate(-12.484 -13.778)" fill="none" stroke="#040506" stroke-miterlimit="10" stroke-width="2"/>
          <path id="Trazado_996387" data-name="Trazado 996387" d="M41.467,33.4c-1.732,1.383-1.483,4.277-1.483,4.277s2.742.905,4.5-.5S45.967,32.9,45.967,32.9s-2.754-.894-4.5.5" transform="translate(-16.886 -13.778)" fill="#b6c140"/>
          <path id="Trazado_996388" data-name="Trazado 996388" d="M34.058,48.379c1.732,1.449,1.483,4.483,1.483,4.483s-2.742.948-4.5-.523-1.483-4.483-1.483-4.483,2.754-.937,4.5.523" transform="translate(-12.481 -20.091)" fill="#b6c140"/>
          <path id="Trazado_996389" data-name="Trazado 996389" d="M34.058,48.379c1.732,1.449,1.483,4.483,1.483,4.483s-2.742.948-4.5-.523-1.483-4.483-1.483-4.483,2.754-.937,4.5.523" transform="translate(-12.481 -20.091)" fill="none" stroke="#040506" stroke-miterlimit="10" stroke-width="2.047"/>
          <path id="Trazado_996390" data-name="Trazado 996390" d="M41.459,48.785c-1.732,1.383-1.483,4.277-1.483,4.277s2.742.905,4.5-.5,1.483-4.278,1.483-4.278-2.754-.894-4.5.5" transform="translate(-16.882 -20.279)" fill="#b6c140"/>
          <path id="Trazado_996391" data-name="Trazado 996391" d="M41.459,48.785c-1.732,1.383-1.483,4.277-1.483,4.277s2.742.905,4.5-.5,1.483-4.278,1.483-4.278-2.754-.894-4.5.5" transform="translate(-16.882 -20.279)" fill="none" stroke="#040506" stroke-miterlimit="10" stroke-width="2"/>
          <path id="Trazado_996392" data-name="Trazado 996392" d="M103.324,93.312V79.848A18.878,18.878,0,0,0,108.851,66.5V48.323a3.426,3.426,0,0,0-3.43-3.44,3.365,3.365,0,0,0-3.3,3.364,3.365,3.365,0,0,0-6.73,0,3.365,3.365,0,0,0-6.731,0V27.011a3.427,3.427,0,0,0-3.431-3.441,3.365,3.365,0,0,0-3.3,3.364V52.667H78.564A3.365,3.365,0,0,0,75.2,56.033v9.133a18.878,18.878,0,0,0,4.566,12.311l2.164,2.515V96.312Z" transform="translate(-31.768 -9.957)" fill="#fcbe8f"/>
          <path id="Trazado_996393" data-name="Trazado 996393" d="M121.157,60.473a3.364,3.364,0,0,0-3.245,2.771,3.472,3.472,0,0,1,.066.67V82.091a18.875,18.875,0,0,1-5.529,13.347V108.9h6.609V95.437a18.874,18.874,0,0,0,5.528-13.347V63.913a3.426,3.426,0,0,0-3.43-3.44" transform="translate(-47.504 -25.546)" fill="#fab17b"/>
          <path id="Trazado_996394" data-name="Trazado 996394" d="M35.785,22.193c.011,2.216,2.437,3.816,2.437,3.816s2.41-1.591,2.4-3.84c-.012-2.361-2.436-3.815-2.437-3.816s-2.41,1.607-2.4,3.84" transform="translate(-15.117 -7.753)" fill="#b6c140"/>
          <path id="Trazado_996395" data-name="Trazado 996395" d="M77.991,48.571h1.315a4.957,4.957,0,0,0,4.957-4.957V7.1a4.957,4.957,0,0,0-4.957-4.957H7.1A4.957,4.957,0,0,0,2.146,7.1V43.614A4.956,4.956,0,0,0,7.1,48.571H44.339" transform="translate(-0.907 -0.906)" fill="none" stroke="#040506" stroke-linecap="round" stroke-linejoin="round" stroke-width="2"/>
          <path id="Trazado_996396" data-name="Trazado 996396" d="M2.146,44.809h1.6a3.893,3.893,0,0,0,3.893-3.893V30.292A3.893,3.893,0,0,0,3.741,26.4h-1.6Z" transform="translate(-0.907 -11.152)" fill="none" stroke="#040506" stroke-linecap="round" stroke-linejoin="round" stroke-width="2"/>
          <path id="Trazado_996397" data-name="Trazado 996397" d="M27.774,47.241H19.558V10.723h55.62V39.456" transform="translate(-8.262 -4.53)" fill="none" stroke="#040506" stroke-linecap="round" stroke-linejoin="round" stroke-width="2"/>
          <line id="Línea_4476" data-name="Línea 4476" x1="22.852" transform="translate(27.1 42.711)" fill="none" stroke="#040506" stroke-linecap="round" stroke-linejoin="round" stroke-width="2"/>
          <line id="Línea_4477" data-name="Línea 4477" x2="38.701" transform="translate(11.296 37.291)" fill="none" stroke="#040506" stroke-linecap="round" stroke-linejoin="round" stroke-width="2"/>
          <path id="Trazado_996398" data-name="Trazado 996398" d="M106.111,39.456V10.723H92.783v6.969" transform="translate(-39.196 -4.53)" fill="none" stroke="#040506" stroke-linecap="round" stroke-linejoin="round" stroke-width="2"/>
          <line id="Línea_4478" data-name="Línea 4478" y1="18.707" transform="translate(23.077 18.551)" fill="none" stroke="#040506" stroke-linecap="round" stroke-linejoin="round" stroke-width="2"/>
          <path id="Trazado_996399" data-name="Trazado 996399" d="M35.785,22.193c.011,2.216,2.437,3.816,2.437,3.816s2.41-1.591,2.4-3.84c-.012-2.361-2.436-3.815-2.437-3.816S35.774,19.96,35.785,22.193Z" transform="translate(-15.117 -7.753)" fill="none" stroke="#040506" stroke-linecap="round" stroke-linejoin="round" stroke-width="2"/>
          <path id="Trazado_996400" data-name="Trazado 996400" d="M41.467,33.4c-1.732,1.383-1.483,4.277-1.483,4.277s2.742.905,4.5-.5S45.967,32.9,45.967,32.9,43.212,32,41.467,33.4Z" transform="translate(-16.886 -13.778)" fill="none" stroke="#040506" stroke-linecap="round" stroke-linejoin="round" stroke-width="2"/>
          <line id="Línea_4479" data-name="Línea 4479" y1="18.707" transform="translate(39.104 18.551)" fill="none" stroke="#040506" stroke-linecap="round" stroke-linejoin="round" stroke-width="2"/>
          <path id="Trazado_996401" data-name="Trazado 996401" d="M63.535,22.11c.011,2.216,2.437,3.816,2.437,3.816s2.41-1.591,2.4-3.84c-.011-2.233-2.437-3.816-2.437-3.816S63.524,19.877,63.535,22.11Z" transform="translate(-26.84 -7.718)" fill="none" stroke="#040506" stroke-linecap="round" stroke-linejoin="round" stroke-width="2"/>
          <path id="Trazado_996402" data-name="Trazado 996402" d="M61.815,33.4c1.732,1.383,1.483,4.277,1.483,4.277s-2.742.905-4.5-.5S57.315,32.9,57.315,32.9,60.069,32,61.815,33.4Z" transform="translate(-24.206 -13.778)" fill="none" stroke="#040506" stroke-linecap="round" stroke-linejoin="round" stroke-width="2"/>
          <path id="Trazado_996403" data-name="Trazado 996403" d="M69.216,33.4c-1.732,1.383-1.483,4.277-1.483,4.277s2.742.905,4.5-.5S73.716,32.9,73.716,32.9,70.961,32,69.216,33.4Z" transform="translate(-28.608 -13.778)" fill="none" stroke="#040506" stroke-linecap="round" stroke-linejoin="round" stroke-width="2"/>
          <path id="Trazado_996404" data-name="Trazado 996404" d="M61.807,48.785c1.732,1.383,1.483,4.277,1.483,4.277s-2.742.905-4.5-.5-1.483-4.278-1.483-4.278S60.061,47.392,61.807,48.785Z" transform="translate(-24.203 -20.279)" fill="none" stroke="#040506" stroke-linecap="round" stroke-linejoin="round" stroke-width="2"/>
          <path id="Trazado_996405" data-name="Trazado 996405" d="M69.208,48.785c-1.732,1.383-1.483,4.277-1.483,4.277s2.742.905,4.5-.5,1.483-4.278,1.483-4.278S70.953,47.392,69.208,48.785Z" transform="translate(-28.605 -20.279)" fill="none" stroke="#040506" stroke-linecap="round" stroke-linejoin="round" stroke-width="2"/>
          <path id="Trazado_996406" data-name="Trazado 996406" d="M88.66,29.953V27.011a3.427,3.427,0,0,0-3.43-3.441,3.366,3.366,0,0,0-3.3,3.365V52.668H78.564A3.365,3.365,0,0,0,75.2,56.033v9.133a18.876,18.876,0,0,0,4.567,12.31l2.164,2.515V95.313" transform="translate(-31.767 -9.957)" fill="none" stroke="#040506" stroke-linecap="round" stroke-linejoin="round" stroke-width="2"/>
          <path id="Trazado_996407" data-name="Trazado 996407" d="M113.169,103V89.532A18.878,18.878,0,0,0,118.7,76.184V58.007a3.426,3.426,0,0,0-3.43-3.44,3.365,3.365,0,0,0-3.3,3.364,3.365,3.365,0,0,0-6.73,0,3.365,3.365,0,0,0-6.731,0V46.492" transform="translate(-41.613 -19.64)" fill="none" stroke="#040506" stroke-linecap="round" stroke-linejoin="round" stroke-width="2"/>
          <line id="Línea_4480" data-name="Línea 4480" y2="11.581" transform="translate(50.162 42.534)" fill="none" stroke="#040506" stroke-linecap="round" stroke-linejoin="round" stroke-width="2"/>
          <line id="Línea_4481" data-name="Línea 4481" y2="3.484" transform="translate(56.893 38.291)" fill="none" stroke="#040506" stroke-linecap="round" stroke-linejoin="round" stroke-width="2"/>
          <line id="Línea_4482" data-name="Línea 4482" y2="3.484" transform="translate(63.623 38.291)" fill="none" stroke="#040506" stroke-linecap="round" stroke-linejoin="round" stroke-width="2"/>
          <line id="Línea_4483" data-name="Línea 4483" y2="3.484" transform="translate(70.354 38.291)" fill="none" stroke="#040506" stroke-linecap="round" stroke-linejoin="round" stroke-width="2"/>
        </g>
      </g>
    </g>
  </g>
</svg>
